<svg xmlns="http://www.w3.org/2000/svg" xmlns:xlink="http://www.w3.org/1999/xlink" viewBox="0 0 502 279">
  <image overflow="visible" width="502" height="279" xlink:href="fetch-fallback.d1a070adadd3.jpg"/>
  <path fill="#fff" d="M22.3 40.3c-1.9 0-3.6-.4-5-1.1-1.5-.8-2.4-1.8-2.9-3-.4-1.2-.6-2.7-.6-4.8v-2.5h6.4c-.3-.2-.6-.4-1-.7-1.8-1.2-2.9-2-3.5-2.5-.6-.6-1.2-1.4-1.6-2.4-.4-1-.6-2.2-.6-3.7 0-2.2.3-3.7.9-4.8.6-1.1 1.5-1.9 2.8-2.5 1.2-.6 2.7-.9 4.5-.9 1.9 0 3.5.3 4.9.9 1.4.6 2.4 1.5 2.9 2.5s.7 2.5.7 4.8v1.8h-7c.1.1.2.1.3.2 3.2 1.9 5.1 3.4 6 4.7.9 1.3 1.3 3.3 1.3 6 0 2-.2 3.5-.7 4.5-.5 1-1.5 1.9-2.9 2.6-1.5.6-3.1.9-4.9.9zm-.7-7.5c0 1.2.1 1.5.2 1.5 0 0 .2.1.3.1.2 0 .3-.1.4-.2.1-.2.2-.5.2-1.2 0-1.8-.3-2.4-.4-2.5l-.6-.6v2.9zm.3-15.4c-.2 0-.2.1-.3.2-.1.1-.2.4-.2 1.1 0 .9.1 1.4.3 1.6 0 .1.2.3.5.6v-2.1c0-1.1-.1-1.3-.1-1.3 0-.1 0-.1-.2-.1z"/>
  <path d="M21.7 12.2c1.8 0 3.3.3 4.5.9 1.3.6 2.1 1.3 2.5 2.2.4.9.6 2.4.6 4.4v1H23v-1.9c0-.9-.1-1.5-.2-1.7-.2-.2-.4-.4-.8-.4s-.7.2-.9.5c-.2.3-.3.8-.3 1.5 0 .9.1 1.5.4 2 .2.4.9 1 1.9 1.6 3 1.8 5 3.3 5.8 4.4.8 1.2 1.2 3 1.2 5.6 0 1.9-.2 3.3-.7 4.1-.4.9-1.3 1.6-2.5 2.2-1.3.6-2.7.9-4.4.9-1.8 0-3.4-.3-4.7-1-1.3-.7-2.1-1.6-2.5-2.6-.4-1.1-.6-2.6-.6-4.6v-1.7h6.4v3.2c0 1 .1 1.6.3 1.9.2.3.5.4 1 .4s.8-.2 1-.5c.2-.4.3-.9.3-1.6 0-1.5-.2-2.6-.6-3-.4-.5-1.5-1.3-3.2-2.4-1.7-1.1-2.8-1.9-3.4-2.5-.6-.5-1-1.2-1.4-2.1-.4-.9-.5-2-.5-3.4 0-2 .3-3.5.8-4.4.5-.9 1.3-1.7 2.5-2.2.8-.5 2.2-.8 3.8-.8m0-1.5c-1.8 0-3.4.3-4.8.9-1.4.7-2.5 1.6-3.2 2.8-.6 1.2-1 2.9-1 5.1 0 1.6.2 2.9.7 4 .4 1.1 1 2 1.7 2.7.5.4 1.3 1.1 2.5 1.9H13v3.2c0 2.2.2 3.8.7 5.1.5 1.4 1.6 2.6 3.2 3.4 1.5.8 3.3 1.2 5.4 1.2 1.9 0 3.6-.4 5-1 1.6-.7 2.7-1.7 3.2-2.9.5-1.1.8-2.7.8-4.8 0-2.9-.5-5-1.4-6.4-.7-1.1-2.1-2.3-4.3-3.7h5.1v-2.5c0-2.3-.2-4-.7-5.1-.6-1.2-1.6-2.2-3.2-2.9-1.4-.7-3.1-1-5.1-1z"/>
  <path fill="#fff" d="M34.2 39.8v-21h-4V12h16.4v6.8h-4.1v21z"/>
  <path d="M45.8 12.7V18h-4.1v21h-6.8V18h-4v-5.3h14.9m1.5-1.5H29.4v8.3h4v21h9.8v-21h4.1v-8.3z"/>
  <path fill="#fff" d="M55.1 40.3c-1.5 0-2.9-.3-4.1-.7-1.2-.5-2.3-1.3-3-2.3-.8-1-1.2-2.2-1.4-3.4-.1-1.1-.2-3-.2-5.8v-4.5c0-2.7.1-4.6.2-5.7.1-1.2.6-2.4 1.3-3.4.7-1 1.7-1.8 3-2.3 1.2-.5 2.6-.8 4.2-.8 1.5 0 2.9.3 4.1.7 1.2.5 2.3 1.3 3 2.3.8 1 1.2 2.2 1.4 3.4.1 1.1.2 3 .2 5.8v4.5c0 2.7-.1 4.6-.2 5.7-.1 1.2-.6 2.4-1.3 3.4-.7 1-1.7 1.8-3 2.3-1.2.6-2.6.8-4.2.8zm.1-22.9c-.1 0-.2 0-.2.1 0 0-.2.4-.2 2v12.3c0 2 .1 2.5.1 2.6h.3c.1-.2.2-.8.2-2.8V19.5c0-1.6-.1-2-.2-2.1.1 0 0 0 0 0z"/>
  <path d="M55.1 12.2c1.4 0 2.7.2 3.8.7 1.1.5 2 1.2 2.7 2.1.7.9 1.1 1.9 1.2 3 .1 1.1.2 3 .2 5.7v4.5c0 2.6-.1 4.5-.2 5.6-.1 1.1-.5 2.1-1.2 3-.7.9-1.5 1.6-2.7 2.1-1.1.5-2.4.7-3.9.7-1.4 0-2.7-.2-3.8-.7-1.1-.5-2-1.2-2.7-2.1-.7-.9-1.1-1.9-1.2-3-.1-1.1-.2-3-.2-5.7v-4.5c0-2.6.1-4.5.2-5.6.1-1.1.5-2.1 1.2-3 .7-.9 1.5-1.6 2.7-2.1 1.1-.5 2.4-.7 3.9-.7m0 22.9c.5 0 .8-.2.9-.6.1-.4.2-1.4.2-2.9V19.5c0-1.2-.1-2-.2-2.3-.1-.3-.4-.5-.8-.5s-.6.1-.8.4c-.2.3-.3 1.1-.3 2.4v12.3c0 1.5.1 2.5.2 2.8.1.4.4.5.8.5m0-24.4c-1.7 0-3.2.3-4.5.9-1.4.6-2.5 1.5-3.3 2.6-.8 1.1-1.3 2.4-1.4 3.7-.1 1.2-.2 3.1-.2 5.8v4.5c0 2.8.1 4.7.2 5.9.2 1.3.7 2.6 1.5 3.7s2 2 3.3 2.6c1.3.5 2.8.8 4.4.8 1.7 0 3.2-.3 4.5-.9 1.4-.6 2.5-1.5 3.3-2.6.8-1.1 1.3-2.4 1.4-3.7.1-1.2.2-3.1.2-5.8v-4.5c0-2.8-.1-4.7-.2-5.9-.2-1.3-.7-2.6-1.5-3.7s-2-2-3.3-2.6c-1.3-.5-2.8-.8-4.4-.8z"/>
  <path fill="#fff" d="M64.8 39.8V12h7.6c2 0 3.4.2 4.5.5s2 .8 2.6 1.5c.6.6 1 1.4 1.2 2.3.2.8.3 2.1.3 3.8v2.3c0 1.8-.2 3.1-.6 4-.4.9-1.2 1.7-2.3 2.1-1 .5-2.3.7-3.9.7h-1.1v10.6h-8.3zm8.4-16.6c.2 0 .4-.1.5-.2 0 0 .2-.3.2-1.5v-2.2c0-1-.2-1.2-.2-1.2s-.1-.1-.5-.1v5.2z"/>
  <path d="M72.5 12.7c1.9 0 3.3.1 4.3.4 1 .3 1.8.7 2.3 1.3.5.6.8 1.2 1 2 .2.8.3 2 .3 3.6v2.3c0 1.7-.2 2.9-.5 3.7-.3.8-1 1.4-1.9 1.8-.9.4-2.1.6-3.6.6h-1.8V39h-6.8V12.7h6.7m.4 11.3c.6 0 1.1-.2 1.3-.5.2-.3.4-1 .4-1.9v-2.2c0-.9-.1-1.5-.4-1.8-.3-.3-.9-.4-1.8-.4v6.7c.2.1.4.1.5.1m-.4-12.8h-8.4v29.3h9.8V30h.3c1.7 0 3.1-.2 4.2-.7 1.3-.6 2.2-1.4 2.7-2.5.4-1 .7-2.4.7-4.3v-2.3c0-1.8-.1-3.1-.3-4-.2-1-.7-1.9-1.4-2.7-.7-.8-1.7-1.3-2.9-1.7-1.2-.4-2.7-.6-4.7-.6z"/>
  <path fill="#fff" d="M90.3 39.8v-21h-4.1V12h16.5v6.8h-4.1v21z"/>
  <path d="M101.9 12.7V18h-4.1v21H91V18h-4v-5.3h14.9m1.5-1.5H85.5v8.3h4v21h9.8v-21h4.1v-8.3z"/>
  <path fill="#fff" d="M111.7 39.8v-9.5c0-1.8-.2-2.2-.2-2.2s-.1-.1-.4-.1v11.8h-8.3V12h5.6c3.3 0 5.5.1 6.7.4 1.3.3 2.4 1 3.2 2.2.8 1.2 1.2 2.9 1.2 5.3 0 2.2-.3 3.7-.9 4.6-.3.4-.7.7-1.2 1 .4.2.6.5.9.7.5.7.9 1.3 1 1.9.1.3.2 1.1.2 4.1v7.7h-7.8zm-.6-17.5c.3 0 .4-.1.4-.1s.1-.3.1-1.4v-1.4c0-.9-.2-1.1-.2-1.1s-.1-.1-.4-.1v4.1z"/>
  <path d="M108.3 12.7c3.2 0 5.4.1 6.6.4 1.1.2 2.1.9 2.8 1.9.7 1 1.1 2.7 1.1 4.9 0 2-.3 3.4-.8 4.1-.5.7-1.5 1.1-3 1.3 1.4.3 2.3.8 2.7 1.3.5.6.8 1.1.9 1.6.1.5.2 1.8.2 3.9V39h-6.4v-8.7c0-1.4-.1-2.3-.3-2.6-.2-.3-.8-.5-1.7-.5V39h-6.8V12.7h4.7m2 10.4c.8 0 1.3-.1 1.6-.3.3-.2.5-.9.5-2.1v-1.4c0-.8-.1-1.4-.4-1.6-.3-.3-.8-.4-1.6-.4v5.8m-2.1-11.9H102v29.3h18.3v-8.4c0-3-.1-3.8-.2-4.2-.2-.7-.6-1.4-1.2-2.2l-.2-.2c.2-.2.4-.4.5-.6.7-1 1-2.6 1-5 0-2.6-.4-4.5-1.4-5.8-.9-1.3-2.2-2.2-3.7-2.5-1.2-.2-3.4-.4-6.8-.4z"/>
  <path fill="#fff" d="M123.9 39.8V29.6L118.8 12h7.9l.1.6c.4 2.1.7 3.9 1 5.4.3-1.7.7-3.5 1.1-5.5l.1-.6h7.9l-5.2 17.6v10.2h-7.8z"/>
  <path d="M136 12.7l-5 16.8V39h-6.3v-9.5l-4.8-16.8h6.3c1 5.1 1.5 8.6 1.7 10.4.4-2.8 1-6.3 1.9-10.4h6.2m2-1.5h-9.5l-.3 1.2-.3 1.6-.3-1.5-.2-1.2h-9.5l.5 1.9 4.8 16.6v10.7h9.3V29.7l4.9-16.6.6-1.9z"/>
  <path fill="#fff" d="M136.4 12h8.3v27.8h-8.3z"/>
  <path d="M144 12.7V39h-6.8V12.7h6.8m1.5-1.5h-9.8v29.3h9.8V11.2z"/>
  <path fill="#fff" d="M155.4 39.8l-2.2-7.6v7.6H146V12h7l2.5 7.8V12h7.2v27.8z"/>
  <path d="M162 12.7V39h-6l-3.6-12v12h-5.7V12.7h5.7l3.8 11.8V12.7h5.8m1.5-1.5h-8.7V15l-.9-2.8-.3-1h-8.3v29.3h8.7v-3.2l.6 2.1.3 1.1h8.6V11.2z"/>
  <path fill="#fff" d="M171.2 40.3c-1.3 0-2.5-.3-3.6-.9-1.1-.6-2-1.4-2.6-2.3-.6-.9-.9-1.9-1.1-2.9-.1-.9-.2-2.3-.2-4.2v-7.8c0-2.6.1-4.4.4-5.6.3-1.3 1.2-2.5 2.6-3.6 1.4-1 3.2-1.6 5.4-1.6 2.1 0 3.9.5 5.4 1.3 1.5.9 2.4 2 2.9 3.3.4 1.2.6 2.9.6 5.2v1.9h-8.3V20c0-2-.1-2.5-.2-2.6 0 0-.1-.1-.2-.1h-.2c0 .1-.2.5-.2 2.2V24h9v15.6h-5.6l-.4-1c-.3.4-.7.6-1.1.9-.5.6-1.5.8-2.6.8zm.9-8c0 1.5.1 1.9.2 2 0 .1 0 .1.2.1s.3-.1.3-.2c.1-.1.2-.7.2-2.2v-2.4h-.9v2.7z"/>
  <path d="M172.3 12.2c2 0 3.7.4 5 1.2 1.3.8 2.2 1.8 2.6 2.9.4 1.1.6 2.8.6 4.9v1.1h-6.8V20c0-1.5-.1-2.4-.2-2.8-.1-.4-.4-.6-.9-.6-.4 0-.7.2-.9.5-.2.3-.2 1.2-.2 2.5v12.6c0 1.2.1 2 .2 2.3.2.4.5.6.9.6.5 0 .8-.2 1-.6.2-.4.3-1.2.3-2.5v-3.1h-1.4v-4h8V39h-4.3l-.6-1.9c-.5.8-1.1 1.4-1.8 1.8-.7.4-1.5.6-2.5.6-1.1 0-2.2-.3-3.2-.8-1-.6-1.8-1.2-2.3-2.1-.5-.8-.8-1.7-1-2.6-.1-.9-.2-2.3-.2-4.1v-7.8c0-2.5.1-4.3.4-5.5.3-1.1 1-2.2 2.3-3.1 1.3-.8 2.9-1.3 5-1.3m0-1.5c-2.4 0-4.3.6-5.9 1.7-1.6 1.2-2.5 2.5-2.9 4-.3 1.3-.4 3.2-.4 5.8V30c0 1.9.1 3.3.2 4.3.2 1.1.6 2.2 1.2 3.2.7 1 1.6 1.9 2.8 2.6 1.2.7 2.6 1 4 1 1.2 0 2.3-.3 3.3-.8.1-.1.3-.2.4-.3l.2.5h6.9V21.3c0-2.3-.2-4.1-.7-5.4-.5-1.5-1.6-2.7-3.2-3.7-1.7-1-3.7-1.5-5.9-1.5z"/>
  <path fill="#fff" d="M191.1 39.8v-21H187V12h16.5v6.8h-4.1v21z"/>
  <path d="M202.7 12.7V18h-4.1v21h-6.8V18h-4v-5.3h14.9m1.5-1.5h-17.9v8.3h4v21h9.8v-21h4.1v-8.3z"/>
  <path fill="#fff" d="M212 40.3c-1.5 0-2.9-.3-4.1-.7-1.2-.5-2.3-1.3-3-2.3-.8-1-1.2-2.2-1.4-3.4-.1-1.1-.2-3-.2-5.8v-4.5c0-2.7.1-4.6.2-5.7.1-1.2.6-2.4 1.3-3.4.7-1 1.7-1.8 3-2.3 1.2-.5 2.6-.8 4.2-.8 1.5 0 2.9.3 4.1.7 1.2.5 2.3 1.3 3 2.3.8 1 1.2 2.2 1.4 3.4.1 1.1.2 3 .2 5.8v4.5c0 2.7-.1 4.6-.2 5.7-.1 1.2-.6 2.4-1.3 3.4-.7 1-1.7 1.8-3 2.3-1.2.6-2.6.8-4.2.8zm0-22.9c-.1 0-.2 0-.2.1 0 0-.2.4-.2 2v12.3c0 2 .1 2.5.1 2.6h.3c.1-.2.2-.8.2-2.8V19.5c0-1.6-.1-2-.2-2.1.2 0 .1 0 0 0z"/>
  <path d="M212 12.2c1.4 0 2.7.2 3.8.7 1.1.5 2 1.2 2.7 2.1.7.9 1.1 1.9 1.2 3 .1 1.1.2 3 .2 5.7v4.5c0 2.6-.1 4.5-.2 5.6-.1 1.1-.5 2.1-1.2 3-.7.9-1.5 1.6-2.7 2.1-1.1.5-2.4.7-3.9.7-1.4 0-2.7-.2-3.8-.7-1.1-.5-2-1.2-2.7-2.1-.7-.9-1.1-1.9-1.2-3-.1-1.1-.2-3-.2-5.7v-4.5c0-2.6.1-4.5.2-5.6.1-1.1.5-2.1 1.2-3 .7-.9 1.5-1.6 2.7-2.1 1.1-.5 2.4-.7 3.9-.7m0 22.9c.5 0 .8-.2.9-.6.1-.4.2-1.4.2-2.9V19.5c0-1.2-.1-2-.2-2.3-.1-.3-.4-.5-.8-.5s-.6.1-.8.4c-.2.3-.3 1.1-.3 2.4v12.3c0 1.5.1 2.5.2 2.8 0 .4.3.5.8.5m0-24.4c-1.7 0-3.2.3-4.5.9-1.4.6-2.5 1.5-3.3 2.6-.8 1.1-1.3 2.4-1.4 3.7-.1 1.2-.2 3.1-.2 5.8v4.5c0 2.8.1 4.7.2 5.9.2 1.3.7 2.6 1.5 3.7s2 2 3.3 2.6c1.3.5 2.8.8 4.4.8 1.7 0 3.2-.3 4.5-.9 1.4-.6 2.5-1.5 3.3-2.6.8-1.1 1.3-2.4 1.4-3.7.1-1.2.2-3.1.2-5.8v-4.5c0-2.8-.1-4.7-.2-5.9-.2-1.3-.7-2.6-1.5-3.7s-2-2-3.3-2.6c-1.3-.5-2.8-.8-4.4-.8z"/>
  <path fill="#fff" d="M242.7 39.8v-7.3l-1 7.3h-5.5l-1.1-7.7v7.7h-7.5V12h10.2l.1.6c.3 1.6.5 3.5.8 5.6l.2 1.2 1-7.5h10.3v27.8h-7.5z"/>
  <path d="M249.4 12.7V39h-6V21.2L241.1 39h-4.2l-2.5-17.4V39h-6V12.7h8.8c.3 1.6.5 3.4.8 5.6l1 6.7 1.6-12.3h8.8m1.5-1.5h-11.7l-.2 1.3-.2 1.3c-.1-.5-.1-.9-.2-1.4l-.2-1.3h-11.6v29.4h24.1V11.2z"/>
  <path fill="#fff" d="M260.2 39.8l-.4-4.7h-1.1l-.4 4.7h-8.6l3.7-27.8h11.2l4.1 27.8h-8.5zm-.7-10.9l-.3-3.3c-.2 1.3-.3 2.4-.4 3.3h.7z"/>
  <path d="M264 12.7l3.9 26.3h-7l-.4-4.7h-2.4l-.4 4.7h-7.1l3.5-26.3h9.9m-6 17h2.4c-.3-3-.7-6.7-1-11-.8 4.9-1.2 8.6-1.4 11m7.3-18.5h-12.5l-.2 1.3-3.5 26.3-.2 1.7h10.2l.1-1.4.1-1.4.1 1.4.1 1.4h10.1l-.3-1.7-3.9-26.3-.1-1.3z"/>
  <path fill="#fff" d="M278.1 39.8l-1.4-5.8v5.8h-8.4V12h8.4v5.8l1.7-5.8h8l-4.2 12.6 4.6 15.2z"/>
  <path d="M285.4 12.7l-3.9 11.9 4.3 14.4h-7.1l-2.8-11.3V39h-6.8V12.7h6.8V23l3-10.2h6.5m2-1.6h-9.5l-.3 1.1-.1.4v-1.4h-9.8v29.2h9.8v-.4l.1.4h10.3l-.6-1.9-4.2-14 3.8-11.4.5-2z"/>
  <path fill="#fff" d="M286.2 39.8V12h12.9v6.8h-4.6v3.4h4.3v6.6h-4.3V33h5v6.8z"/>
  <path d="M298.3 12.7V18h-4.6v5h4.3v5h-4.3v5.8h5V39h-11.9V12.7h11.5m1.5-1.5h-14.4v29.3h14.9v-8.3h-5v-2.8h4.3v-7.9h-4.4v-2h4.6v-8.3z"/>
  <path fill="#fff" d="M305.9 39.8V12h13v6.8h-4.7v3.4h4.2v6.6h-4.2v11z"/>
  <path d="M318.2 12.7V18h-4.7v5h4.2v5h-4.2v11h-6.8V12.7h11.5m1.5-1.5h-14.6v29.3h9.8v-11h4.2v-8H315v-2h4.7v-8.3z"/>
  <path fill="#fff" d="M319.1 39.8V12H332v6.8h-4.6v3.4h4.3v6.6h-4.3V33h5.1v6.8z"/>
  <path d="M331.3 12.7V18h-4.6v5h4.3v5h-4.3v5.8h5V39h-11.9V12.7h11.5m1.5-1.5h-14.4v29.3h14.9v-8.3h-5v-2.8h4.3v-7.9h-4.4v-2h4.6v-8.3z"/>
  <path fill="#fff" d="M335.4 39.8v-21h-4.1V12h16.5v6.8h-4.1v21z"/>
  <path d="M347 12.7V18h-4v21h-6.8V18h-4v-5.3H347m1.5-1.5h-17.9v8.3h4v21h9.8v-21h4.1v-8.3z"/>
  <path fill="#fff" d="M356.6 40.3c-2.1 0-3.9-.4-5.3-1.2-1.5-.8-2.4-2-2.9-3.4s-.7-3.3-.7-6V22c0-1.9.1-3.4.2-4.4.1-1.1.6-2.1 1.3-3.1.7-1 1.7-1.8 3-2.3 1.2-.5 2.7-.8 4.2-.8 2.1 0 3.9.4 5.4 1.3 1.5.9 2.4 2 2.9 3.3.4 1.3.7 3.1.7 5.7v3.2H357v-5.3c0-1.8-.1-2.1-.2-2.2h-.3c-.3 0-.4.1-.4.1-.1.1-.2.7-.2 2.3V32c0 1.6.1 2.1.2 2.2 0 0 0 .1.3.1s.3-.1.3-.1c0-.1.2-.6.2-2.5v-4.1h8.3v1.8c0 2.8-.2 4.8-.6 6-.4 1.3-1.4 2.4-2.9 3.4-1.3 1.1-3.1 1.5-5.1 1.5z"/>
  <path d="M356.4 12.2c2 0 3.7.4 5 1.2 1.3.8 2.2 1.7 2.6 2.9.4 1.2.6 3 .6 5.4v2.5h-6.8v-4.6c0-1.3-.1-2.2-.2-2.5-.1-.3-.5-.5-1-.5-.6 0-.9.2-1.1.6-.2.4-.2 1.3-.2 2.6V32c0 1.3.1 2.1.2 2.5.2.4.5.6 1 .6s.8-.2 1-.6c.2-.4.2-1.3.2-2.8v-3.3h6.8v1c0 2.7-.2 4.7-.6 5.8-.4 1.1-1.2 2.1-2.6 3-1.3.9-2.9 1.3-4.9 1.3-2 0-3.7-.4-5-1.1-1.3-.7-2.2-1.7-2.6-3-.4-1.3-.6-3.2-.6-5.8V22c0-1.9.1-3.3.2-4.3.1-.9.5-1.9 1.2-2.7.6-.9 1.5-1.6 2.7-2.1 1.3-.5 2.6-.7 4.1-.7m0-1.5c-1.7 0-3.2.3-4.5.9-1.4.6-2.5 1.5-3.3 2.6-.8 1.1-1.3 2.2-1.4 3.4-.1 1-.2 2.5-.2 4.5v7.7c0 2.8.2 4.8.7 6.3.5 1.6 1.6 2.9 3.3 3.9 1.5.8 3.4 1.3 5.7 1.3 2.2 0 4.1-.5 5.7-1.5 1.6-1 2.7-2.3 3.2-3.8.4-1.3.7-3.4.7-6.3V27H357v-1.3h9.3v-4c0-2.7-.2-4.6-.7-5.9-.5-1.5-1.6-2.7-3.2-3.7-1.8-.9-3.8-1.4-6-1.4z"/>
  <path fill="#fff" d="M375.1 39.8v-11h-.5v11h-8.4V12h8.4v9.4h.5V12h8.4v27.8z"/>
  <path d="M382.7 12.7V39h-6.8V28h-2v11H367V12.7h6.8v9.4h2v-9.4h6.9m1.5-1.5h-18.7v29.3h18.6V11.2h.1z"/>
  <path fill="#fff" d="M399.5 39.8v-11h-.6v11h-8.3V12h8.3v9.4h.6V12h8.3v27.8z"/>
  <path d="M407.1 12.7V39h-6.8V28h-2v11h-6.8V12.7h6.8v9.4h2v-9.4h6.8m1.5-1.5H390v29.3h18.6V11.2z"/>
  <path fill="#fff" d="M417.9 39.8l-.4-4.7h-1.1l-.4 4.7h-8.6l3.7-27.8h11.2l4.1 27.8h-8.5zm-.7-10.9l-.3-3.3c-.2 1.3-.3 2.4-.4 3.3h.7z"/>
  <path d="M421.6 12.7l3.9 26.3h-7l-.4-4.7h-2.4l-.4 4.7h-7.1l3.5-26.3h9.9m-6 17h2.4c-.3-3-.7-6.7-1-11-.7 4.9-1.2 8.6-1.4 11m7.3-18.5h-12.5l-.2 1.3-3.5 26.3-.2 1.7h10.2l.1-1.4.1-1.4.1 1.4.1 1.4h10.1l-.3-1.7-3.9-26.3-.1-1.3z"/>
  <path fill="#fff" d="M425.9 39.8V12h7.6c2 0 3.4.2 4.5.5s2 .8 2.6 1.5c.6.6 1 1.4 1.2 2.3.2.8.3 2.1.3 3.8v2.3c0 1.8-.2 3.1-.6 4-.4.9-1.2 1.7-2.3 2.1-1 .5-2.3.7-3.9.7h-1.1v10.6h-8.3zm8.4-16.6c.2 0 .4-.1.5-.2 0 0 .2-.3.2-1.5v-2.2c0-1-.2-1.2-.2-1.2s-.1-.1-.5-.1v5.2z"/>
  <path d="M433.6 12.7c1.9 0 3.3.1 4.3.4 1 .3 1.8.7 2.3 1.3.5.6.8 1.2 1 2 .2.8.3 2 .3 3.6v2.3c0 1.7-.2 2.9-.5 3.7-.3.8-1 1.4-1.9 1.8-.9.4-2.1.6-3.6.6h-1.8V39h-6.8V12.7h6.7M434 24c.6 0 1.1-.2 1.3-.5.2-.3.4-1 .4-1.9v-2.2c0-.9-.1-1.5-.4-1.8-.3-.3-.9-.4-1.8-.4v6.7c.2.1.4.1.5.1m-.4-12.8h-8.4v29.3h9.8V30h.3c1.7 0 3.1-.2 4.2-.7 1.3-.6 2.2-1.4 2.7-2.5.4-1 .7-2.4.7-4.3v-2.3c0-1.8-.1-3.1-.3-4-.2-1-.7-1.9-1.4-2.7-.7-.8-1.7-1.3-2.9-1.7-1.1-.4-2.7-.6-4.7-.6z"/>
  <path fill="#fff" d="M442.6 39.8V12h7.6c2 0 3.4.2 4.5.5s2 .8 2.6 1.5c.6.6 1 1.4 1.2 2.3.2.8.3 2.1.3 3.8v2.3c0 1.8-.2 3.1-.6 4-.4.9-1.2 1.7-2.3 2.1-1 .5-2.3.7-3.9.7h-1v10.6h-8.4zm8.4-16.6c.2 0 .4-.1.5-.2 0 0 .2-.3.2-1.5v-2.2c0-1-.2-1.2-.2-1.2s-.1-.1-.5-.1v5.2z"/>
  <path d="M450.3 12.7c1.9 0 3.3.1 4.3.4 1 .3 1.8.7 2.3 1.3.5.6.8 1.2 1 2 .2.8.3 2 .3 3.6v2.3c0 1.7-.2 2.9-.5 3.7-.3.8-1 1.4-1.9 1.8-.9.4-2.1.6-3.6.6h-1.8V39h-6.8V12.7h6.7m.4 11.3c.6 0 1.1-.2 1.3-.5.2-.3.4-1 .4-1.9v-2.2c0-.9-.1-1.5-.4-1.8-.3-.3-.9-.4-1.8-.4v6.7c.2.1.4.1.5.1m-.4-12.8h-8.4v29.3h9.8V30h.3c1.7 0 3.1-.2 4.2-.7 1.3-.6 2.2-1.4 2.7-2.5.4-1 .7-2.4.7-4.3v-2.3c0-1.8-.1-3.1-.3-4-.2-1-.7-1.9-1.4-2.7-.7-.8-1.7-1.3-2.9-1.7-1.1-.4-2.7-.6-4.7-.6z"/>
  <path fill="#fff" d="M459.3 39.8V12h13v6.8h-4.6v3.4h4.3v6.6h-4.3V33h5v6.8z"/>
  <path d="M471.5 12.7V18h-4.6v5h4.3v5h-4.3v5.8h5V39H460V12.7h11.5m1.5-1.5h-14.4v29.3h14.9v-8.3h-5v-2.8h4.3v-7.9h-4.3v-2h4.6v-8.3h-.1z"/>
  <path fill="#fff" d="M482.6 39.8l-2.2-7.6v7.6h-7.2V12h7l2.5 7.8V12h7.2v27.8z"/>
  <path d="M489.2 12.7V39h-6l-3.6-12v12h-5.7V12.7h5.7l3.8 11.8V12.7h5.8m1.5-1.5H482V15l-.9-2.8-.3-1h-8.3v29.3h8.7v-3.2l.6 2.1.3 1.1h8.6V11.2z"/>
  <path fill="#fff" d="M14.7 227.9h11.1v38.5H14.7z"/>
  <path d="M25 228.7v37h-9.6v-37H25m1.5-1.5H13.9v40h12.6v-40z"/>
  <path fill="#fff" d="M32.2 266.4v-29.6h-5.7v-8.9H49v8.9h-5.7v29.6z"/>
  <path d="M48.2 228.7v7.4h-5.7v29.6h-9.6v-29.6h-5.7v-7.4h21m1.5-1.5h-24v10.4h5.7v29.6H44v-29.6h5.7v-10.4z"/>
  <path fill="#fff" d="M48.6 237.5l.4-.2c.3-.2.6-.4.8-.6h-1.2V228h7.7v4.1c0 1.8-.2 3.3-.7 4.5-.5 1.2-1.3 2.3-2.4 3.2-1.1.8-2.4 1.4-3.7 1.7l-.9.2v-4.2z"/>
  <path d="M55.5 228.7v3.3c0 1.7-.2 3.1-.6 4.3-.4 1.1-1.1 2.1-2.1 2.8-1 .8-2.2 1.3-3.4 1.6V238c.9-.5 1.4-1.2 1.6-2.1h-1.6v-7.2h6.1m1.5-1.5h-9.2v15.4l1.8-.4c1.5-.3 2.8-.9 4-1.8 1.2-.9 2.1-2.1 2.6-3.5.5-1.3.7-2.9.7-4.8v-4.9h.1z"/>
  <path fill="#fff" d="M68.8 267.1c-2.7 0-5-.5-6.9-1.5-2-1.1-3.3-2.4-3.9-4.1-.6-1.6-.9-3.8-.9-6.7v-3.2h9.7c-.6-.4-1.3-.9-2.2-1.5-2.4-1.6-4-2.8-4.8-3.5-.9-.8-1.6-1.9-2.1-3.2-.5-1.3-.8-3.1-.8-5.1 0-3 .4-5.1 1.2-6.6.8-1.4 2.1-2.6 3.8-3.4 1.7-.8 3.8-1.2 6.2-1.2 2.6 0 4.8.4 6.7 1.3 1.9.9 3.2 2 3.9 3.4.6 1.3.9 3.5.9 6.6v2.2H69v-3.5c0-1.6-.2-2-.2-2s-.1-.2-.5-.2c-.3 0-.5.1-.7.4-.2.2-.3.7-.3 1.7 0 1.1.1 1.9.4 2.4.1.3.7.9 2.4 2 4.4 2.6 7.1 4.7 8.3 6.5 1.2 1.8 1.8 4.5 1.8 8.3 0 2.8-.3 4.8-1 6.2-.7 1.4-2 2.6-3.9 3.5-1.9.8-4.1 1.2-6.5 1.2zm-1.3-10.2c0 1.8.2 2.2.3 2.3 0 .1.2.2.7.2.4 0 .6-.1.8-.4.2-.3.4-.8.4-1.8 0-2.6-.4-3.5-.7-3.8-.2-.2-.6-.6-1.4-1.2v4.7z"/>
  <path d="M67.9 227.9c2.5 0 4.6.4 6.4 1.2 1.8.8 2.9 1.8 3.5 3 .6 1.2.9 3.3.9 6.2v1.5h-8.9v-2.7c0-1.3-.1-2.1-.3-2.4-.2-.3-.6-.5-1.1-.5-.6 0-1 .2-1.3.7-.3.5-.4 1.2-.4 2.1 0 1.2.2 2.2.5 2.8.3.6 1.2 1.4 2.7 2.3 4.3 2.5 7 4.6 8.1 6.3 1.1 1.6 1.7 4.3 1.7 7.9 0 2.6-.3 4.6-.9 5.8-.6 1.2-1.8 2.3-3.6 3.1-1.8.8-3.8 1.3-6.2 1.3-2.6 0-4.8-.5-6.6-1.5-1.8-1-3-2.2-3.6-3.7-.6-1.5-.8-3.6-.8-6.4v-2.4h8.9v4.5c0 1.4.1 2.3.4 2.7.3.4.7.6 1.3.6s1.1-.3 1.4-.8c.3-.5.5-1.2.5-2.2 0-2.2-.3-3.6-.9-4.3-.6-.7-2.1-1.8-4.5-3.4-2.4-1.6-4-2.7-4.7-3.4-.8-.7-1.4-1.7-1.9-3s-.8-2.9-.8-4.8c0-2.8.4-4.9 1.1-6.2.7-1.3 1.9-2.3 3.5-3.1 1.4-.8 3.3-1.2 5.6-1.2m0-1.5c-2.5 0-4.7.4-6.5 1.2-1.9.9-3.3 2.1-4.2 3.7-.9 1.5-1.3 3.8-1.3 6.9 0 2.1.3 4 .9 5.4.6 1.5 1.4 2.6 2.3 3.5.8.8 2.5 2 4.9 3.6.1 0 .1.1.2.1h-8v3.9c0 3 .3 5.2.9 6.9.7 1.9 2.1 3.4 4.3 4.5 2 1.1 4.5 1.6 7.3 1.6 2.6 0 4.8-.5 6.8-1.4 2.1-1 3.5-2.3 4.3-3.8.7-1.5 1.1-3.6 1.1-6.5 0-4-.6-6.8-1.9-8.7-1.2-1.7-3.6-3.7-7.6-6.1h8.7v-3c0-3.2-.3-5.4-1-6.9-.7-1.6-2.1-2.8-4.2-3.8-1.9-.7-4.3-1.1-7-1.1zm.3 12.5c-.1-.3-.2-.9-.2-1.9 0-.7.1-1.1.2-1.3 0 .3.1.7.1 1.4v1.8h-.1zm.1 19.7c-.1-.2-.1-.7-.1-1.8v-3.1l.1.1s.5.6.5 3.3c0 1-.2 1.3-.2 1.4 0 .1-.1.1-.3.1.1 0 .1 0 0 0z"/>
  <path fill="#fff" d="M103.2 266.4L99.5 254v12.4H90v-38.5h9.3l4.1 12.7v-12.7h9.5v38.5z"/>
  <path d="M112.2 228.7v37h-8.4l-5-16.8v16.8h-8v-37h8l5.4 16.6v-16.6h8m1.5-1.5h-11v8.6l-2.5-7.6-.3-1H89.3v40h11v-8l2.1 6.9.3 1.1h11v-40z"/>
  <path fill="#fff" d="M126.9 267.1c-2.1 0-4-.3-5.6-1-1.7-.7-3.1-1.8-4.1-3.2-1-1.4-1.7-2.9-1.9-4.6-.2-1.5-.3-4.3-.3-8.1V244c0-3.8.1-6.4.3-8 .2-1.7.8-3.2 1.8-4.6 1-1.4 2.4-2.5 4-3.2 1.7-.7 3.6-1.1 5.8-1.1 2.1 0 4 .3 5.6 1 1.7.7 3.1 1.8 4.1 3.2 1 1.4 1.7 2.9 1.9 4.6.2 1.6.3 4.2.3 8.1v6.3c0 3.7-.1 6.4-.3 8-.2 1.7-.8 3.2-1.8 4.6-1 1.4-2.4 2.5-4 3.2-1.7.7-3.7 1-5.8 1zm0-32.2c-.3 0-.4.1-.5.3 0 0-.3.5-.3 3v17.3c0 2.8.2 3.5.2 3.7 0 .1.1.3.5.3s.5-.1.5-.3c.1-.3.2-1.2.2-3.9v-17c0-2.2-.2-2.8-.2-3 .1-.3 0-.4-.4-.4z"/>
  <path d="M126.9 227.9c2 0 3.8.3 5.3 1s2.8 1.6 3.8 2.9c1 1.3 1.5 2.7 1.7 4.2.2 1.5.3 4.2.3 8v6.3c0 3.7-.1 6.3-.3 7.9-.2 1.5-.7 3-1.6 4.2s-2.2 2.3-3.7 2.9c-1.6.7-3.4 1-5.5 1-2 0-3.8-.3-5.3-1-1.6-.6-2.8-1.6-3.8-2.9-1-1.3-1.5-2.7-1.7-4.2-.2-1.5-.3-4.2-.3-8V244c0-3.7.1-6.3.3-7.9.2-1.5.7-3 1.6-4.2.9-1.3 2.2-2.3 3.7-2.9 1.6-.8 3.4-1.1 5.5-1.1m-.1 32.2c.7 0 1.1-.3 1.3-.9.2-.6.3-2 .3-4.1v-17c0-1.7-.1-2.8-.3-3.3-.2-.5-.6-.7-1.2-.7-.5 0-.9.2-1.2.6-.3.4-.4 1.5-.4 3.4v17.3c0 2.1.1 3.5.3 4 .2.5.6.7 1.2.7m.1-33.7c-2.3 0-4.3.4-6.1 1.2-1.8.8-3.3 1.9-4.3 3.4-1.1 1.5-1.7 3.1-1.9 4.9-.2 1.6-.3 4.2-.3 8.1v6.3c0 3.9.1 6.6.3 8.2.2 1.8.9 3.4 2 4.9 1.1 1.5 2.6 2.7 4.4 3.4 1.7.7 3.7 1.1 5.9 1.1 2.3 0 4.3-.4 6.1-1.2 1.8-.8 3.3-1.9 4.3-3.4 1.1-1.5 1.7-3.1 1.9-4.9.2-1.6.3-4.3.3-8.1V244c0-3.9-.1-6.6-.3-8.2-.2-1.8-.9-3.4-2-4.9-1.1-1.5-2.6-2.7-4.4-3.4-1.8-.7-3.8-1.1-5.9-1.1zm0 29.8v-18.8 18.8z"/>
  <path fill="#fff" d="M144.9 266.4v-29.6h-5.7v-8.9h22.5v8.9H156v29.6z"/>
  <path d="M160.9 228.7v7.4h-5.7v29.6h-9.6v-29.6h-5.7v-7.4h21m1.5-1.5h-24v10.4h5.7v29.6h12.6v-29.6h5.7v-10.4z"/>
  <path fill="#fff" d="M180.5 267.1c-1.7 0-3.4-.4-4.9-1.3-1.5-.8-2.7-1.9-3.5-3.2-.8-1.2-1.3-2.6-1.5-3.9-.2-1.3-.3-3.3-.3-5.8v-11c0-3.6.2-6.2.6-7.9.4-1.8 1.6-3.4 3.6-4.8 1.9-1.4 4.4-2.1 7.4-2.1 2.9 0 5.4.6 7.4 1.8 2 1.2 3.3 2.8 3.9 4.5.6 1.7.9 4 .9 7.2v2.3H183v-4.1c0-2.7-.1-3.5-.2-3.7 0-.1-.1-.3-.6-.3-.4 0-.5.2-.5.3-.1.1-.2.7-.2 3.2v6.7h12.7v21.3h-7.3l-.6-1.8c-.5.6-1.2 1.2-1.9 1.6-1.1.7-2.4 1-3.9 1zm.9-11c0 2 .2 2.8.3 3 .1.2.2.3.6.3.5 0 .6-.2.7-.4.1-.3.3-1.1.3-3.2v-3.6h-1.9v3.9z"/>
  <path d="M181.9 227.9c2.8 0 5.2.6 7 1.7s3.1 2.5 3.6 4.1c.6 1.6.8 3.9.8 6.9v1.6h-9.6v-3.4c0-2.1-.1-3.4-.3-4-.2-.5-.6-.8-1.3-.8-.6 0-1 .2-1.2.7-.2.5-.3 1.6-.3 3.5v17.7c0 1.7.1 2.8.3 3.3.2.5.6.8 1.3.8.7 0 1.2-.3 1.4-.9.3-.6.4-1.8.4-3.5v-4.4h-1.9v-5.6h11.3v19.8h-6l-.9-2.6c-.7 1.1-1.5 2-2.5 2.6-1 .6-2.2.9-3.5.9-1.6 0-3.1-.4-4.5-1.2-1.4-.8-2.5-1.8-3.2-2.9-.7-1.2-1.2-2.4-1.4-3.6s-.3-3.2-.3-5.7v-11c0-3.5.2-6.1.6-7.7.4-1.6 1.5-3.1 3.3-4.4 1.7-1.2 4.1-1.9 6.9-1.9m0-1.5c-3.2 0-5.8.8-7.9 2.3-2.1 1.5-3.4 3.3-3.8 5.3-.4 1.7-.6 4.4-.6 8v11c0 2.6.1 4.6.3 5.9.2 1.5.7 2.9 1.6 4.2.9 1.4 2.1 2.5 3.7 3.4 1.6.9 3.4 1.4 5.3 1.4 1.6 0 3.1-.4 4.3-1.1.4-.2.8-.5 1.2-.8v.1l.3 1h8.6v-22.8h-12.7v-7.7c0 .5.1 1.3.1 2.4v4.9h12.6v-3.1c0-3.2-.3-5.7-.9-7.4-.7-1.9-2.1-3.6-4.3-4.9-2.1-1.5-4.7-2.1-7.8-2.1zm.3 26.5h.4v2.9c0 1.9-.2 2.6-.2 2.8-.1-.3-.2-1-.2-2.5v-3.2z"/>
  <path fill="#fff" d="M208 267.1c-2.1 0-4-.3-5.6-1-1.7-.7-3.1-1.8-4.1-3.2-1-1.4-1.7-2.9-1.9-4.6-.2-1.5-.3-4.3-.3-8.1V244c0-3.8.1-6.4.3-8 .2-1.7.8-3.2 1.8-4.6 1-1.4 2.4-2.5 4-3.2 1.7-.7 3.6-1.1 5.8-1.1 2.1 0 4 .3 5.6 1 1.7.7 3.1 1.8 4.1 3.2 1 1.4 1.7 2.9 1.9 4.6.2 1.6.3 4.2.3 8.1v6.3c0 3.7-.1 6.4-.3 8-.2 1.7-.8 3.2-1.8 4.6-1 1.4-2.4 2.5-4 3.2-1.7.7-3.6 1-5.8 1zm0-32.2c-.3 0-.4.1-.5.3 0 0-.3.5-.3 3v17.3c0 2.8.2 3.5.2 3.7 0 .1.1.3.5.3s.5-.1.5-.3c.1-.3.2-1.2.2-3.9v-17c0-2.2-.2-2.8-.2-3 .1-.3 0-.4-.4-.4z"/>
  <path d="M208 227.9c2 0 3.8.3 5.3 1s2.8 1.6 3.8 2.9c1 1.3 1.5 2.7 1.7 4.2.2 1.5.3 4.2.3 8v6.3c0 3.7-.1 6.3-.3 7.9-.2 1.5-.7 3-1.6 4.2s-2.2 2.3-3.7 2.9c-1.6.7-3.4 1-5.5 1-2 0-3.8-.3-5.3-1-1.6-.6-2.8-1.6-3.8-2.9-1-1.3-1.5-2.7-1.7-4.2-.2-1.5-.3-4.2-.3-8V244c0-3.7.1-6.3.3-7.9.2-1.5.7-3 1.6-4.2s2.2-2.3 3.7-2.9 3.4-1.1 5.5-1.1m0 32.2c.7 0 1.1-.3 1.3-.9.2-.6.3-2 .3-4.1v-17c0-1.7-.1-2.8-.3-3.3-.2-.5-.6-.7-1.2-.7-.5 0-.9.2-1.2.6-.3.4-.4 1.5-.4 3.4v17.3c0 2.1.1 3.5.3 4 .1.5.5.7 1.2.7m0-33.7c-2.3 0-4.3.4-6.1 1.2-1.8.8-3.3 1.9-4.3 3.4-1.1 1.5-1.7 3.1-1.9 4.9-.2 1.6-.3 4.2-.3 8.1v6.3c0 3.9.1 6.6.3 8.2.2 1.8.9 3.4 2 4.9 1.1 1.5 2.6 2.7 4.4 3.4 1.7.7 3.7 1.1 5.9 1.1 2.3 0 4.3-.4 6.1-1.2 1.8-.8 3.3-1.9 4.3-3.4 1.1-1.5 1.7-3.1 1.9-4.9.2-1.6.3-4.3.3-8.1V244c0-3.9-.1-6.6-.3-8.2-.2-1.8-.9-3.4-2-4.9-1.1-1.5-2.6-2.7-4.4-3.4-1.8-.7-3.8-1.1-5.9-1.1zm0 29.8v-18.8 18.8z"/>
  <path fill="#fff" d="M221.9 227.9H233v38.5h-11.1z"/>
  <path d="M232.3 228.7v37h-9.6v-37h9.6m1.5-1.5h-12.6v40h12.6v-40z"/>
  <path fill="#fff" d="M248.6 266.4l-3.7-12.4v12.4h-9.5v-38.5h9.3l4.1 12.7v-12.7h9.6v38.5z"/>
  <path d="M257.6 228.7v37h-8.4l-5-16.8v16.8h-8v-37h8l5.4 16.6v-16.6h8m1.5-1.5h-11v8.6l-2.5-7.6-.3-1h-10.6v40h11v-8l2.1 6.9.3 1.1h11v-40z"/>
  <path fill="#fff" d="M270.6 267.1c-1.7 0-3.4-.4-4.9-1.3-1.5-.8-2.7-1.9-3.5-3.2-.8-1.2-1.3-2.6-1.5-3.9-.2-1.3-.3-3.3-.3-5.8v-11c0-3.6.2-6.2.6-7.9.4-1.8 1.6-3.4 3.6-4.8 1.9-1.4 4.4-2.1 7.4-2.1 2.9 0 5.4.6 7.4 1.8 2 1.2 3.3 2.8 3.9 4.5.6 1.7.9 4 .9 7.2v2.3h-11.1v-4.1c0-2.7-.1-3.5-.2-3.7 0-.1-.1-.3-.6-.3-.4 0-.5.2-.5.3-.1.1-.2.7-.2 3.2v6.7h12.7v21.3H277l-.6-1.8c-.5.6-1.2 1.2-1.9 1.6-1.1.7-2.4 1-3.9 1zm1-11c0 2 .2 2.8.3 3 .1.2.2.3.6.3.5 0 .6-.2.7-.4.1-.3.3-1.1.3-3.2v-3.6h-1.9v3.9z"/>
  <path d="M272 227.9c2.8 0 5.2.6 7 1.7 1.9 1.2 3.1 2.5 3.6 4.1.6 1.6.8 3.9.8 6.9v1.6h-9.6v-3.4c0-2.1-.1-3.4-.3-4-.2-.5-.6-.8-1.3-.8-.6 0-1 .2-1.2.7-.2.5-.3 1.6-.3 3.5v17.7c0 1.7.1 2.8.3 3.3s.6.8 1.3.8c.7 0 1.2-.3 1.4-.9s.4-1.8.4-3.5v-4.4h-1.9v-5.6h11.3v19.8h-6l-.9-2.6c-.7 1.1-1.5 2-2.5 2.6-1 .6-2.2.9-3.5.9-1.6 0-3.1-.4-4.5-1.2-1.4-.8-2.5-1.8-3.2-2.9-.7-1.2-1.2-2.4-1.4-3.6s-.3-3.2-.3-5.7v-11c0-3.5.2-6.1.6-7.7.4-1.6 1.5-3.1 3.3-4.4s4.1-1.9 6.9-1.9m0-1.5c-3.2 0-5.8.8-7.9 2.3-2.1 1.5-3.4 3.3-3.8 5.3-.4 1.7-.6 4.4-.6 8v11c0 2.6.1 4.6.3 5.9.2 1.5.7 2.9 1.6 4.2.9 1.4 2.1 2.5 3.7 3.4 1.6.9 3.4 1.4 5.3 1.4 1.6 0 3.1-.4 4.3-1.1.4-.2.8-.5 1.2-.8v.1l.3 1h8.6v-22.8h-12.7v-7.7c0 .5.1 1.3.1 2.4v4.9H285v-3.1c0-3.2-.3-5.7-.9-7.4-.7-1.9-2.1-3.6-4.3-4.9-2.1-1.5-4.7-2.1-7.8-2.1zm.3 26.5h.4v2.9c0 1.9-.2 2.6-.2 2.8-.1-.3-.2-1-.2-2.5v-3.2z"/>
  <path fill="#fff" d="M298.8 266.4v-29.6h-5.7v-8.9h22.5v8.9h-5.7v29.6z"/>
  <path d="M314.8 228.7v7.4h-5.7v29.6h-9.6v-29.6h-5.7v-7.4h21m1.5-1.5h-24v10.4h5.7v29.6h12.6v-29.6h5.7v-10.4z"/>
  <path fill="#fff" d="M327.9 267.1c-2.1 0-4-.3-5.6-1-1.7-.7-3.1-1.8-4.1-3.2-1-1.4-1.7-2.9-1.9-4.6-.2-1.5-.3-4.3-.3-8.1V244c0-3.7.1-6.4.3-8 .2-1.7.8-3.2 1.8-4.6 1-1.4 2.4-2.5 4-3.2 1.7-.7 3.6-1.1 5.8-1.1 2.1 0 4 .3 5.6 1 1.7.7 3.1 1.8 4.1 3.2 1 1.4 1.7 2.9 1.9 4.6.2 1.6.3 4.2.3 8.1v6.3c0 3.7-.1 6.4-.3 8-.2 1.7-.8 3.2-1.8 4.6-1 1.4-2.4 2.5-4 3.2-1.7.7-3.6 1-5.8 1zm0-32.2c-.3 0-.4.1-.5.3 0 0-.3.5-.3 3v17.3c0 2.8.2 3.5.2 3.7 0 .1.1.3.5.3s.5-.1.5-.3c.1-.3.2-1.2.2-3.9v-17c0-2.2-.2-2.8-.2-3 .1-.3 0-.4-.4-.4z"/>
  <path d="M327.9 227.9c2 0 3.8.3 5.3 1s2.8 1.6 3.8 2.9c1 1.3 1.5 2.7 1.7 4.2.2 1.5.3 4.2.3 8v6.3c0 3.7-.1 6.3-.3 7.9s-.7 3-1.6 4.2-2.2 2.3-3.7 2.9-3.4 1-5.5 1c-2 0-3.8-.3-5.3-1-1.6-.6-2.8-1.6-3.8-2.9s-1.5-2.7-1.7-4.2c-.2-1.5-.3-4.2-.3-8V244c0-3.7.1-6.3.3-7.9.2-1.5.7-3 1.6-4.2s2.2-2.3 3.7-2.9 3.4-1.1 5.5-1.1m0 32.2c.7 0 1.1-.3 1.3-.9.2-.6.3-2 .3-4.1v-17c0-1.7-.1-2.8-.3-3.3s-.6-.7-1.2-.7c-.5 0-.9.2-1.2.6-.3.4-.4 1.5-.4 3.4v17.3c0 2.1.1 3.5.3 4 .1.5.5.7 1.2.7m0-33.7c-2.3 0-4.3.4-6.1 1.2-1.8.8-3.3 1.9-4.3 3.4-1.1 1.5-1.7 3.1-1.9 4.9-.2 1.6-.3 4.3-.3 8.1v6.3c0 3.9.1 6.6.3 8.2.2 1.8.9 3.4 2 4.9 1.1 1.5 2.6 2.7 4.4 3.4 1.7.7 3.7 1.1 5.9 1.1 2.3 0 4.3-.4 6.1-1.2 1.8-.8 3.3-1.9 4.3-3.4 1.1-1.5 1.7-3.1 1.9-4.9.2-1.6.3-4.3.3-8.1V244c0-3.9-.1-6.6-.3-8.2-.2-1.8-.9-3.4-2-4.9-1.1-1.5-2.6-2.7-4.4-3.4-1.8-.7-3.8-1.1-5.9-1.1zm0 29.8v-18.8 18.8z"/>
  <path fill="#fff" d="M362.6 266.4v-15.6h-1.4v15.6h-11.1v-38.5h11.1v13.2h1.4v-13.2h11.1v38.5z"/>
  <path d="M372.9 228.7v37h-9.6v-15.5h-2.9v15.5h-9.6v-37h9.6v13.2h2.9v-13.2h9.6m1.5-1.5h-25.1v40h25.1v-40z"/>
  <path fill="#fff" d="M388.4 266.4l-.5-6.6h-2.1l-.6 6.6h-11.5l5.1-38.5H394l5.7 38.5h-11.3zm-.9-14.7c-.3-2.3-.5-4.9-.8-7.8-.4 3.2-.7 5.8-.9 7.8h1.7z"/>
  <path d="M393.4 228.7l5.5 37h-9.8l-.5-6.6h-3.4l-.6 6.6h-9.9l4.9-37h13.8m-8.4 23.7h3.3c-.5-4.2-1-9.4-1.5-15.5-.9 7.1-1.6 12.3-1.8 15.5m9.7-25.2h-16.5l-.2 1.3-4.9 37-.2 1.7h13l.1-1.4.5-5.3h.7l.4 5.3.1 1.4h12.9l-.3-1.7-5.5-37-.1-1.3z"/>
  <path fill="#fff" d="M399.8 266.4v-38.5h10.4c2.7 0 4.8.2 6.2.6 1.5.4 2.7 1.1 3.5 2 .8.9 1.3 1.9 1.6 3.2.3 1.2.4 2.9.4 5.3v3.2c0 2.5-.3 4.3-.8 5.5-.6 1.2-1.6 2.2-3.1 2.9-1.4.6-3.2.9-5.4.9h-1.8v14.9h-11zm11.1-22.7c.4 0 1-.1 1.2-.4.1-.1.4-.6.4-2.2v-3c0-1.5-.3-1.9-.4-1.9-.1-.1-.3-.3-1.2-.3v7.8z"/>
  <path d="M410.2 228.7c2.6 0 4.6.2 6 .6 1.4.4 2.5 1 3.2 1.8.7.8 1.2 1.7 1.4 2.8s.4 2.8.4 5.1v3.2c0 2.4-.2 4.1-.7 5.2-.5 1.1-1.4 1.9-2.7 2.5-1.3.6-3 .9-5.1.9h-2.6v14.9h-9.6v-37h9.7m.6 15.7c.9 0 1.5-.2 1.8-.7.3-.4.5-1.3.5-2.7v-3c0-1.3-.2-2.1-.6-2.5s-1.2-.6-2.5-.6v9.4c.4.1.6.1.8.1m-.6-17.2H399v40h12.6v-14.9h1.1c2.3 0 4.2-.3 5.7-1 1.6-.7 2.8-1.8 3.4-3.2.6-1.3.9-3.2.9-5.8V239c0-2.4-.1-4.2-.4-5.5-.3-1.4-.9-2.5-1.8-3.5s-2.2-1.7-3.9-2.2c-1.5-.4-3.6-.6-6.4-.6zm1.4 15v-5.1c0 .2.1.5.1 1v3c0 .5 0 .8-.1 1.1z"/>
  <path fill="#fff" d="M423.2 266.4v-38.5h10.4c2.7 0 4.8.2 6.2.6 1.5.4 2.7 1.1 3.5 2 .8.9 1.3 1.9 1.6 3.2.3 1.2.4 2.9.4 5.3v3.2c0 2.5-.3 4.3-.8 5.5-.6 1.2-1.6 2.2-3.1 2.9-1.4.6-3.2.9-5.4.9h-1.8v14.9h-11zm11.1-22.7c.4 0 1-.1 1.2-.4.1-.1.4-.6.4-2.2v-3c0-1.5-.3-1.9-.4-1.9-.1-.1-.3-.3-1.2-.3v7.8z"/>
  <path d="M433.7 228.7c2.6 0 4.6.2 6 .6 1.4.4 2.5 1 3.2 1.8.7.8 1.2 1.7 1.4 2.8s.4 2.8.4 5.1v3.2c0 2.4-.2 4.1-.7 5.2-.5 1.1-1.4 1.9-2.7 2.5-1.3.6-3 .9-5.1.9h-2.6v14.9H424v-37h9.7m.6 15.7c.9 0 1.5-.2 1.8-.7.3-.4.5-1.3.5-2.7v-3c0-1.3-.2-2.1-.6-2.5s-1.2-.6-2.5-.6v9.4c.4.1.6.1.8.1m-.6-17.2h-11.2v40h12.6v-14.9h1.1c2.3 0 4.2-.3 5.7-1 1.6-.7 2.8-1.8 3.4-3.2.6-1.3.9-3.2.9-5.8V239c0-2.4-.1-4.2-.4-5.5-.3-1.4-.9-2.5-1.8-3.5s-2.2-1.7-3.9-2.2c-1.5-.4-3.6-.6-6.4-.6zm1.4 15v-5.1c0 .2.1.5.1 1v3c0 .5-.1.8-.1 1.1z"/>
  <path fill="#fff" d="M446.7 266.4v-38.5h17.5v8.9h-6.4v5.5h6v8.5h-6v6.7h7.1v8.9z"/>
  <path d="M463.5 228.7v7.4h-6.4v7h6v7h-6v8.1h7.1v7.4h-16.7v-37h16m1.5-1.4h-19v40h19.7v-10.4h-7.1v-5.1h6v-10h-6v-4h6.4v-10.5z"/>
  <path fill="#fff" d="M479.4 266.4l-3.7-12.4v12.4h-9.6v-38.5h9.4l4.1 12.7v-12.7h9.5v38.5z"/>
  <path d="M488.3 228.7v37h-8.4l-5-16.8v16.8h-8v-37h8l5.4 16.6v-16.6h8m1.5-1.5h-11v8.6l-2.5-7.6-.3-1h-10.6v40h11v-8l2.1 6.9.3 1.1h11v-40z"/>
</svg>
