<svg xmlns="http://www.w3.org/2000/svg" viewBox="0 0 1000 1000"><radialGradient id="a" cx="1490" cy="1489" r="1494.8" gradientTransform="translate(0 1) scale(.6709)" gradientUnits="userSpaceOnUse"><stop offset="0" stop-color="#ff004f"/><stop offset="1"/></radialGradient><path fill="url(#a)" d="M0 0h2000v2000H0z"/><path fill="#1E1D51" d="M864 500a364 364 0 11-728 0 364 364 0 01728 0z"/><linearGradient id="b" x1="-1937.3" x2="-1814.1" y1="-1217.5" y2="-882.9" gradientTransform="translate(2910 1939) scale(1.3227)" gradientUnits="userSpaceOnUse"><stop offset="0" stop-color="#fff"/><stop offset="1" stop-color="#53eeef"/></linearGradient><path fill="url(#b)" d="M499 244c-31 1-61 6-89 16v200h89V244zm-162 60c-46 39-79 93-90 155h90V304zm70 227v209c28 10 59 15 91 16V531h-91zm-160 1c9 65 43 123 91 164V532h-91z"/><linearGradient id="c" x1="-1816.3" x2="-1687.3" y1="-1271.2" y2="-901.6" gradientTransform="translate(2910 1939) scale(1.3227)" gradientUnits="userSpaceOnUse"><stop offset="0" stop-color="#2f7fbe"/><stop offset="1" stop-color="#225d8b"/></linearGradient><path fill="url(#c)" d="M505 247a253 253 0 010 506V247z"/><linearGradient id="d" x1="185.5" x2="353.5" y1="-1366.5" y2="-1040.5" gradientTransform="matrix(1.3501 0 0 1.3404 36 2154)" gradientUnits="userSpaceOnUse"><stop offset="0" stop-color="#d50d16"/><stop offset=".5" stop-color="#880d16"/><stop offset="1" stop-color="#520d16"/></linearGradient><path fill="url(#d)" d="M403 263v203h94v60h-94v211c-21-9-41-20-60-35V526h-98a266 266 0 011-60h97V298c19-14 39-26 60-35z"/><path fill="#9D0D16" d="M569 332h87v12h-87v-12z"/><linearGradient id="e" x1="124.5" x2="499" y1="-1421.4" y2="-1101.5" gradientTransform="translate(73 2156) scale(1.3227)" gradientUnits="userSpaceOnUse"><stop offset="0" stop-color="#f8ffbf"/><stop offset=".5" stop-color="#f8e45e"/><stop offset=".8" stop-color="#f8d35e"/><stop offset="1" stop-color="#ee8e0a"/></linearGradient><path fill="url(#e)" d="M501 117a383 383 0 10-2 766 383 383 0 002-766zm-1 19a364 364 0 110 729 364 364 0 010-729zm-22 13v75h23v-25l19 25 30 4-26-33c6-2 16-8 16-21 0-19-17-25-28-25h-34zm29 16c6 0 11 4 11 9s-3 10-10 10h-7l-1-19h7zm109 4h-2c-20 1-36 13-40 32-4 20 13 43 35 48 24 6 46-6 51-31 4-22-12-43-36-48l-8-1zm-279 20l-20 11 9 85 22-16-3-13 24-14 11 8 25-10-68-51zm279 1l4 1c12 2 19 12 17 22-2 11-12 18-24 16-11-3-17-14-15-24 2-9 8-15 18-15zm-278 26l17 14-12 7-5-21zm384 11l-65 45 19 15 31-24-15 39 8 8 39-17-23 33 14 20 46-65-15-17-37 15 15-38-17-14zm-222 10a263 263 0 100 527 263 263 0 000-527zm-241 8l-32 37 55 49 16-18-21-19 15-16-13-13-16 17-7-7 16-18-13-12zm236 2v209h-82V262c26-9 53-14 82-15zm10 0c96 2 180 58 221 138l-2-2c-10-12-23-21-33-28a5 5 0 00-7 2c-3 3-8 6-14 6h-46l-7 2c-2 2-4 4-4 7v6h-42v-3c0-6-4-12-8-15h-1l-17-12-9-3-3 1c-4 0-7 3-9 6-4 6-3 15 5 20l8 7 3 3v14h-2l-6-3-9-1a20 20 0 00-18 11V247zm-102 19v200h92v59h-92v209c-21-9-41-21-59-35V525h-96a259 259 0 011-59h95V301c18-14 38-26 59-35zm172 39c-5 0-8 4-8 8s3 7 8 7c4 0 7-3 7-7 0-5-3-8-7-8zm19 0c-4 0-8 4-8 8s4 7 8 7 7-3 7-7c0-5-3-8-7-8zm19 0c-4 0-8 4-8 8s4 7 8 7 7-3 7-7c0-5-3-8-7-8zm19 0c-4 0-8 4-8 8s4 7 8 7 7-3 7-7c0-5-3-8-7-8zm19 0c-4 0-8 4-8 8s4 7 8 7 7-3 7-7c0-5-3-8-7-8zm-317 4v147h-83c10-58 40-110 83-147zm235 16v12h87v-12h-87zm0 16v12h87v-12h-87zm243 0l-69 28 19 45 19-8-10-22 8-4 10 22 16-7-9-22 8-3 10 23 17-7-19-45zm-627 9l-10 21 67 31 21-44-16-8-13 22-49-22zm352 5l3 1 17 12 4 7-1 16c0 7 4 12 8 16 2 3 5 4 8 5-3 2-6 3-8 6-4 3-8 9-8 15v1l1 16-4 7-18 12-3 1-3-2c-1-2-2-5 2-7l9-7c2-2 6-5 6-11v-14c0-3-1-6-4-8s-7-2-11-1l-6 2-5 1c-4 0-7-1-8-3-2-2-3-5-3-7v-1c0-2 1-5 3-7 1-2 4-3 8-3l5 1 6 2c4 1 8 1 11-1s4-6 4-9v-13c0-6-4-9-7-11l-8-7c-4-3-3-5-2-7l3-2h1zm152 11c9 7 19 14 27 24 9 11 15 25 15 45 0 40-36 71-71 71h-85c-2 0-5 1-6 3-2 1-2 3-2 5s0 4 2 6c1 2 4 3 6 3h83c29 0 45 19 45 42 0 22-16 42-45 42h-85c-2 0-5 1-6 3l-2 5a7 7 0 008 7h63c14 0 25 14 25 26 0 7-1 13-6 17-4 4-10 8-21 8h-38l-5 1-2 5 2 5 5 1h25c4 0 6 2 9 5 2 2 3 6 3 8 0 4-2 7-4 9-1 2-3 2-6 3l-1-5c-1-3-4-5-7-5h-15c-6 0-11-2-16-5-4-4-7-9-7-17 0-7 3-12 7-16 4-3 10-5 14-5h37l5-1c2-1 3-3 3-6 0-2-1-4-3-5l-5-1h-58c-22 0-35-16-35-33 0-16 13-34 33-34h87c2 0 5-1 6-3a9 9 0 000-11l-6-2h-89c-24 0-44-19-44-46 0-24 19-47 47-47h80c5 0 8-2 11-5 2-3 3-6 3-10 0-3-1-7-3-10s-6-5-11-5h-85v-4c0-3 1-6 4-9 2-2 6-3 8-3h48l5-2c2-1 4-4 4-7 0-4-1-6-4-8l-5-1h-48l-8-4c-3-3-4-6-4-8v-3h58l9-3c2-2 4-5 4-8v-4h28c8-1 14-3 19-8zm51 54a252 252 0 01-101 292c3-4 4-9 4-13 0-6-2-11-6-16 11-1 20-5 26-11s8-15 8-23c0-13-7-25-17-31h4c34 0 55-26 55-53 0-23-15-44-40-50a83 83 0 0067-95zm-235 2l3 4c3 4 9 7 16 7l9-1 5-3h2v14l-3 3-8 7c-8 5-8 14-5 20 2 3 5 5 8 6-9 10-13 23-13 35 0 29 18 50 42 55-18 6-29 25-29 42 0 22 17 43 45 43h2l-1 1c-7 5-11 13-11 23a32 32 0 0033 33h12v2c-1 2 0 5 2 6l2 1h10c-36 20-77 32-121 33V422zm-273 9l-79 25-2 24 74 40v-27l-11-5 1-28 14-3 3-26zm579 2c-26 0-39 22-39 43 0 22 15 44 39 44s40-20 40-44c0-23-14-43-40-43zm-240 15h85c2 0 3 1 3 2l1 3-1 3-3 1h-80l-7 1 2-8v-2zm241 9c11 0 18 10 18 19s-7 20-18 20c-12 0-18-9-18-20 0-10 6-19 18-19zm-614 8l-1 15-22-10 23-5zm51 70h85v156c-45-39-76-94-85-156zm164 0h82v218c-29 0-56-6-82-15V535z"/><path fill="#9D0D16" d="M537 355l3 1 17 12 4 7-1 16c0 7 4 12 8 16 2 3 5 4 8 5-3 2-6 3-8 6-4 3-8 9-8 15v1l1 16-4 7-18 12-3 1-3-2c-1-2-2-5 2-7l9-7c2-2 6-5 6-11v-14c0-3-1-6-4-8s-7-2-11-1l-6 2-5 1c-4 0-7-1-8-3-2-2-3-5-3-7v-1c0-2 1-5 3-7 1-2 4-3 8-3l5 1 6 2c4 1 8 1 11-1s4-6 4-9v-13c0-6-4-9-7-11l-8-7c-4-3-3-5-2-7l3-2h1z"/><linearGradient id="f" x1="-1751" x2="-1675" y1="-1169.2" y2="-943.3" gradientTransform="translate(2910 1939) scale(1.3227)" gradientUnits="userSpaceOnUse"><stop offset="0" stop-color="#157031"/><stop offset="1" stop-color="#0f5324"/></linearGradient><path fill="url(#f)" d="M689 366c9 7 19 14 27 24 9 11 15 25 15 45 0 40-36 71-71 71h-85c-2 0-5 1-6 3-2 1-2 3-2 5s0 4 2 6c1 2 4 3 6 3h83c29 0 45 19 45 42 0 22-16 42-45 42h-85c-2 0-5 1-6 3l-2 5a7 7 0 008 7h63c14 0 25 14 25 26 0 7-1 13-6 17-4 4-10 8-21 8h-38l-5 1-2 5 2 5 5 1h25c4 0 6 2 9 5 2 2 3 6 3 8 0 4-2 7-4 9-1 2-3 2-6 3l-1-5c-1-3-4-5-7-5h-15c-6 0-11-2-16-5-4-4-7-9-7-17 0-7 3-12 7-16 4-3 10-5 14-5h37l5-1c2-1 3-3 3-6 0-2-1-4-3-5l-5-1h-58c-22 0-35-16-35-33 0-16 13-34 33-34h87c2 0 5-1 6-3a9 9 0 000-11l-6-2h-89c-24 0-44-19-44-46 0-24 19-47 47-47h80c5 0 8-2 11-5 2-3 3-6 3-10 0-3-1-7-3-10s-6-5-11-5h-85v-4c0-3 1-6 4-9 2-2 6-3 8-3h48l5-2c2-1 4-4 4-7 0-4-1-6-4-8l-5-1h-48l-8-4c-3-3-4-6-4-8v-3h58l9-3c2-2 4-5 4-8v-4h28c8-1 14-3 19-8z"/></svg>
