<svg xmlns="http://www.w3.org/2000/svg" viewBox="0 0 1000 1000"><radialGradient id="a" cx="1490" cy="1489" r="1494.8" gradientTransform="translate(0 1) scale(.6709)" gradientUnits="userSpaceOnUse"><stop offset="0" stop-color="#6798b2"/><stop offset="1"/></radialGradient><path fill="url(#a)" d="M0 0h2000v2000H0z"/><g><path fill="#FFF" d="M579 686c3 4 7 5 11 3v59c-53 0-106-17-146-47 21-20 45-52 59-82 9 0 20 0 35-2 8-3 28 4 27-9l-4-12c-1-4 4-6 7-3l4 11c8 16 28 16 39 28 7 8 14 14 4 23-6 7-13 11-22 13-16 4-13-21-27-21l-17 3-3 2c15 28 20 10 25 22 2 5 4 9 8 12m20-48l-15 2c1 6 2 17 10 16 10 0 13-11 5-18m144-73c-4-10-13-15-21-19-4-2-6 3-8 5-2 4-8 2-8-3 0-6 8-28 17-23 12 14 28 21 29 40 0 9-8 6-9 0m-15 38c4-2 5 3 5 6 0 8-2 12-11 12-12 0-4-18 6-18m272-351l-58 160h-73c19 174-56 334-249 336v-73c15-4 12-15 24-15 6 0 7-1 8-7 1-11 7-21 1-32l-15-23c-3-5-5-5-10-1 4 10 14 18 17 29 1 8 1 19-6 24-2-3-2-5-2-8 3-21-36-36-19-56 20-13 21-38 20-60 0-4 5-8 8-4 4 9 4 18 4 27-1 12-6 23-7 34 38 0 34-19 50-22 8 6-16 33-18 43-1 5-12 22-1 20 9-1 4 10 6 14 4 17 22 8 31 1 14-11 32-2 41-12 9-13 14-9 25-1 10 6 22 14 33 11-6-6-14-11-20-18-2-5-27-30-13-30 18 8 28 39 51 31 1-1-3-3-3-3-55-28-50-100-83-144-29-33-73-46-109-69-5-3-7-4-13-5V252h380zM624 451c-7-4-4-15 5-12 12 4 21 14 27 24 2 6 6 13 1 17-1 0-3 0-4-2-7-12-18-19-29-27M418 680C271 830-7 712 0 500c-6-197 239-320 393-201-38 37-65 84-78 138-52-61-163-19-160 63a93 93 0 00186 0c0-138 112-249 249-248v152c-2 2-6 3-12 4a93 93 0 00-82 92c0 71-30 135-78 180"/></g></svg>