<svg xmlns="http://www.w3.org/2000/svg" viewBox="0 0 1000 1000"><radialGradient id="a" cx="1000" cy="1000" r="1000" gradientUnits="userSpaceOnUse"><stop offset="0" stop-color="#00ffd2"/><stop offset="1"/></radialGradient><path fill="url(#a)" d="M0 0h2000v2000H0z"/><g><path fill="none" d="M411 480l-8 1 8 9zM340 391l10 18h270c-3-19-18-31-39-31H330l10 13zM978 428l28 2v-10h-28zM1002 462l-24-3v10l16 3 8-10zM978 490l8-9-8-1zM777 389c-5 5-9 12-10 20h239v-31c-21 5-217-11-229 11zM411 459l-24 3 7 9 17-3v-9zM358 444L97 461l1 2 12 21c0 1 3 3 11 2l244-33-7-9zM343 421H54c6 9 9 24 20 28 0 3 267-18 276-17l-7-11zM329 397c0-1-11-19-28-19H22c-17 1 1 18 3 24 3 5 2 6 10 7h301l-7-12zM357 420l7 11 47-3v-8h-54zM411 447v-8l-40 3 7 9 33-4zM374 464l-238 32 46 14c20 6 176-33 199-36l-7-10zM780 447l-5 13h11zM455 447l-6 13h12zM584 481c24 0 26-44 0-44-24-2-25 45 0 44z"/><path fill="none" d="M976 624l-184 50c-13 2-26 13-51-7-3 0-47-51-50-43-17 13-49 58-74 55-185-52-232-46-256-94 5-13-238-74-244-79-10-3-16-6-20-14l-13-23c-11-11-23-2-33-22-3-4-10-23-17-23-18 0-22-16-30-29-10-18 0-30 18-32h559c28 0 49 17 54 43 3 2 111 0 114 1l3-1c2-11 7-20 15-28 19-29 209-9 239-15v-50H-34v403h1040V611c-7 5-17 9-30 13z"/><path fill="none" d="M422 497h545v-77H422v77zm489-64h5l33 36v-36h7v53h-4l-34-38v38h-7v-53zm-18 0h9v53h-9v-53zm-45 0h40v8l-15-1v46h-10v-46l-16 1v-8zm-38 0h16c23-2 23 23 4 27l20 26h-12c-7-10-13-19-19-25v25h-10v-53zm-30-1h3l24 54h-11l-8-20h-16l-7 20h-9l24-54zm-86 52l7-51h4c5 12 12 24 19 37l20-37h4l6 53h-10l-3-34c-8 13-13 23-17 33h-3c-4-10-12-24-17-33l-3 34h-8l1-2zm-74-51h5l33 36v-36h7v53h-5l-33-38v38h-7v-53zm-36-1c37-3 39 55 0 54-38 2-37-56 0-54zm-67 1h40v8l-15-1v46h-9v-46l-16 1v-8zm-34 48l1-8h3c10 19 32-5 10-11-28-8-6-43 16-26l-2 8h-3c-2-8-15-8-15 1 1 13 23 8 22 23 0 11-8 18-19 18-4 0-11-1-13-5zm-28-49h3l23 54h-11l-7-20h-17c-2 6-5 13-6 20h-9l24-54zM1006 474zM984 499l22 6v-18l-9-2-13 14zM978 448l28 3v-10l-28-2zM951 529l55 26v-37l-32-10-23 21z"/><path fill="none" d="M826 455c15-5 8-20-7-16v17l7-1zM940 538l-33 23c16 8 56 49 76 45 12-5 19-9 23-14v-23l-66-31zM833 508l63 45c11-6 21-14 31-21-43-20-43-27-94-24zM726 508l26 96c14-2 28-4 41-8l-52-88h-15zM700 508v100l40-2-27-98h-13zM938 523l19-15h-52l33 15zM884 560l-72-52h-22l65 67 29-15zM647 606l40 2V508h-12l-28 98zM391 485l-174 35 49 15c22 6 116-32 138-37l-13-13zM852 590l-40 14c32 58 23 40 81 27-4-2-37-37-41-41zM644 618c-3 7-9 36-13 42 0 2 41-38 43-40l-30-2zM743 618l-29 2c8 8 33 34 42 40-4-6-10-35-13-42zM864 585c45 45 31 48 95 28l-4-2-60-43-31 17zM800 608l-44 8c14 63 16 46 70 34-7-7-21-34-26-42zM755 508l51 85 37-13-69-72h-19zM503 560c9 5 19 11 29 15l65-67h-21l-73 52zM662 508h-15l-53 88c13 4 27 6 41 8l27-96zM460 532c10 7 20 15 31 21l63-46c-51-2-51 5-94 25zM587 608c-8 12-16 31-26 42 54 12 56 29 70-33l-44-9zM544 580c13 5 25 10 38 13l50-85h-18l-70 72zM436 529l-23-21-115 36c84 27 60 19 138-15zM447 538c-12 5-65 32-76 34 9 15 4 23 34 34 19 4 60-37 75-45l-33-23zM492 568l-60 43-4 2c64 20 50 17 95-28l-31-17zM535 590c-6 6-34 37-41 41 58 13 49 31 81-27l-40-14zM449 523l33-15h-51l18 15z"/><path fill="#FFF" d="M767 378c-8 8-13 17-15 28l-3 1c-3-1-111 1-114-1-5-26-26-43-54-43H22c-18 2-28 14-18 32 8 13 12 29 30 29 7 0 14 19 17 23 10 20 22 11 34 22l13 23c4 8 9 11 19 14 7 6 248 65 244 79 24 48 71 42 256 94 25 3 57-42 74-55 3-8 48 43 50 43 26 20 38 9 52 7l87-24c21-7 110-26 126-39v-19c-4 5-11 9-23 14-20 4-60-37-76-45 12-7 23-15 33-23l66 31v-14l-55-26c8-6 16-13 23-21l32 10v-13l-22-6 13-14 9 2v-35l-28-4v-8l28 2v-12l-28-2v-8h28v-11H767c4-19 19-31 40-31h199v-15c-31 6-220-14-239 15zm211 112v-10l8 1-8 9zm0-31l24 3-8 10-16-3v-10zm-397-81c21 0 35 12 39 31H351c-10-16-10-21-20-31h251zm-186 93l-8-9 24-3v9l-16 3zm16 9v10l-8-9 8-1zm0-41v8l-33 4-7-9 40-3zm-47-8l-7-11h54v8l-47 3zM36 409c-9-1-8-2-11-7-2-6-20-23-3-24h279c17 0 28 18 28 18l7 13H36zm38 40c-11-4-14-19-20-28h289l7 11-255 17H74zm36 35l-13-21v-2l261-17 7 9-244 33c-8 1-11-1-11-2zm72 26l-46-14 238-32 7 10c-24 3-178 42-199 36zm84 25l-49-15 174-35 12 14c-21 4-115 42-137 36zm89 26l-57-17 115-36 23 21c-16 6-63 36-81 32zm227 32l-38-13 70-72h18l-50 85zm64-85h15l-26 96c-14-2-28-4-41-8l52-88zm-114 67l-29-15 72-53h22l-65 68zm-41-22c-11-6-21-13-31-21 43-20 43-27 94-24l-63 45zm-42-30l-18-15h51l-33 15zm-44 83c-30-11-25-19-34-34 10-2 65-30 76-34l33 23c-16 8-56 49-75 45zm69 20l-46-13 4-2 59-43 32 17c-11 9-32 42-49 41zm71 19l-51-14c7-4 35-35 41-41l40 14c-7 9-18 40-30 41zm70 16c-6 5-47-11-54-11 10-11 18-30 26-42l44 9c-5 11-5 34-16 44zm21-4l-5 3c4-6 11-35 13-42l30 2-38 37zm51-49l-40-2 27-98h13v100zm156-28l-37 13-51-85h18l70 72zm-53-72h22l72 52c-9 5-19 11-29 15l-65-67zm3 88c-13 4-27 6-41 8l-26-96h15l52 88zm-53 10l-40 2V508h13l27 98zm5 44l-31-30 29-2c3 7 9 36 13 42l-11-10zm37 12c-21 4-21-34-26-46l44-8c5 8 19 35 26 42l-44 12zm61-17c-13-1-24-32-31-41l40-14c4 4 36 39 41 41l-50 14zm112-34l4 2c-64 20-50 17-95-28l32-17 59 43zm-59-58l-63-45c51-3 51 4 94 24-10 7-20 15-31 21zm42-30l-33-15h52l-19 15zm29-103v77H422v-77h545z"/><path fill="#FFF" d="M440 485l7-19h16l7 20h11l-23-54h-3l-24 54h9v-1zm15-38l6 13h-12l6-13zM496 486c11 0 19-7 19-18 1-15-21-10-22-23 0-9 13-9 15-1h3l2-8c-22-17-44 18-16 26 22 6 0 30-10 11h-3l-1 8c3 4 9 5 13 5zM533 440v46h9v-46l15 1v-8h-40v8l16-1z"/><path fill="#FFF" d="M584 486c39 1 37-57 0-54-37-2-38 56 0 54zm0-49c25 0 24 44 0 44-25 1-24-46 0-44z"/><path fill="#FFF" d="M627 448l33 38h4v-53h-7v36l-32-36h-5v53h7v-38zM702 484c0-11 1-21 3-32l16 33h3c4-10 10-20 17-33l3 34h10l-6-53h-4l-20 37-19-37h-4l-8 53h9v-2zM765 485l7-19h16l8 20h11l-24-54h-3l-24 54h9v-1zm15-38l6 13h-11l5-13zM819 461c6 6 12 16 19 25h12l-20-26c19-4 19-29-4-27h-17v53h10v-25zm0-22c21-4 20 19 0 17v-17z"/><path fill="#FFF" d="M863 440v46h10v-46l15 1v-8h-40v8l15-1zM893 433h9v53h-9zM918 448l34 38h4v-53h-7v36l-33-36h-5v53h7v-38z"/></g></svg>
