<svg xmlns="http://www.w3.org/2000/svg" viewBox="0 0 1000 1000"><radialGradient id="a" cx="1000" cy="1000" r="1000" gradientUnits="userSpaceOnUse"><stop offset="0" stop-color="red"/><stop offset="1"/></radialGradient><path fill="url(#a)" d="M0 0h2000v2000H0z"/><g><path fill="#FFF" d="M782 182v15l-282-50-282 50v-15l282-50 282 50z"/><path fill="#0D8922" d="M782 167v15l-282-50-282 50v-15l282-50 282 50z"/><path fill="#ED1C24" d="M782 197l-282-50-282 50v50c100-73 466-73 564 0v-50z"/><path fill="#FFF200" d="M501 199c161 0 256 46 271 54 24 287-79 510-272 619-194-109-296-334-272-619 15-8 111-54 273-54"/><path fill="#0A0A0A" d="M501 199c161 0 256 46 271 54 24 287-79 510-272 619-194-109-296-334-272-619 15-8 111-54 273-54m-281 47l-2 1c-25 304 86 529 282 636 197-108 307-332 282-636-99-73-465-71-562-1"/><path fill="#0A0A0A" d="M431 716c-13-5-21-8-21-14 0-11 13-8 16-7 10 3 19 9 24 18l-3-20c-1-3-3-3-4-3-2 0-2 4-2 4s-43-18-43 10c-1 21 48 22 50 40 2 9-6 19-24 19-12 0-22-8-24-20 1-3 4-1 6-1 4 0 7-5 5-8-1-4-15-5-15 9 0 19 19 25 28 25 33 2 44-43 7-52m177-16c16-1 32-2 44-13-17 6-35 8-53 5-10-2-20-3-29-1-9 0-16 7-17 16-1 12 19 10 21-2-22 15-21-15 12-9 23 1 3 11 1 22-2 5-2 7-5 7-5-1-12 3-11 10 2-3 6-5 9-5 4 4-11 34-28 33-10 1-19-8-20-18 0-7 5-3 9-4s6-7 2-9c-11-8-21 11-10 27 11 15 28 9 37 5 10-5 20-25 22-33 7 0 14-2 17-8-5 1-10 2-15 1 0-3 8-20 14-24M488 239l4-2c1-4-7-10-8-13l-1 4-3 6c2 1 7 3 8 5m181 180h-1c-1 2-3 8-6 9-7 2-10 18-12 14-4-13 2-27 11-36 4-4 4-10 4-16v1c-6 12-19 18-26 29-2-9 0-18 5-25 3-8 8-15 15-20 0-2-2-1-3 0-22 9-33 36-27 58 7 19 10 41 8 61l-2 7c-5 13-21 29-35 26-5-25-34-51-56-63-12-8-26-40-26-40-2-4-2-10-2-16l10 5 6 2 4 1c4 3 9 7 14 9h6l-7-3-6-9-4-3h-4l-2-2h7l9 7 5 2-2-5-9-8c-2-2-7-3-9-4l-5-3v-1l18 6 7 4 5 1 8-1 6-5 2-4c-7 3-10 7-17 4l-10-9-5-2-6-1-3-2v-2h15l9 3 6 1c-8-8-12-11-23-11v-2l4-1 5 1 5 4 6 1 8-1c-2-3-2-3-6-4-7-5-9-8-18-8l-3-3 1-1 7 2 5 2-5-7h1l10 4 4 4 7 4-1-3-4-5-3-5-5-6-7-4-8-8-1-3 15 6 3 4 5 2 13 2h1l-3-4-12-6-5-9-3-4-10-6-2-5 10 9 5 3 4 3c6 7 5 5 13 6l-7-6-2-6-6-6c-2-7-2-7-7-11l-7-7v-2l8 5 25 5c-3-5-2-4-7-6l-14-7-5-6 4 3h17l5 3 5 6c-1-5 0-6-4-9-7-5-13-7-22-8l-8-8-3-2-2-2h4c5 5 13 6 20 7l3 4 5 2 6 2-11-14-11-5-6-6-6-4-5-1 1-2 5-3 8-1 1-2-7-4-9 1-8-2-8-6-4-2-14-2c-3-5-8-11-13-14l-3 7c0 3 0 3 2 5l-1 3h-7c-10-5-11-4-22-4l-2 3 5 1 1 1-1 1-7-1-5 2 2 2h10l7 2 3 4-3 2-27 14-12 2-5 2a636 636 0 00-6 12v11c6 5 15-5 20-2 1 4-16 4-11 9 8 4 16-3 24-2 8 4 17 4 25 6 3 24-22 45-34 59-1 3-2 6-6 8-9 5-16 13-27 17-17-6-37-33-50-24-9 6-11 21-13 29-3 13-10 31-16 44-1 12-1 24 1 36 3 1 8-5 10-7 5-5 5-12 3-17-2-10-5-23 3-31 2-2 4-5 7-6l2-1 5-8 2-9 1-3c2-1 16 18 18 19l8 8-15-3c-32-12-32 19-29 35 4 9 6 35 10 44 4 3 6 7 8 12 3 8 8 15 15 19 6 1 6-13 7-17 0-8-6-16-13-17 1-8-7-14-7-22 1-8-11-26-3-30 2-1 3 0 5 1 6 5 13 9 21 12 15 10 14 16 34 15l-1 5c14 29 58 49 74 71 3 4 1 11 5 15 10 11 19-10 19-18 1-9 5-13 6-13 4 0-4 5-4 16 0 3-1 7-3 10-17 21-13 50 1 71 3 5 7 10 8 16-3 13-15 21-24 31-2 0-4 0-6 2s-5 4-6 7l-3 3-6 7c-6 5-10 13-9 22 5 9 26-3 29-11 1-9 6-10 11-16l2-4c0-6 8-5 9-11 5-6 12-12 19-16s12-13 6-20c-15-20-2-31 15-42 20-18 24-32 25-36 1-3 0-10 3-11 2 0 4 2 3 4l-1 29 2 3c1-6 2-18 7-25 2 7 2 15-1 22-4 5-7 11-9 17 0 4 0 10 3 13 2-8 2-15 10-21 10-10 13-32 4-43l2-1c7 8 5 11 7 21l5 14c1-6-1-12 1-18 1-8 1-16-4-23 19-6 32-24 31-44 1-12-5-25-3-37v-9c0-10 15-17 10-28M503 627c4 2 10 6 15 4 3-2 7-7 5-11-7-14-12-29-9-45 2-11 2-11-8-17-3-3-2-7-3-10-6-9-13-16-22-22-11 1 0 22 0 29 5 14 11 28 20 41 1 3 5 8 1 10-9 0-17 0-26-2-10-2-20-11-30-7-8-4-37-7-37-1-1 3 9 13 11 15 8 6 19 2 28 2 5 3 11 3 16 3 11 1 29 5 39 11"/></g></svg>
