<svg xmlns="http://www.w3.org/2000/svg" xmlns:xlink="http://www.w3.org/1999/xlink" viewBox="0 0 1000 1000"><radialGradient id="a" cx="1490" cy="1489" r="1494.8" gradientTransform="translate(0 1) scale(.6709)" gradientUnits="userSpaceOnUse"><stop offset="0" stop-color="#0054ff"/><stop offset="1"/></radialGradient><path fill="url(#a)" d="M0 0h2000v2000H0z"/><defs><path id="b" d="M822 439H508v130h181c-17 83-88 130-181 130a199 199 0 11124-354l98-98a336 336 0 00-559 253c0 187 150 337 337 337 168 0 322-122 322-337 0-20-3-41-8-61z"/></defs><clipPath id="c"><use overflow="visible" xlink:href="#b"/></clipPath><path fill="#FBBC05" d="M140 699V301l260 199-260 199z" clip-path="url(#c)"/><defs><path id="d" d="M822 439H508v130h181c-17 83-88 130-181 130a199 199 0 11124-354l98-98a336 336 0 00-559 253c0 187 150 337 337 337 168 0 322-122 322-337 0-20-3-41-8-61z"/></defs><clipPath id="e"><use overflow="visible" xlink:href="#d"/></clipPath><path fill="#EA4335" d="M140 301l260 199 108-93 368-60V132H140v169z" clip-path="url(#e)"/><g><defs><path id="f" d="M822 439H508v130h181c-17 83-88 130-181 130a199 199 0 11124-354l98-98a336 336 0 00-559 253c0 187 150 337 337 337 168 0 322-122 322-337 0-20-3-41-8-61z"/></defs><clipPath id="g"><use overflow="visible" xlink:href="#f"/></clipPath><path fill="#34A853" d="M140 699l460-352 121 15 155-230v736H140V699z" clip-path="url(#g)"/></g><g><defs><path id="h" d="M822 439H508v130h181c-17 83-88 130-181 130a199 199 0 11124-354l98-98a336 336 0 00-559 253c0 187 150 337 337 337 168 0 322-122 322-337 0-20-3-41-8-61z"/></defs><clipPath id="i"><use overflow="visible" xlink:href="#h"/></clipPath><path fill="#4285F4" d="M876 868L400 500l-61-46 537-153v567z" clip-path="url(#i)"/></g></svg>
