<svg xmlns="http://www.w3.org/2000/svg" viewBox="0 0 1000 1000"><radialGradient id="a" cx="1000" cy="1000" r="1000" gradientUnits="userSpaceOnUse"><stop offset="0" stop-color="#fff"/><stop offset="1"/></radialGradient><path fill="url(#a)" d="M0 0h2000v2000H0z"/><g fill-rule="evenodd" clip-rule="evenodd"><path d="M552 182a338 338 0 00-338 338v20h-44c-2 0-4 1-5 3l-41 72c-2 1 0 3 1 3h103a338 338 0 10324-436zM310 618h90l-43 75c-20-22-36-47-47-75zm242 162c-68 0-134-26-182-74h73l211-372c1-1 0-2-1-2h-86l-2 1-119 206H292l-1-19a260 260 0 01448-181c-20 35-113 191-125 214-7-16-41-13-58-13l-42 78h36c18 0 19 18 13 29l-35 60h89l170-298a261 261 0 01-236 372l1-1z"/><path fill="#DA291C" d="M539 162a338 338 0 00-338 338v19h-44a2395 2395 0 01-46 75c-2 1 0 3 1 3h103a338 338 0 10324-435zM297 598h90l-43 75c-20-22-36-48-47-75zm242 162c-68 0-134-26-183-74h74l211-372-1-3h-86l-2 2-119 206H279l-1-20a260 260 0 01448-180c-20 34-113 191-125 214-8-17-41-13-58-13-8 12-42 78-42 78h36c17 0 19 18 12 29l-34 59h89l170-297a261 261 0 01-236 372v-1z"/></g></svg>
