<svg xmlns="http://www.w3.org/2000/svg" viewBox="0 0 1000 1000"><radialGradient id="a" cx="1490" cy="1489" r="1494.8" gradientTransform="translate(0 1) scale(.6709)" gradientUnits="userSpaceOnUse"><stop offset="0" stop-color="#2f43ff"/><stop offset="1"/></radialGradient><path fill="url(#a)" d="M0 0h2000v2000H0z"/><g><g fill="#FCD700"><path d="M816 191c400-6 400 624 0 618-401 6-401-624 0-618z"/><path d="M1018 363a261 261 0 00-128 188c2 65-92 113-52 134 7 2 15 3 19 13 22 20 59-6 74-22 13 16 35 10 52 10 14 6 32 13 47 16m-224-59c-17-6-26-26-37-41-36-35-23-94-46-138-50-68-132-175-214-147-35 26-77 25-112 52-6 5-14 16-21 16-39-5-64 30-94 45-62-3-100 60-156 66-60-22 21-66 36-89 29-37-13-80-52-80-20-2-36-18-54-26-28 30-13 78 25 94 20 9 1 0 1 2 27 2-11 18-17 33-40 46-3 120 52 122 46-5 31 14 45 47-25 15-50 0-58 36-8 38-23-15-48 11-17 14-40 29-48 51-12 37-11 47 32 51 38 0 54 12 76-28 26 7 48-12 62-28 23-5 52 11 73-3 80-34 22-76 128-65 14 6 60-8 58 4-20 9-90-5-72 38 11 13 9 33 32 35 14 6 22 33 48 30 28 1 53-21 80-23 17 4 32-17 39-26 12 30 48 16 68 9 18-6 53 3 69-16 17 19 74 45 86 10-2-5 2-4 4-6 12-1 30-33 15-36zm-219-43c-10 6-16 25-22 5 8 0 17-8 22-5z"/></g><path fill="#EA1C2D" d="M37 681c-16 2-11 30-18 34-6 9 16 11 19 12 5-8 21-42-1-46zm19 0c11 12 27-19 29-21 0-24-51 8-29 21zm742-25c-67-38-67-118-88-188-46-67-88-108-149-143-41-14-72 24-109 31-28 1-49 36-73 41-39-4-58 32-90 43-67-8-150 119-194 40-19-56 94-74 58-128-28-24-61-12-87-38-17 26 15 63 42 64 54 0-18 37-26 55-44 61 31 119 89 93-1 48 37 79-18 90-25-2-25 12-34 33-20 26-66 40-62 75 54 18 40-31 72-26 23 6 37-12 52-23 29-10 65 13 90-13 18-9 48-45 25-56 0 2-6 12-12 19-41 50-118 12-155 60 34-73 161-2 164-120 2-5 2-33 10-21-12 59 3 69 62 58 18-3 75 21 72-7 0-5-4-16 2-16 5 39 57 40 65 80-3 16-37 30-48 19-9-9-12-21-20-31-8-11-47-11-47 6 5 4 12 28 21 26 24-2 27 41 58 28 29-10 57-21 86-29 31-31 13-65-7-88-51-15 37 48-11 80 9-25-1-51-16-70-22-41 26 11 47-77-1 79-46 62 51 53-9 8-9 23-19 32-7 2-24 29-9 24 3 0 7-3 6 2-29 37 8 52 41 33 20-8 55 4 71-20 21 9 47 41 73 26-33-20-35-27-51-61-17-24 16 1 22 19 4 18 44 28 46 25zM565 464c-5 3-8-35-11-34-6-8-16-23 1-22 19 7 12 56 10 56zm110 171c1 10-19 12-25 9-6-8 27-32 25-9zm29-68c1 9-8 15-9 6 0 0 0-10-3-15-6-9-17-26-28-11-19 26 2-63 22-19 9 9 20 25 18 39zm-255 87c3 5 8 19 12 19 8 1 30-5 21-17-2-24-18-16-36-16-12 0 3 9 3 14zm581-67c-10-9-23-34-2-17m2-198c-152 79-82 203-185 288-3 2-1 6 1 6 22 12 49-31 65-50 15-2-32 61-43 65 18 15 47-14 61-28 10-6 19 13 30 13 26-6 47 5 71 13m-41-35c-9 12-31-12-17-17 7 2 21 6 17 17zm7-92c-8 10-8-7-16-7-14 4-26 19-30 32-12 26-12-25 4-30 12-6 19-39 34-21 1 4 15 20 8 26z"/></g></svg>
