<svg width="800" height="800" viewBox="-9 0 274 274" xmlns="http://www.w3.org/2000/svg" preserveAspectRatio="xMidYMid"><path d="M249.87 164.08c-3.75 19.31-33.6 40.44-67.9 44.54-17.89 2.13-35.5 4.1-54.27 3.23-30.7-1.4-54.93-7.33-54.93-7.33 0 3 .18 5.84.55 8.5 4 30.3 30.05 32.12 54.73 32.96 24.91.86 47.1-6.14 47.1-6.14l1.01 22.52s-17.42 9.36-48.46 11.08c-17.12.94-38.37-.43-63.12-6.98C10.89 252.25 1.66 195.02.25 136.96c-.43-17.24-.17-33.5-.17-47.1 0-59.37 38.9-76.78 38.9-76.78C58.6 4.08 92.26.28 127.25 0h.86c35 .29 68.67 4.07 88.29 13.08 0 0 38.9 17.4 38.9 76.78 0 0 .49 43.81-5.43 74.22" fill="#3088D4"/><path d="M209.41 94.47v71.9h-28.48v-69.8c0-14.7-6.19-22.17-18.57-22.17-13.69 0-20.55 8.85-20.55 26.37v38.2H113.5v-38.2c0-17.52-6.86-26.37-20.55-26.37-12.38 0-18.57 7.46-18.57 22.17v69.78H45.9v-71.9c0-14.68 3.74-26.36 11.25-35 7.75-8.64 17.9-13.07 30.5-13.07 14.57 0 25.61 5.6 32.91 16.81l7.1 11.9 7.1-11.9c7.29-11.2 18.33-16.8 32.9-16.8 12.6 0 22.75 4.42 30.5 13.06 7.51 8.64 11.25 20.32 11.25 35" fill="#FFF"/></svg>