<svg xmlns="http://www.w3.org/2000/svg" viewBox="0 0 18.1 19.9"><circle cx="9" cy="6.9" r="3"/><path d="M11.3 11.6a2 2 0 00-1.6-.7H8.3c-1.2 0-2.2 1-2.2 2.1v.3l.8 4.7c.2 1.2 1.2 2 2.4 1.8a2 2 0 001.8-1.8l.7-4.7c.1-.6-.1-1.2-.5-1.7zM12.5 11.4a1 1 0 01-1-1c0-.3.1-.5.3-.7a4 4 0 000-5.7c-.4-.4-.4-1 0-1.4s1-.4 1.4 0a6.1 6.1 0 010 8.5c-.1.2-.4.3-.7.3zM5.5 11.4a1 1 0 01-.7-.3 6 6 0 010-8.5c.4-.4 1-.4 1.4 0s.4 1 0 1.4a4 4 0 000 5.7c.4.4.4 1 0 1.4a1 1 0 01-.7.3z"/><path d="M14.7 13.5c-.6 0-1-.5-.9-1.1l.2-.6a7 7 0 00.1-9.9l-.1-.1a1 1 0 010-1.4 1 1 0 011.4 0 9 9 0 010 12.7c-.2.3-.4.4-.7.4zM3.3 13.5a1 1 0 01-.7-.3A9 9 0 012.6.5c.3-.5.9-.6 1.4-.4s.6.9.4 1.4l-.4.4a7 7 0 00-.1 9.9l.1.1c.4.4.4 1 0 1.4-.2.2-.4.3-.7.2z"/></svg>
