<svg xmlns="http://www.w3.org/2000/svg" aria-label="Threads" viewBox="0 0 192 192"><path d="m141.5 89-2.5-1.2c-1.5-27.3-16.4-42.9-41.4-43h-.4c-15 0-27.4 6.3-35.1 18l13.8 9.4a24.4 24.4 0 0 1 21.6-10.5c8.2 0 14.4 2.4 18.5 7.1 2.9 3.4 4.9 8.1 5.8 14-7.3-1.2-15.2-1.6-23.7-1-23.8 1.3-39 15.2-38 34.5.5 9.8 5.3 18.2 13.7 23.7 7 4.7 16.1 7 25.5 6.4a37.7 37.7 0 0 0 29-14.1 52.3 52.3 0 0 0 10-26c6 3.6 10.3 8.4 12.7 14a34.9 34.9 0 0 1-8.5 38.4c-11.3 11.3-25 16.2-45.5 16.4-22.8-.2-40-7.5-51.3-21.8-10.5-13.3-15.9-32.6-16-57.3.1-24.7 5.5-44 16-57.3C57 24.4 74.2 17 97 16.9c23 .2 40.5 7.6 52.2 21.9A71 71 0 0 1 162 65l16.2-4.4A87.4 87.4 0 0 0 162 28C147 9.6 125.2.2 97 0 68.9.2 47.3 9.6 32.8 28 19.8 44.6 13.2 67.4 13 96c.2 28.7 6.9 51.5 19.8 68 14.5 18.4 36 27.8 64.2 28 25-.2 42.6-6.7 57.1-21.2a52 52 0 0 0 12.2-57.3A49 49 0 0 0 141.5 89Zm-43 40.5c-10.5.6-21.3-4-21.9-14.1-.4-7.5 5.3-15.8 22.5-16.8l5.8-.1c6.2 0 12 .6 17.3 1.7-2 24.7-13.5 28.7-23.8 29.3Z" class="x19hqcy"/></svg>
