<svg xmlns="http://www.w3.org/2000/svg" fill-rule="evenodd" clip-rule="evenodd" image-rendering="optimizeQuality" shape-rendering="geometricPrecision" text-rendering="geometricPrecision" viewBox="0 0 2832 1955"><defs><style>.fil0{fill:#999;fill-rule:nonzero}</style></defs><g id="Layer_x0020_1"><g id="_2573178934224"><path d="M1047 975zm658-502c-1 2-4 4-6 2l-5-1c-1 1-2 2-2 5-1 4 1 1 1 2 0 2 2 3 4 5 2 1 2 3 2 6v9c0 2-1 5-4 4l-8 3c-2 1-8-3-9-5l-7-4c-3 0-2-4-2-8 0-5 3-6 3-8l1-7c0-2-2-4-4-6l-2-5-6-7c-2-2-1-5 0-7 0-2-1-2-4-5-3-2-3-3 0-5l6-6c3-2 8-3 10-7 1-3 9-3 12-3 4 0 4 2 5 0h4c3 2 0 3 2 6 1 2-2 2-1 5s5 6 0 3c-5-2-14 1-13 2v4c-2-1-6 1-4 2 1 0 4 3 4 5l3 6c2 2 2 0 3 0l3 1 5 4c4 1 3 2 4 6 1 3 5 2 5 4zm-80-8l-1 2-2 1-1 2-2 2-6 1-2-1-1 1h-2-1l-1-1h-10l-2-1h-1l-2-1-3-1-1-1-1-2h-3-1l-2-1c-5 0-11-1-14 2l-2 2-2 2h-3l-4 1h-4l-1-1-1-1-2-1h-2l-3-3 1-2-1-1-1-1 1-1h3l1-1-1-2c-1-1-2-2-1-3l-1 1v2l-1 2-1-2 2-5h1v-4-1c1-3 2-4 4-5l2-1 2-4 2-4h1v-1l1-1v-1l3-3c3-1 7-2 9-1h1l-1 1-2 2-1 2h9l3-1v1l-4 3h-2-1l-1 1v1l1 1c2 1 3 2 3 4l1 1 1 1 1 1 2 1 2-2 2-1 5-2v-1h5l1 1 3 2 2 1h1l2 1h1l2 1 1 1 2 1 1 1h1l1 1 1 1 2 2 1 1v1h1l1-1 3 2c1 1 5 3 5 6l1 3zm-35 43l-1 3v2l1 1-1 1v1 6h1v1l-1 1-1 1c-1 1-3 3-2 4l-1 1-1 4-2 5c-1 4-2 8-6 9h-4l-4-1-3-1c-1-1-1-2-3-2h-1l-3 1-4 2-2 1-5 1h-1l-1-1h-3l-3-1-8-2h-4l-2-1-2-1-2-1c-2 0-4 0-5-2h-2l-3-1v-2l-3-1h-1-3l-3-1h-1l-6 4c-2 2-2 3-1 5v3c0 2-2 6-4 7h-4l-1-1-2-3h-3l-3-1-5-2-4-1v-2l-1 1-1-1-1-3v-2h-2l-2-1-1-1-3-1h-1a60 60 0 01-5-1l-4-1-2 1-2-3-2-2-2-1h-2l-1-1-1-1-1-1h-1l1-1 1-2c3-2 6-5 6-7l-1-1-1-1c0-2-2-3-3-3v-1c1-1 4-4 3-7h-1-1-1l-3-1h-6l-1 1-2 1-2-1h-1l-3 1-3 1-1-1h-3l-2 1h-6l-4-1-4 1h-1l-1 1h-1l-2-1-2 1-2 1h-6l-2 1-2 2h-3l-3 1-1 1-1 1h-2l-2 3-2 2-2 1-3-1-2-1-2-2h-1l-3 1h-2l-3 1h-1l-2-2-1-1 1-6c2-2 6-2 8-2h7l5-1 1-2c0-1 0-2 2-3l2-1c1 0 2 0 3-2l1-1 2-4-1-4c0-2-1-3 1-6l2-2 2-2 2-3v-1-1l2-1h1l2-1 5-2 3-4v-4l-1-2c0-4 3-5 6-5h4c3 0 5 1 7 3l1 1 1 1 5-4 1-2 4-2h1l3-3 2-2h1l1 1 2 1 3 2 3 3v5l-1 3h1l2-1 2 2 1 1 3 2 2 2 2 2c1 1 3 3 5 3l3 1 4 1 2 3 3 3 1 2 3 3v6c-2 2-5 5-7 5l-4-1-4-1-7 2c0 4 5 5 6 6l4 2 4 3h3l2-4v-2c0-2 1-3 3-3l3-2 2-2v-2l2-1 2-2-2-3-1-5 1-2h1l4 2 3 1h1l1-4-6-5h-1l-2-2-1-1h-2l-3-2v-3h-4l-4-1-1-2-1-1-1-3 1-3v-1h-1-1-1-1l-1-2-1-3c-1-1-5-5-7-5v-6l2-1 3-2 2 3 1 2c1 3 2 3 4 4l5 2 1 3 2 4h2l1 1 1 1 1 1 2 2 3 1v1l2 1h1l1 1 5 3h1c2 1 4 2 3 5 0 1-2 3-4 3h-1l1 1c2 0 2 1 2 2v2c0 2 2 4 3 5h2v2l1 1v3l2 4h-1v-1c0-1 0-3-2-3v1 7h4l2 1h2l1 6h1l1 2 2 1h2l1-1 1 1 1 4h1l1-2v-1-2l2-4 1-1-1-2v-1l-1-1h1l1 1 1 1h1l1-1 1-1h1c1 0 2 1 2 3l2 2v3h3l1-1-1-1-2-1h-1l1-2-1-5-1-2-1-4h-1-2-2-1-2l-1-1v-1-1l-1-2h-1l-1-1-1-4 1-2 1 1 1 1 4 2h1l2-1v-1l-2-2c0-2 5-3 7-3l6 2 1 1v1l-1 2-1-1h-2l-2 2-1 1h-1 1l1 1h2l1-1 1 1h1v5h1v3l1 3 2 2v1h1v2s2 6 4 7l2 1-1 2v2h-1l1 1v1c2 0 3-2 3-4l1-3h1l2 1 2 3 1 2 3 1 3-2 1-3 2-2c3 0 4 2 5 3l1 1 4 2h4l2-1h2c1 0 2 0 3-2l2-3 1 1h7v1zm-54-32zm0 0zm6-4h1-1zm2 0zm2 1zm2 3v1h-1 1v-1zm-1 1h-1 1zm-1 0zm-2 1h-1l-7-2a19 19 0 008 2zm-110-123l1-2h1v2l2 2 1 1 2-1 2-1 2-2 2-1h1l-1-1-1-3 1-2h1l2 2 2 2h1l4-1 1-2v-2-1l3-3h3l2 1 3-2 4-3 2-5h-2-1v-1l1-3v-3-2-2l2-3 3-1 2-1 4-4v-2l1-2c1-1 2-2 1-5l-4-4c-4-2-8-5-7-10l1-1 1-3v-1-3l2-1 1-1 1-2 1-2c0-2 3-3 5-4l3-2 1-1 1-1h1v-1l2-1 3-2v-1l2-1c1 0 2-1 2-3l-1-3-1-2 1-1c0-3 4-8 7-9l1 1h2l1-1 3 1 2 2 3-2 2 2 1 2 2 4h-1l-3 1c-2 1-2 3-2 4l-2 4-4 1-4 2-2 3-3 3c-3 1-5 2-5 6l1 8 1 3 1 5-1 2-1 3 2 1 2 1 4 2c2 2 5 4 9 4l5-1 1-1 14-5h4l3 1 2 4-1 2a31 31 0 01-9 4l-3-1-3-1-5 1h-5l-4 1-4 5-1 2h-2l1-2-2-2h-1c-1 0-2 1-2 3l1 2h-2l-1 2c0 2 1 5 3 5l2-1 2-1 2-2 2-1v2h3l2 1v3l-1 1-1 1v3l-1 2h-3v-1l-4-3-3-1h-1l-2 2a5 5 0 01-2 3c-1 0-2 1-2 3v12c0 2 1 4-1 4l-3 1-4-1h-3v6l-1 1v-1l-1-1-4-2h-5l-2 1-1 1-1-1h-1l-2 1v1l-3 1-1 1-2 1-4 1-3-1-1-1-1-2-2-2-2 1-2 1-2 1-4 1-2 1-2 1h-1l1-2c-1-1-1-2-3-2h-1-1l-1-1 1-2zm150 77c0-5 4-3 6-6l9-1c3-1 7-4 9-2 0 3-11 5-5 7l-2 3-2 3-4 1c-3-1-2-2-4-1s-4 2-5 1-3-3-2-5zm499-283l-5 1h-7l-5 1h-4l-1-2-2-2h-1l-2 1h-4l-2-1h1l2-1h1l6-2 1-3-3-3h-2c-1 0-2 0-3 2l-2 2v-3l-1 1-3 1-2 1-1 1 1 1v1h-1l-3 2h-1l-3 1 1 2-3 2h-2l-3 1-1 1-1 1h-1-1l-6 2-3 1-3 2-3 2h1c0-4 2-5 4-6l1-1h1l3-1 2-1 4-3 2-1 3-2 3-2 5-3 3-1 3-2 3-1h2l3-2 1-1c-22-9-44-18-67-24l1 2-6-2-3 1h-2l-3-1-1 1-1 1 2 3 1 1-1-1-2 1h-1l-2-1h-2l-2 1-1 1h-1-5l1-1 2-1v-1h-3l-2 1h-2l-3 1h-1l-2-1-5 1-1 1-4 1-2-1h-1l-1 2-2 1-3 2h-4l-3 1-4 1-3 1-2 1h-4l-2 2-3 3v-1l-2-1h-1l-2 2-2 1-3 1v2l1 1-2-1-3-2-1 1v1l1 1-1 1h-1 1l4 2v3h2c2 0 5 3 5 5l-2 1v-1l-1-1h-1a12 12 0 00-6 2l-3 1h-1l-5-1h-2-11-1-1l-2 1v1l-2 1-4 3 3 9 1 1 2 2 1 1h1l1-1 1 1 4 6-1 2-7-3-1-2a80 80 0 00-7-2l-2-1-1-1-2-2-8-3-4 2c-1 1-2 2-1 4 0 2 3 3 5 3l2 1v1l-4-1-4-1-4 1-1 4 6 3h1l3 1h2l1 2 2 1 1 2-1 1-1-2a9 9 0 00-1-1c-1-1-1-2-3-2h-6-2l-1-1h-1l-2-1h-1l1-2-1-2v-1-1l1-1v-2l1-1v-1-4l-1-1c1-2-1-2-2-3l-1-1 1-2 1-1v-1h2l1-1 1-1 3 2h1v-2c0-2-4-3-6-3h-1l-3 3v3h-1v-1h-1l-4 2-1 1 3 3 2 1v2l1 3v3h-1l-4 1-2 1-2 1-2 5v2l1 1h1v1l2 3 2 2-1 3-1 1v12l1 3 2 1 5-1 2-1 2-1 3 2 2 1 2 2 2 1 2 2 1 1v1h1c1 1 0 2-1 3v4c1 2 2 2 4 2h2l-1 1h-1l-2-1h-1a2 2 0 01-2 0l-1-2v-1h-1v-3l-1-5c-1-3-3-4-6-4l-8 1c-4 2-3 5-1 8v6h-1l-3 4v2l-3 3-3 1-2 2-4 3h-2l-5-1h-7l-2-2-2-1v-1h5l2 1 2 1c5 0 9-5 12-9l1-1c2-4 6-9 4-13l-2-3-2-3a21 21 0 010-13l1-6-3-6c-2-2-2-4-2-5l3-3 3-4c1-2 2-3 1-5-2-3-9-4-10-4l-5-1-6-1-4 2c-2 2-2 5-3 8 0 3 0 6-2 7l-4 3c-3 2-6 4-5 7l1 3 2 4c0 3-2 6-3 8l2 1h4l1 2 2 3 2 1c1 1 2 1 2 3l-2 5h-2l-1-1-1-1h-1l-1-1-4-2-1-1-4-1-1-1h-2v-2l-1-1-3-1h-1l-2-1h-1l-3-1-2-1-1-1-4-1h-1l-4 1-8-2-3-2c-2-2-4-4-6-4h-2l-2 2 2 3h3l1 1 1 2 2 1 2 2 2 2 2 3v1l-1 2h-2-1l-2 1v4h-1-2-1v-6l1-2v-1l-1-2h-1l-2 2-2 2-1 2-2 1h-1-1-3l-2 1v-1h-3l-2-1h-1c-2 0-2 2-3 3l-2 3h-3l-3-1-2 1 1-1v-1h1v-2-1l1-2 1-1 1-1h-1-2l-3 1-3 1-1 1-2 2-1 2h-1-1l-1-1h-1l-2 1c-4 1-9 3-12 6l-5 1h-1c-1 0-4 0-5 3l1 4v4l-3 1-2-1h-3c-2 0-3 0-4-3l-1-2-1-1h-2v-2l8-2h2v-1l-3-4v-1-1l-2-2-4-1h-7l-3-1-1 1 2 3 3 3-2 4c-2 1-3 2-2 4l2 2 2 1v8l-1 2-2 3-1-1c-1-2-2-4-5-5h-1l-7 3-7 5-4 3 1 3 1 1c2 2 4 5 3 6l-2 1-6-2c-2 0-4-2-5-3l-6-3-3 2c-2 1-2 3-2 4 1 3 6 5 9 5v2l-2 1h-2v-1l-2-1h-2l-2-1-5-1-4-3v-1-2-1l-1-2 1-3v-3c1-3-1-4-3-4l-3-2-1-2-3-1-2-1-2-2c0-2-1-3-2-3l1-1c3 0 5 2 8 4l6 3 4 1 5 1 3 1 7 2h2c6 0 12-3 16-7 1-2 4-5 3-9-1-2-3-3-6-4l-1-1-7-4c-4-3-8-5-13-6-1-2-4-3-7-4h-1l-6-2h-4l-3-1v-2l-1-2-2-1h-1l-1-1-3-1-2 1-2 1h-3-5-1l-1 1-1-1-1-1c2-2 4-3 7-3l3-2-3-3c-47 35-88 78-120 127l2 3 1 2 2 6 1 3 1 2v1l1 1c0 2 1 3 3 3v7l-1-2v-1l-3-1h-3l-2 4-2 2v1l-1 2 1 1h-1v-1l-1-1-1-1h-1l1-2 2-1 1 1h1v-5l-2-2-2-1c2 0 1-2 1-3v-3l1-1c1-1 2-2 1-4v-1l-1 1-3 2-4 2-4 2v1l-2 1v1c-2 2-4 4-4 6l1 1v2l-1 1v3h1l3 1v2l-1 1-1 2 2 1v1l-1 3v1l1 1 1 1v2h-2l-2 2-2-1-3-1-2 1h-1l-2 1h-1l-2 1-1 1h-2l-1 1h-1-1-1-1l-1 5 1 2-1 2h-1-1l-1-1 1-1 1-1-1-1h-1l-2 2v3l1 3-3 3-3 1-2 1-3 1h-1l-1 1-1 1v4l-1 2h-1l-2 2h-1l-2 1-1 2v1l-1 1h-6v-1l-1-1-1-1h-2-1-1l-1 1 1 3 1 1v3l-2 1-5-1-2-1h-3-1l-1 1h-2c-1 0-3 2-3 4l1 1v2l3 1 2 1v-1h1l1 1 3 2h1l4 3 3 5 1 2c2 3 2 7 1 10v7c0 3-1 5-4 7h-4l-3-1h-11l-4-1h-3-2-2-2l-2-1-3-1-2 1-1 1-1 1-1 1-2 2c-2 2-1 3 0 4l2 2-1 4v5l1 2 1 7-3 4-2 4 2 4 2 2v4 6l3 1h5c3 0 6 1 7 7l2 1h2c-3 2-4 6-6 9-1 3-3 7-5 8l-4 3c-6 3-10 6-11 15v4c1 3 1 6-2 8-2 1-3 3-3 5l-2 3-3 2-2 2h-1l-6 1h-1l-1 2-1 2-2 5c-4 2-8 11-11 17l-1 2c-6 11-5 12-4 19v2c1 9 2 17 1 25v4l-2 7-2 3-3 3v1h-1v2l3 2 14 8a73 73 0 0180 8 6947 6947 0 00233-69l3-1h-2v-1l-5-6-2-6-2-6-2-5-2-5-2-4-2-2-3-6-1-3-1-3c-2-4-4-8-4-12l3 6h1l6 11h1l2-1 1-2v-6-2-2-1c2 1 2 3 2 6v2 5l2 2 2 5 7 11c3 1 3 3 3 6v3h3a18 18 0 017 12h1l4-1a8389 8389 0 0064-23l-1-4v-1c1-1 1-2-1-3-4 0-10-9-11-15-1-2-1-5 1-6l2 1 1 1h1v-3-2l1 1 5 1 1-1v4c0 3 1 5 4 8l4 3 5 4h1l3 3 3 3v1-1l1-1h1v2l7-2 5-2 8-2 23-8 3-1 4-2h1c70-24 138-48 201-72l21-8c54-22 105-43 152-64a73 73 0 0173-67l2-1 1-2 2-1 2-3 5-2 1-2 1-1 3-1v-2l2-2 2-1 2-1 2-3 2-2 3-4 1-2 1-3c2 0 4-1 5-3l2-1 2-2 1-1 2-1 2-1h15l2 1v1l1 1 2-1a496 496 0 00-179-164zm-405 553l-2 5-10 18-3 7c-2 4-4 8-8 11l-6 5c-8 5-16 11-21 21l-2 3-7 9-3 4-3 3-2 4v3l-1 4-2 5 2 3 1 3 1 8v8l3 4c1 2 3 3 3 7a8708 8708 0 01-172-80l-9-4h-1l-2-1a6956 6956 0 00192-58l4-1 2-1 4-1h1l3 1 8-2h2l5-2 10-2 6 2 1-1h1c1-2 5-4 8-4l1 1c2 6-1 13-4 18zm-94 230l-4 2-5 1c-2 1-4 1-5 5l1 2 1 3-1 7-1 1c-1 6-4 9-7 12l-5 6-2 5v1c-43-31-80-69-110-113l4-7 1-3a5128 5128 0 00130 60l2 1 5 2c0 4-1 11-4 15zm528-373v4l-1 2c-1 2-2 5-4 6v3c-4 1-6 7-8 12-1 5-3 9-7 10l-5 4c-4 4-8 8-15 10l-7 2-5 3-4 1c-3 0-5 0-8 3h-1l-2 1-1 6 3 2h1v1l-4 6-4 4-4 2-4-4 1-7 4-2 3-2-1-2v-3-1l-2-4h-1l-3 1-2-1-1-1-4 2c-2 1-3 3-3 6-2 4-4 6-6 7-1 1-2 1-2 3-1 4 4 10 7 14l3 3 1 2c7 9 15 20 9 31-2 5-5 7-9 9l-4 4-1 2-2 2-2 1h-2-1l-3 2-3 3v-1c-1-1 0-3 1-5l-1-5h-2l-3-1v-1c-4-1-5-5-6-10l-2-6h-1l-1 1-1 1h-5c-2-1-2-3-2-4v-1-2h-4l-1 1c1 5-1 9-3 14l-2 4v10l2 1h2l1 2v2l4 8c1 3 6 8 9 8l1-1c2 0 2 2 3 2v1l4 14c1 8 2 16 9 18 0 2-1 3-4 3-1-3-2-3-4-3l-4-2c0-2-1-2-2-3-2 0-3 0-4-2h-1c-3-2-4-5-5-8l-2-4-3-11v-3c-1-4-2-6-5-9l-1-1-3-3c-2-1-3-3-3-7l2-13 2-8-1-4-1-5-1-3-2-5-3-7c-1-3-3-5-3-8l-1-1v1l-1 1c-3 5-9 6-12 6l-3-1v-2l1-10c-1-6-5-14-9-17l-1-1-5-8-1-2-2-2v-2l-1-3-4 2-6 3-2 1-8 2h-1-1c-3 0-5 2-6 5l-1 1c-2 4-5 6-8 8v1c-10 7-13 11-14 13l-1 2-5 5c-2 3-4 5-7 5l-3-1-1 14 1 2 1 4-2 3-1 2v10c-1 4-10 15-15 15v1l-2 2c-3-2-7-9-8-12l-5-15-3-12-6-9c-3-4-7-8-7-13l1-1c0-2 2-8 1-11l-1-2v-1c104-36 200-73 286-109l3-1 2 3 3 9 1 1 1 1 3 10c-1 3-3 4-4 5l-2 1 4 3h3l-1 3zm-711-258l1 2v9l1 1h2l2-1v1l-2 2-1 1 1 2 6 5a17 17 0 006 2c2 0 3-2 4-3l2-2-22-32v1l-1 4v6l1 2zm57 213l-1-1 1-2 1 1-1 2zm79 2h-1l-1-1v-2l2 1v2zm-7 2l-2 1-5 1c-4 0-6-1-7-2v-1l-3-3h2v1h7l1 1 2 1h2l1-1 2 2zm51-4l-6 7-3 1h-4l-3-1-1-1 7-2 4-1 1-1 2-1 1-1 1-1 1 1zm-97-43l-2 2v-3l2-1v2zm-54 10l-1 4-1 3-2 1-1 1-1 1-2-1-1-4v-3-2l-1-4v-1-2h2l3-2 2-1 2 1 1 3v6zm-1-23v3l-1 5c0 3-1 3-2 3h-3v-2-2-1l-1-3 2-2h2l1-1 2-2v2zm-32 24v1-1h-1-1-1l-1-1 1-1h3v2zm-4 3l-2 1h-5l-1-2v-1-1l1-1 2-1h4v2h-1l2 1v2zm-13 3l-1 2-1-2 1-1 1 1zm113-183v1l-3-3h-1c2-2 3-2 4-1 1 0 2 1 0 3zm-29 47h-1l-1 2-3-2 1-1 3 1h1zm24-27l-1 3-3 6-1 1-2-2 1-6 6-3v1zm-604 24l4-3-2-4-3-2-1 2c-2 1-3 1-3 3 0 1 3 4 5 4zm-72-211l10 2c3 0 3-3 5-5 1-1 3 1 2 1v4h29c3-1 1-2 3-3 1-1 0 1 1 3s0-1 8 0 7-1 9-2 4-2 2-2l2-6c1-2-3-2-5-3-1-2-7-4-11-5-4 0-14 1-17 3s-8 4-11 2h-16l-18 7 2 3c3 3 3 2 5 1zm872 36c0 3 1 4 3 6l1-1h4l3 1 3 2-1 5h-1 4l1 1h3l2-1 2 2v1l6-1h6l1-1-3-1c-3-1-5-4-6-7l-2-3-2-5c-1-6 2-10 5-15l1-1v-1l2-2 2-1 2-2h1-1v-1c1 0 2 0 3-2l-1-1 1-2h1l2-1c2-1 1-2 1-3l2-1h2l2-2 2-1 2-1 2-1 2-2 2-1 4-3h2l1-1 1-1 5-1 3-1 4-1 6-1 8-2 1-1 2-1 2-1 2-1h2c2-1 4-7 3-9s-6-3-7-2c-3 0-8 2-10 4l-3 2-3 2h-9l-13 2h-1l-5 2h-1l-3 1-4 1-2 2-1 1-2 1-1 1-2 1-2 1c0 1 0 0 0 0l-1 1-1 1v1l-3 1h-4l-1 1v1l1 1v5l-4 4-3 2-2 1-1 2-1 1-2 1-1 1v1h1l1 1 1 2h-2-1l-2 2-1 1v1c1 1 0 2-1 4a20 20 0 00-1 2c0 1 0 3-2 3l-2 2-2 1c-2 1-2 1-2 3v1zm-680 507l1 3 1-2-1-1h-1zm-8-2v3l2-2-1-1h-1zm3-7l-2-2h-1l1-1-2-4h-1v3l2 3h-1l1 2h1l2-1zm-8-12v1-1l3 3 1-1v-2c-1-1-3-2-4-1v1zm-2-5v2c1 0 2-1 1-2h-1zm-4-1v1h1a3 3 0 002 0l-1-2-2 1zm1-4l-1-3v-2l-1 1v4l1 1 1-1zm-13-1h-1a7 7 0 010 1v1h1l2-1-2-1zm-14-1l1 1h4l4-1v-2c-1-1-3-3-5-2l-4 1-1 1 1 2zm-36-1l2-1c2 0 3-1 5 1l3 1h3l2-1 9-1 2 1h3l1-1c0-3-5-6-6-7l-10-2-9-1-1-1-6-2-1 2 2 2 4 3h-3l-1 1-2-1h-3l-1 2-1 1h-1c1 3 4 5 9 4zm-19 1c-4-3-10-6-12-5l-1 3v2l8 1h5l1-1h-1zm-33-8h2v-2h-1l-1 1v1zm-10-19l-1 1v2h2l2-1-1-2h-2zm47 13h3l5-1v-1l-8-4-5-2-2-2-3-3-3-1-4-1-4-2c-6-3-13-7-21-7h-4l-5 4-1 1-2 2-3 2v1l2 1c3 0 7-2 9-4l1-1c3-1 4-1 6 1l3 2 3 1v1h5l1 2 1 1c2 3 4 3 7 3 1 2 3 3 6 3h2v1l1 3h5l1 1h1l3-1zm14-6l1-1 1-1-4-2c-1 2 0 3 1 4h1zm-4-12v-1l-2 1-1 2 2 1 1-1v-1h-1l1-1zm-9-6v2h1l1-1v-1l-1-1h-1v1zm-2-10l-1 1 1 3 1 3 2-3-3-4zm-3 8h-1v1h5v-1h-4zm-7-12l-1 2 1 2v-1-3zm6 0l-2-1h-1l-1 1v1h1c1 0 2 0 2 2l1 1 1-1-1-3zm-10 7v-2l-2-4-1 3h-1l1 3 1 2 1 1c0 1 1 2 3 2l-1-3-1-2zm5-14l-3-5-1 1 2 7h1c1 0 2-2 1-3zm-11-3l1 1v1h1l3-1-5-1zM747 212h-1-3v2l3 1 1-1v-2zm10-3c-4-1-5 1-5 1l1 2h1l3-1v-2zm-1-19h-4l1 2 2 1 1-1v-2zm-68 24h12l1-1c6 0 11-3 14-8l3 1v1l3 1h3l1 1 1 2h3l1 1h7l6-1 1-1 1-1h1l2-1-1-2v-1l-3-1-1-1-2-1-1-1h4a28 28 0 002 0h3v1l2 1 1-3c0-1 1-2-1-3l-2-1-2-1-1-2-2-1-5-1-2-1-2-1-2-1-1-1-2-1c-2-2-1-3 0-4l2-2-1-2-1-2a497 497 0 00-49 41c3 0 5-1 7-3zm56-45v1h4l3 1 3 3 2 1v1l1 1 2 1 1 1 2 2 2 1h2l2-3v-2-1 1l2 1 1-1h1l3-1 3-3v1-1c2-2 1-4 1-6l-1-1v-3c0-2 0-4-2-6v1h-1l1 4h-1l-2-2-6-2 3-1 2-1 4-3 1-1-2-2-1-1a504 504 0 00-23 14l-7 5v1zm40-15l-1 2v1l1 4 1 2v1c0 3 0 3 2 5l1 3 1 2h1l3-3c1-2 4-4 3-6v-1h3l3 1 5-4 1-2 1-1 1-1 2-1 1-2 1-2 2-2c-1-2-2-2-4-2h-2l-2-2-4-1-1-1h-12l-2 2-2 2h-2c-1 0-2 0-3 2l1 2 1 2zm151 79zm1-1v0zm0 1zm1 0l1 1-1-1zm-3 11zm-2-7zm0 0h-1 1zm-7 0h1-1zm104 146l-1-2v-3l-1-6-1-2-1-1h-2l-2-1-1-1c-1-1-1-2-4-2l-4 1h-2-1l-2 1-1 2-1 2c-1 1-3 0-5-1 1-2 7-4 10-5h1l7-3v-2l-3-1h-1l-2-2-2-2h-4l-2-1c-2 0-2-1-3-2l-1-1c-2-3-5-6-8-6l-1-2-1-2h1l3 1v1-1h1v-1l-1-2 1-3-2-2-3-4-1-3-2-5-2-2-1-1-1-2-1-1c0-2-2-4-3-5l-1-2h-1l-2-2v-2-3h-1l-2 4v2l-1 1-1 2v3l-4 4-1 2-1 1c-2 2-6 5-8 5l-2-2 1-1-1-2h-1l-1-1-2-2c-1-1-3 0-5 1l-2 1 1-3-1-3v-2l2-3-1-3-1-4 1-1c1-1 2-1 2-3l-4-1h-2l-3-1h-1l-1-1-1 1h-2v-2l-1-3-2-1-1-1-3-3c-1-1-2-3-4-3l-4-3h-3l1 1c1 1 2 1 1 3l-2 1h-1v-2h-1v1l-1 1h-1-2l-4-2-3-1h-5l-2-1-1 2-2 5 1 1 1 2v4c0 2-1 3-3 4h-1v1h2l2-1 1 4 1 4 1 2v2l-2 1h-1v2l-1 1v1l-2 2-1 2 1 1 1 1c6 2 10 10 11 17v5l-1 3-1 1-4 3-3 3-1 1-2 2h-3-1l-3 1 1 5v1l1 2 1 3v5l1 3v2l1 2c1 1 2 2 1 3h-1-1l-1 2v1l-2 1-2 1v2l-1-1h-4v-1c0-1 1-3-1-4h-1l-1-1-1-1-1-1-3-2 2-4 2 1 2-1-3-2h-1l-2 1-1 1-1-2v-4h-1v-2-1l1-2-1-2v-3l1-1v-4h-2l-2-1-5-1h-11c-1-3-3-4-5-4l-4-2-2-1-3-2-5-3-3-2c-2-1-4-3-7-3h-11c-3 0-3-1-4-4v-3l-1-1c-1-3-1-6-4-8h-4c-2 0-3 0-4-3-2-7-1-14 3-20l1-2 4-6 3-4 3-4 3-1 3-1 2-1 2-2-1-2-1-2 1-1h2l1-2v-1c1-2 2-2 4-2l1 1 7-1 4-5 1-2 2-2c1-1 3-2 3-4h-1l-2-1h-10l-2-2-1-2-7-3h1l5 1 2 2c4 3 8 6 13 3l2-4 3-3h1c1 0 2 0 2-2l-1-1-3-1 1-2 3 1h2l2 1-2 4-2 2-2 1c-1 2-2 9-1 12v1l-1 5-2 1-3 2 1 2h4c2-1 3-1 4 1v1c1 1 1 2 3 2l4-2 2-1c3-2 7-2 11-1s9 3 12 0l1-2c0-1-1-2-3-2l-3-2-1-2-2-4-3-1-2-1-4-1c-2-2-4-3-7-3-2 1-3-1-4-3l-2-3 2 1 1 2 1 2 1-1c2-2 1-3 0-5-1-1-2-1-1-3l1 1 2 2v1h1l4 3 1-2-1-2h-1v-2l-1-2c1-2 0-4-2-5l3 4 2 2h2l1-1 1-2h2l2-1 2-3v-1l1-1 2-2v-4l-1-2h-1c-2-1-4-4-3-6l3-4 1-1 1-3-1-3c-1-2-2-2-3-2l-3-1v-2l2-4h6c1-1 3-2 3 0l-2 1 2 1 2 1 1 1 2 2 1-2 1-2 1-2h2l4-1-3-3-3-3 1-1 2 1 1 1h2l1 2 1 1h1v1l1 1v1l3 1 1-1v2l-2 4-1 1v2l5 1 1-3v-2l2 1 2 1v2l-3 1-2 1v1l4 2c3 1 3 0 3-2h4c1 2 0 2-1 3-1 0-2 0-2 2l1 1 3-1 1-1 3 1 1 1 3 1 2 1v3l1 1 1 1v2l1 1 1 1c1 2-2 6-4 8l-1 2-3 2h-1l-3 2 1 2 1 2 1 1 1 2-2 1c-1 1-2 2-3 0h-1v1c-3-1-4 1-4 3l-1-1-4-2-4-1h-3l-3 4c-2 1-3 2-3 4h1l1 1h1v3c1 2 3 2 4 2l2-1h4l2 1h3l3-3 1-3 3 1 1 1 7 5 2 1 2 2 1 2 2 3-1 1 3 2h2v1l1 1 1 2 2 1 1 1 2-2h2l1 1c2 0 2 1 3 2l2 2h1l1 1h3l1 1 1 1h5l4 1 3 2c0 2 1 3 3 3h3v-1-1c0-1 0-3-2-4l-2 2-1 1-3-5c0-3-2-5-4-7l-5-3-7-5-1-2h1l3 2 2 1 2 2 4 2 4 2 3 1 2 2c2 2 4 4 6 4l1-3h1-1-2l-2-1v-1-1-1l1-4 2-1 2-1c0-2-3-5-3-5l-1-1-1-1v-1l-1-1c0-2-2-4-4-5h-1l-1-2-2-1-1-2-1-2-3-2-3-4v-4l2-1c3 0 5 0 7 2l2 1 3 4v1l1 1 1 2 4 3c2 1 3 2 5 1l2-4v-1c0-1 0-2 2-2h1l3-1v-3-2l3-1h1l1-1c1 0 2 0 3-2v-1l1-2v-1h1v-1h-5l-6-1c0-2-1-2-2-3l-2-1v-1l-1-1-2-1h-1c-2 0-3 0-4-2l-1-1v-1l-1-2-1 1-1 1h-1l-1-1-1 1h-1c-2 0-3-2-3-4v-2l-1-1h-1l-2 1h-4l-1-1-1-1-1-1-2-1 1-1v-1h2l1-1h1l2-1h3l-1-2c-1-2-2-2-4-2l-2-1 1-1h1l3-1-2-2-2-2-2-1-4-1 1-1 1-1-3-4-7-1h-2l-2-1-1-1-1-1-1-2v-2h-1l-1-1h-1v-1c-1-1-5-2-6-1l-2 2-2 1-4 2v-2l1-1v-1-1l-1-1-1-2v-2c0-1 0-2-3-2l-2 1h-3l3-2-2-2-2-1-5-2-6-1v-1c2 1 4 2 6 0v-3c-1-3-3-5-7-6l-7-2h-10l-3-1c-1 1-2 3-1 4l1 2 1 1 2 3v1c2 3 6 3 8 3h1l2-1v1l-1 3-4 1h-2l-2-1c-2 0-5 2-6 4l-1-1 1-3 1-2 1-1 1-1-1-2h-1v-1l-1-2-1-2c-1-2-2-2-1-4v-1h-2l-2-1h-3-2-1-2l-2 1-1 1c-2 2-5 2-7 3h-1l-2 1-1 2-1 1-1 1-1 2 1 2v1l3 3 1 1v1l-1 1h-3v1l1 3 1 1 3 4-4-1-1-1-1-1h-1l-1-1v-1-1l-1-2v-1-1h3l-2-3-2-3h-1v-2l1-1v-1l2-2v-1l2-1 1-1c1 0 5-3 5-5v-2h-7v-1h-7l-4 3h-2c-3 2-4 3-5 7l-2 2v1l-2 2-1 2-1 7v10c1 3 5 3 8 2l6 1h-6c-2 0-4-1-5 1v1l4 6c3 2 6 3 11 2h3v1l-2 1h-2v2h4l1-1h10l2 1 2 1h1c2 0 6 1 7 3v2c-1-1-3-3-9-5h-2-1-1-1v-1h-1l-2 1 1 4-1 1 1 3 2 2c0 2-1 2-2 3l-2 1-1 4v3l-2 2-2-2v-1h1v-1l-1-1-2 1v4l1 2-2 5h-2c-1 0-2-1-2-3h-1l-3-5v-2l3-3v-1h1l-1-2v-1l-2-2-1-1-4-3h-5l-1 1c0 1 0 2-1 1h-1v1l1 2v2h-2l-2-4v-2h-2c0-1 0-3-2-5h-3l-1 1-2-1 1-1-1-1 1-1 1-1 2-3v-1-3l-2-1-1-1h-1l-2-1v-2-1c-1-5-3-7-6-8l-3-1-3-1h-3l-1 1-1 1v2l-1 1-1-1-3 2v2l-2 1-1 4 3 1 1 2h-4c-1 1 0 5 1 6l3 3 4 2h-1v1h8l1 4-1 2-1 2h4l1 1-2 3v2l-1 1h-1l-1 1-1 1h-2l-3 2c-1 2 0 3 1 5v3h-1l-1-1-2 1-1 1-1-2-1-4 1-1v-1l1-1v-1h1l1-1-1-1h-6l-3-3h1l2-1 1 1h4l1-1 2-1c2 0 4 0 4-2 1-1 2-1 2-3h-1 1l-3-2-1-1-1-1-2 1h-1l-3-2-2-2-1-1h-2l-1-1-1-1c-3 0-4 2-5 4l-3 3-4 3 1 2h3v1l2 1h1l3 1-3 3-2 2v3l6 1 3 1c-2 1-6 0-9-1h-2l-5 1h-3l-10-1-16-4-6-5c-2-3-3-4-6-4-2 0-13 4-13 7-1 1 0 2 1 2 1 1 3 0 6-1h1l3-1 5-1-6 3-1 1c-2 0-5 0-5 3l-1 1v2l1 2 1 1v7l-2-5v-1c-1-2-1-3-3-3l-1-1-3-2-3-2h-6l-6 1-6 1-4-1-3-1-33 34 9-1a73 73 0 0173 80 2267 2267 0 00201 139l3 2 4 2 1-1 1-1c1-1 2-3 4-2l2 1 2-2c2-1 4-1 3-3v-1l-2 2h-1l-1-1v-1l-1-1h-1l1-1v-1-1l-1-3 1-1 2-2 3-4 1-1 4-2 2-2 4-1h3l1-1 2-1h1l2-1 2-2 4-2 2-1c1 0 3 0 4-2v1l4 3h-4l-2 1c-2 0-6 2-6 5l-1 1c-1 1-2 1-2 3l3 2 1 1h4l3-2c0-4 4-5 7-6l3-1h1l4-2h2c1 0 3 0 4-2l1-3 1-2h1l1 2 5-3c1-2 0-3-1-3l-1-2 1-2h-6v2c-2 1-2 2-2 4 0 1 0 2-2 3h-6-4l-1-1-1-2h-3l-1-1-1-1v-1c-1-2-2-4-4-4v-2-1-1l1-2c0-2-2-3-3-4h2l3-1c1-2 3-6 1-8-2-3-8-3-11-2h-1l-9 3-6 4-4 4c-2 1-2 1-2 3l-1 1-3 3 2-3 1-3v-2c1 1 2 0 4-1l3-4 2-3 3-1 3-1c1 0 2-1 2-3l2-2c3-3 5-3 9-3h2l9-1h4c2-1 6 0 9 1h1v1h1v-1l5-2 3-1 6-4v-1l2-2h5l6-2 1-1c1 1 3 0 4-1l1-3zm27 375l1-2 2-4c1-4 1-4-1-5l-3-1c-2-2-2-5-2-8 0-4 0-5-2-8l-1-1-4-4-5-3-3-2c-3-2-7-1-10 0h-6l-6-3-1-1-4-1-4-2-1-2-2-6-2-2-3-1-1-2-2-1h-1v-1-2l-3-1 1-5v-1-2-1l-2 2h-1l-1 2-3 3-3-1 2-3v-2l-4-1-2 2-3 1v-3h-3c1 3 0 5-1 6h-4l-2-1-3-2h-7l-1 1c-4-3-5-2-6-2h-1v-2h-1l-1-2-3-2h-5l-3 2-2 1-1 1-3 1-1 1v-1l-1-1-1-1 1-1c1-2 2-4 4-4h1v-2l-1-1h-5l-2 3-2 2-2 1h-1l-2 1-1 1h-7c-3 1-4 4-4 7l-2 2v1l-2 2-1 1-3 3-1 2-1 2-1-2-2-2-1-1-2-2-2-1-4-2-5 1-2 1-5 2h-3l-1 1h-1l-2-2-1-1-1-1-1-1v-1l-1-1-1-2-2-3v-1-2l-1-1-1-1 1-6v-4-1-4-1l1-3c1-4 1-4-2-7v-1l1-1c-3-2-6-2-9-2h-4l-5-1-3 1h-4l-4 2-1 1-2-1c-1-1 1-3 1-4l2-4v-3l1-1 1-2v-1l1-1v-1l2-2v-2-3l1-4 1-1 2-1 1-8c-1-2-4-2-6-2h-1l-8 1-3 1-3 1h-1v4l-2 6c-1 2-3 4-7 6s-11 3-15 3c-5-1-10-3-13-9s-6-13-6-21a77 77 0 011-12l2-5v-1c-2-2-1-9 0-11l2-2 2-1 2-2 2-1 3-3 5-4h1c3-1 5-2 8-1l6 1h5c0 2 3 4 5 4l2-1h1l2 1 3 1v-1-2h-1l-1-1-1-1v-1-2c2-2 5-2 8-1h5l2-1h3l5 2 3 3v1l3-2 3-1c2-1 2-1 4 1v1l3 2c1 0 2 1 2 3l1 5 2 9v1l2 2v2l1 1h1l1 1 2 4 1 2 1 1 1 2h1l2-7 1-3v-6l-1-3-1-5-1-7-1-1-1-1-1-2v-2-2l-1-5c-1-4 1-7 3-10l-21-14c-73-46-136-91-189-132a73 73 0 01-89-55 475 475 0 00-7 16l1 3v4l3 4h1l2 2 1 1v4c1 2 2 2 4 2h3l-1 1 1 4 1 1v1l1 1v2l6 2 2 1 3 1h1l1 1 1 2 2 1 2 1 1 1 1 3h4l1 2 1 3 3 4 2 3 1 2 1 2-1 1-1 1v3l-4-11-1-1-1-2-1-1-2-1-1-2-1-1h-1v-1l-1-1-3-3-1-1-4-2h-1l-1-1v-1l-1-1-3-1h-2-1c-2-1-3-2-5 0 2 4 5 6 8 8l2 2 3 2 2 1 2 3 2 2c2 4 5 7 6 12l2 10v14l-1 5-2 5v7l1 4v5l1 1v4c-1 7 4 15 7 19l5 8 1 1v1l2 3v4l2 3 2 2 1 2 1 3 5 3 2 1 4 2c1 2 2 3 4 3l2 1c2 1 4 1 4 3l1 2v3l1 3 1 1 1 4v3l2 3 1 1 2 3 1 2c0 2 1 2 2 3h1c2 1 7 6 7 8l-2 1-2 1 1 3 1 1c1 3 4 5 6 7l2 1c1 1 5 4 5 6v2l-1 3 2 2h1l7 7 3 4 4 4 1-4c1-2 2-3 0-6l-4-1c-1 0-2 1-3-1v-6-3l-3-4-1-2-1-2-1-1c-2-2-4-4-4-7-2-1-4-3-5-6l-1-2-3-4-1-1-3-3v-2-2l-1-2-1-1v-6h1c3 1 7 6 8 8v2c0 2 2 4 4 6l2 1c2 4 3 7 7 9l2 1 2 2v3l3 4 1 1 3 3c1 5 4 7 7 9l1 1 5 4 3 4 1 1 3 5h3l1 1 1 4-2 2-1 3c0 2 2 3 3 4l1 1 3 2 3 3 6 4 4 2 3 2 4 1c1 2 3 2 5 3l12 5 1 1 4 2h18l2 1h2l3 1 1 2 2 2 1-1 3 4c1 2 2 3 5 4l1-1h1l1 1 2 1h5l3 2c2 1 3 3 5 2 2 2 3 1 5 0l2-1 1 2 1 3v1l4 4c0 2 2 2 3 3s2 1 2 3v1l2 6 2-1c1 2 3 4 5 4l2 2 1 2 1 1 3 3h3l1 1 1 1 3 1 1 1c1 2 5 1 7 1h2l-1-2v-3-1c2 0 2-1 3-2l5-2 1 2 1 2 1 1 2 2v2l1 3 1 1 2 2 1 8v2l-1 3 1 2v3l-2 3v1l-1 2-2 2-2 1-3 3c-1 3-2 4-4 5l-1 1-4 6c-1 4-2 4-4 7l1 6v3l1 1h1l1 1 2 1c1 2-1 3-3 4h-1c-6 5-4 10-1 15l-1 2 7-1 5-1a3638 3638 0 00173-37zM933 873l-3 1 4 7 1 3v4l1 1v5c3 3 1 7-1 11l-1 4v3l1 1v4l1 3v5l-1 1-2 9-2 6v2a129 129 0 01-3 18l-1 2v3l-1 2 1 5 1 2v5l-1 2v7l-2 7a259 259 0 01-5 11l-2 3c-1 3-3 8-2 12l2 3 1 2v3 3c-4 0-4 3-5 6v1c-1 4 0 5 1 8l1 1-1 2c-2 2-4 5-3 6l1 1 1 2 2-1 1-4v-4h1l1-1v-1l2 1 1 3c-2 2-3 6-3 9v1l-1 3-3-2v-1h-1v3l-1 1a494 494 0 0052 5l1-3 1-2v-2l1-2v-1l1-1v-1h1v-3l-1-1 1-2 3 2c2 1 3 2 4 0l1-2v-3l-2-1-2 1h-4l-2-2c1-2 1-6-1-7l3-1 1 1v1h1c3 1 9 2 10 0l2-4v-2l1-2v-1l1-3v-1c0-3 3-3 6-3h2l11-1c2 0 4-2 6-4l3-3c3-2 5-7 6-10l-2-2-2-1v-3-2l-3-5-3-2c2-1 4-1 6 1 3 2 11 4 14 2l5-4 2-2 3-3v-1c3-2 7-9 7-10v-1c4-1 7-5 9-8l1-4 1-3 1-1v-1l1-1 1-1 2-2c2-3 5-7 5-11v-1l-1-2 1-2v-2-2-4l5-6 3-2 1-1c2-5 3-5 6-5h2l4-3 3-1h4l9-1c4-1 5-1 6-4l2-4 3-5 4-9 2-5 2-5 1-7v-3-8-2l1-11c0-4 1-6 5-5l4-7 2-5 2-2 1-1c-72 17-141 31-207 44zM561 374l-1 3v1l1 1 2 4h1l1-1-2-4-2-4zm466 22l2-4c1-2 3-4 1-6l-3 3-3 2-3 2-2 4-1 2-3 5-4 8c-1 1-4 6-3 9l1 2h7l7 1h5v5h3v-2c0-2 2-2 4-2h1c1 0 2 0 2 2v3h1l1-1 2 1 2 1c1 0 2 0 3-3l1-1v-4l-1-2v-2l-1-4-3-2-2-1 1-1 2-1-2-2-1-3h-2l-3 1-1 2-2 1-5-2c0-2 1-2 3-3l1-1-3-1h-2-1l-1-1v-1l2-4zm-44 12l6 2 3-1v-2l-3-1-2-1h-3l-1-1-1-2-5-1-1 1c2 4 4 4 5 5l2 1zm9 17l2-1 1-1 1-1h-1c-1 0-3 0-4 2v1h1zm-15 7l2 2h1l2 1h2l1 1 2 2 4-6-3 1h-3l-3-2-4-2 1-1v-1l-3 3 1 2zm-85-156l2 1 1-1 1-3v-2l-5-1-2 2v2l3 2zm-11 16l1-1v-1l2-2 1-2-3-4h-2l-2 1-1 2v2l2 2 1 2 1 1zm-16-16l-3 1-6 3-1 3 3 1h1l1 1h2l2-1 1-1 1-1 4-4-1-1-4-1zm51-52h2l1-1c1-1-1-2-2-2-1-1-3-2-4-1v3l2 1h1zm-16 6l1 1h1v-1h3l1 1 2-1 4-2-1-3-1-1v-3c0-2 0-4-3-4a18 18 0 00-5 0l-2 1-2 1v2l-2 4 2 3 1 1 1 1zm-11-16h-1v1l-1 1-1 1h-1v2l2-1 1-1 1-2v-1zm-4-2l5-3v-3-1l2-2 1-1-1-2h-1c-2 2-3 2-4 5l-1 2-1 1-1 2 1 2zm2-95l-1-1v1l-2 2v1h-1v1 1l2 1 1-1c1-1 2-4 1-5zm-26-2l1 1h1v1l1 1h3l1-2 2-2h3l1 1-2 1-2 3h4l2-1 1-1h7v-1l1-1 1-1h4c1-1 4-4 3-5l-1-3-3-1-1 1h-2a487 487 0 00-26 9h1zm-11 2h-1 1zm193 65v-1c-2 0-3 1-4 4h1c1 0 3-1 3-3zm-13-18l1 1h1c1 0 2 0 2-2l-1-1h-3l-4 2h4zm-101-62h4l4-1v-1h-11c1 2 2 2 3 2zm294 103l2-2 4-2c2-1 5-2 6-4v-1h-3-7l-1-1-2-1h-5l-2-1-2-1-3 2-2 1-7 2h-1l1-1 2-1 3-1v-1h-6l-2-1c0-2 3-4 4-5v2l-1 1h1l1 1 3 1c4 0 9-3 10-5v-3l1-1-2-2h-1c2 0 4 0 4 2l4 2 2 2v2l1 3v1l3 1 3-1 2-1h4l1-3 1-2h1-1v-3-3h-1c-1-4-2-6-6-8l-3-2-5-3-1-1v1h-1l-1-2h1l5 2 6 3 2-2-1-3 3-4-2-2h-3l-2 1-2-2h-1l-4 1h-4l-1-1h-1l-2-2 1-1 2 1h4v-4h-1c0-1 1-2 3-2l3 2-1 3h-1 1l5 1 1-1h3l3 1 2-2h4l2-1 1-1a490 490 0 00-311-57l2 1 2 1 3 1h1l1-1 1 1 1 1 2-1 2-1 2 1h2l2-1 5-1 2 1-1 2-2-1h-2l-2 1-3 1h-9l-1 1c-3 0-10 0-12 3v2c2 0 2 1 3 2l2 2h2l5-2 5 2h0l-2 1h-1l-3 1h-2v1c5 4 11 5 16 5l3 2 2-1v-1h-1l4-2 3 1 2 1h3l1-1h8l2-2h1l3 1a13 13 0 003 1l4 1 2 1 3 2 4 1 6 1 3 3 1 3 2 2 2 2v4l2 1 1 1 1 1 1 1 3 3-1 1v1l2 3v2l1 3 2 2 1 5h5l1 2c0 2-3 3-5 4v-1c-2 1-1 3-1 4v4l-2 2 2 2 2 3h1c2 0 7-1 8-4v-2l1-1 3 3 3 1-4 2 5 4c4 1 7 2 8 4v3l-5-1-4-2-2-1-2-1-2 1h-1l-1-1h-1c-1 0-2 0-3 2h-1 1l2 4 1 2h-4l-1 4 1 2v1h-1v1h2l1 1v-1l2 1 5 2s8 0 8-2v-2-1c-3-1-5-2-6-4l-2-3 3 2 2 1h3l2 1v2l1 1h1v14h-1l-3-1h-2c-1-1-3 0-5 1l1 1c-2 1-3 4-3 6l-3 4v1l1 1-1 2 1 3 1 3 1-1 2 1h-1l-1 1-1 2-2 2v1l2 3 1 3h1l5 5v1-1h1v-1h1l-1 3-1 4 2 2v4c2 1 3-1 3-2l1-1 2 1h-1l-2 3 1 3v2l3 2 2 1c-1 1 0 3 1 4l1 3c1 4 1 4 3 5l2 1 6 6v2c1 2 1 4 3 4h1a17 17 0 008 1l2-1 2-1v1l1 1v2l2 1 2 1h2l2 4 2 3 3-3c3-3 5-8 6-12l3-7v-3-1-1l-1-1-2-2-1-1 3-1a8 8 0 004-1v-1h1v-2l1-1h1l1-1 2-5v-3-2l1-2 1-3v-1h-1l-1-1-1-1 1-1 2 1h1l1-2v-1-1l1-1v-2l1 1 1-1 2-2v1h1v1h1l1 1c2 0 3-2 3-3l3-4-1 4 2 1h1l3 1c4-4 11-9 16-10 2-1 2-3 3-5l5-7 2-1c1-1 3-1 3-3l-1-3v-2l1-1v1l2 1c1 2 2 3 5 3h1c2 0 7-2 9-4l5-1 6-1 3-1 5-1 1-1 4-2 3-1 3-2 2-2zm49 61l3-2c5-2 13-6 14-11 0-3-1-4-3-6l-2-1-1-1-2-2v-1l-1-3-1 1-1 1-1-1h-1l-1-1c-1-1-1-2-3-1l-1 2-1 1h-2l-1 1-2 1-3 1c1-1 2-2 1-3-2-1-7 1-8 2l-2 2-1 1h-2c0-2-1-3-2-3l-3 3-1 2-1 1-2-1v-1l1-1c0-2-1-3-3-5-3-2-6-3-8-2l-3 4-2 1c-1 3-3 3-4 4h-2v1l4 1 2 1h9c-1 2-3 2-5 3-2 0-5 0-6 3h3l6 3h1l1 2h1l2 1v1l-3 1h-2l-1 2 6 1h1l6 1 1 1 2 1h12c2 2 5-1 7-2l5-3zm90 39v1h2c-1-4 0-4 1-6l2-3h-2c-1 1-3 2-3 5v3zm-10 13l1-1h1v-4-1-1l-4 2v4l2 1zm-22 12v2h1v1h1l1 1 1 1 3 2-2 1c0-2-1-3-2-3l-2 2v1l2 3 1 2-2 1-1 1 2 2h1l1-1v3l4-1s1 0 0 0v-1-1l3-2-1 3v2l-1 2-1 4 1 1h6l1-1 2-1v5l1 1 1 1h1l1 1-1 2-3 3h-4l-3 4 2 4-1 1-2-3-1 2-1 1 1 1h1l2 1v1h-2c-2 1-3 3-3 5l2 1 1-1v-1c1-1 2 0 4 1v1l2 1v1l-4 3-3 3-1 1-3 3 2 1 6-2h2l4-3 2-2 7 1h6v1-1l3-1a10 10 0 004-1l4-1h1l3-1v-2l-3-1-2-1c4-4 7-7 6-10l-1-2h-1l-5-1-2-5a25 25 0 01-1-4c-4-1-6-5-8-9l-2-3-4-4h-1l-2-1c-2-1-3-2-5-1 0-2 1-2 2-3l1-1c2-1 3-2 4-5l1-1 3-4c-1-2-2-2-3-2l-2-1c-2 1-9 2-10 0l3-3 2-2 2-2-1-1h-8c-3 0-3 1-4 3l-1 2v1l-4 3h-1l-3 2zm-5 2v1h1l1-2c0-3 1-3 2-4l2-1 3-5v-1l-1-1c-3 1-8 7-8 10l1 2-1 1zm-13 52l6-2 2-1 4-1 8-2v-8l1-6-1-2 1-1 3-2-1-5-1-2-4-1h-1-1-2l-2-1-3 1-2 1v1 3l-1 1v1l-3 1c-3 1-6 2-7 4l3 4 1 4v3c0 2-2 4-3 5l-1 1c0 3 2 4 4 4zm651-273l2-1v-1h-1-1v2zm-7-4l1-1 3-1 1-1-5-2-2 2h-1-1-1v1c-1 0 0 0 0 0l5 2zm-7 5h1l2-1 1-1h-2l-3 1 1 1zm7-2h-2v1l2 1 2-1-2-1zm-84-10h1v-2l-1-1h-1v2l1 1zm44 5v2h1v-1l-1-1zm-5 0l5-1h1l1-1c-1-2-2-3-4-3h-1l-1 1-1 1-1 2 1 1zm-38 13l-1 1 1 1v1-1h1l2 1 2 1v-2l-5-2zm-3 4h1l1-2-3-1-1 1-1 1 3 1zm-1 8h1l3-2v-1l-1-1h-1l-2 1h-2l-1 1v1l3 1zm-15 11h1l-1-4c-1-1-1 0-1 1l1 3zm32 1h2l-1-3v-1l-2 1 1 2v1zm-3 5h1v-2h-2l-1 1 1 1h1zm-12-3v1l6 1h2l1-1-1-1h-8zm-73 14h3l4-1 2-1-1-3c-1-3-3-2-6-1 0 0-5 2-5 4l3 2zm36 2h2v-2-1l-1-1-2 1 1 2v1zm22 3l-1-2-1-1-1-2h-4v3l7 2zm-190 46l1 1v2h1l4-2 1-1h1l2-2c1-1 0-2-1-3l-1-1-1-1h-1-1-1-1l-1 1-1 1-3 3 2 2zm-78 42l-1 2 2 1 1-1v-2h-2zm568 282l-1 2c-1 1-2 2-1 3v1l1-1 1-2 1-3h-1zm3-9l1-1v-1h-1l-1 1v1h1zm-20 8c-1 0-1 0 0 0l1 1h1l2-1-1-1-3 1zm70-180l-2 1h-2v1h1l2 1v1h1l3-2-1-2h-2zm93 80h1l3-2 1-1-1-1-2 1h-2v3zm-14 8l1 1 3-1 1-1 1-1 2-1-1-1-4 1v1-1l-1 1-2 1v1zm-17 13l1-1 3-1 2-2 2-1 1-2h2c1 0 3 0 3-2v-1l-2-1h-2l-2 1-2 2-3 3-1 2h-1l-1 3zm-6 2h1l3-3v-2l-2 1-3 1-2 1c-2 1-4 2-7 0-2 0-3-2-4-3l-3-3-1-1h-1v-1l-1-1v-1l-1-2v-1-1l-1-1v1c-2 2-2 5-2 8v6l-1 3-1 1v2l-1 2-2-1c0-1-1-2-3-1v4l-3 2-1 2-1 1h1v1l1 2v2l1 2 4-1-1 2v1h-1v1h-1l-2 3v1l1 2-1 2v6l-1 1v3l-2 3-1 1-1 1-2 2v1l-1 2h-1l-1-1v-1l-2-1v2l-1 2-1 1-1-2-1-3h-1l-1 3-1 2-1 1-1 2v2l-1 1-1 1h-1v3l-1 2-2-1-3-2-2 1h-3l-4 1h-1-1l-3 1-2 1-2 2-1 2-3 1-3 4-4 3c-1 1-4 4-3 6 0 1 1 2 3 2l2-2 1 1-2 2-1 1v7l2 2h1l4-3v-2l1-2 1-1 1-2c1-3 2-6 0-8-1 1-3 0-4-1l-1-1 1-1 2 1h3l2-1 1-2 2 1v2h-1l-1 1v3c-1 3 0 3 2 5l1-2 3-1 3-3h1l1-1 1-1 1-1c1-1 2-2 1-3l-1-1h-2v-2h7v2l-1 1-1 1c-1 1 0 2 1 3l1 1h3l1-1c2-1 4-3 4-5v-3h1l1 2v1-1c2-1 4-2 6-1l6-1h1v-1-1h2v1h4l1-1h1v-2-2h2v-2l-1-1 1-1v-2-1l-1-2 1-1v-2-1-2l1-1 1-1v-1-1l1-1 1-1 1-1v-2-1l2-1v-2l1-3-1-2v-2l-2-4-1-5v-1l-3-1-1-2v-2h-1v-3-1l2 2v1l2 1 1-2 1-1 2 1 1 1 2 1h1l1 1h1c2 0 2-1 3-2v-1-1l1-1h1l1-1 2-1c3 0 5 0 7-3v-1-1l1-3zm-52 42h1l1-1v-3l-1-1v1l-1 4zm-56 72l1-1h2v-1l2-2-2-2c-1 0-3 3-3 5v1zm-9 14l2-4 2-3h-1-1l-3 7h1zm19-31l2-3h-1l-1 1-2 2h2zm50-17h-1-1c-2 1-2 3-1 5l2 2 2-1 1-5-2-1zm32 324h-3l-1-6v-6l-2-3-2-2v-2l-1-1-1-2v-1h-1l-1 2-1 2-3 3c-1 4-2 7-1 10v7l-1 5v1c-1 5-3 14-8 16l-2-1h-2l-1-3-1-3-1 1-2 1-2-2-1-1-4-2-1-1-3-3-4-3c-3-2-3-2-2-5l1-1 1-2 1 1h4v-1l-1-1-1-3c2 0 2-6 2-10 0-2-1-3-2-3v1c0 2 0 4-2 4-2 1-3 0-5-1h-2-1-1l-1-1h-2-1-1-1l-1-1h-3-1v-1l-1-2h-1l-3-1-2 1 2 1h1l2 3-2 2h-1l-3 1h-2l-4 1-4 5-2 4-2 4 1 1v3l-2-1h-1-1l-2-1h-2l-1-1-1-3h-1v-2l-5-1-1 1-2 1v1h-1-1l-1 1c-2 0-2 1-3 3l-1 2-1 1c-2 1-3 2-4 5l-1 3h-4v3l1 3-1 2-2-3-1-4-3 1c-2 1-3 3-3 6 1 2 1 4-1 7l-1 2-3 4c-1 2-3 3-5 3l-2 1-2 1-4 1-7 1c-3 0-5 0-8 2l-3 2-4 1-3 3-3 3c-3 2-4 2-5 6v4l-1 1-2 2 1 6v3l1 2 1 1 1 2-1 3-1 3 3 8 3 5 1 3 1 5v3l1 3v4l2 3a15 15 0 012 6l1 5v4l-6 3c0 3 2 4 4 5v1l2 2 2 1 5 2h6l2-2 1-2h2l1-1 1-2 2-2h7l3 1 5-1h1c56-35 104-81 141-135-1-3-3-5-6-5zm-78-20h-2l-3 1c-1-1-4-1-4 1l1 1 1 1 2-1h2c2 0 3 0 3-3zm122-46v2l-1 1-1 1-2 1-1 1-1 1h-9l-2-1-2-1-1 2 1 2 1 1 3 1 2 2h2l8-2 1-1a485 485 0 005-11l-3 1zm6-7h-1l-3-2-1-1-1-1-4-2h-1l-1-1h-1l-1-1h-1-1v1h1v1l2 1 1 1h1l2 1 1 1h1l2 2 1 1 2 2h1l1-2v-1zm-18-13h-1v1h2l2 1h1v-1c-1-1-3-2-4-1zm-19 6h1v-1h9v-1h-10v2zm15 43h-2l-2-3-1-2-2-3h-1l-3-3v-3h6v-1c0-2-1-2-2-3l-2-1h-2l-4-2v-3l-2-1-3-2-1-2v-1l-2-1-1-1h-1l-1-1h-2l-2-1-1-1-2-1-2-1h-1l-4-1-3-1-8-4c-3 0-6 0-9-2l-1-1-2-1h-2l-1-1h-1c-2-1-3 0-4 2l-1 1-3 2c-2 0-4 0-3 4-1 1-2 2-5 2l-2-2-1-2-1-1h-2v-3-7-1l-1-1-3-1c-1 1-2 0-3-1l-3-1c-5 1-5 2-5 3h-1-1l-4 1v6h6l1 2 2 1h1l3 1h5l-2 1h-4c-1 2-3 2-3 2l-1 1c0 2 1 2 2 3l2 2v1c0 2 1 3 2 3 1 1 2-1 2-2l2-2 1 1h1l2 1 1 1v1l1 1h1l2 1 2 1 4 1h2l4 2 1 1 2 1 3 2 1 4 1 1v4l-1 1-3 1v1l-1 1v1l-2 1 1 2h6l3 1 2-1h2c2 0 3 1 5 3l4 3h5l2 1 3 1 2-1 2-3 1-2 1-3 2-2c1-2 2-1 3-1l1 1h2l1 1 1 1 1 1 3 2c2 2 5 3 6 6 1 2 1 3 3 3l1 1 5 3 5-10c-1-2-2-2-3-2zm-74-45l1-1c0-1 0-2-2-2h-1-1l-2-1v2l2 2h3zm-3-6h1v-1c-1-1-2-3-4-3l-2 1 4 3h1zm-31-6v1l2-1v-1l-3-2-2 1v1l-1 1-1 1 1 1h1l1-1 2-1zm10 39h1l2-3v-1l-3 1-1 1v2h1zm7 0v4l2 2h1l1-2 1-2h1l2-1-2-5h-1-1c-2 1-4 2-4 4zm-23-21l-1-1h-3l-4-1-5 2c-2 1-1 3 0 5v2l2-2 2-1h4l6 1h3v-3c-1-2-2-2-4-2zm-1-6l1 2h1l1-1v-2l-2-1-1 2zm-17-9l3 1 1-1h1l1 1 1-1-2-4 1-3h4l-1-3v-3-2l-1-1h-1l-1 1-1-2 1-1h2l2-2v-2h-1c-2 0-5 3-6 4-3 3-2 6-1 9l1 5-2 2-1 2zm3 4h-1l-1 1v1l2 2 2-1-2-2v-1zm-7 12h-2v-2l-1 1-1 1v2l1 1v2l2 1 2-1c2 0 3-1 3-2v-2l-4-1zm-13-7h2l3-1h1l3 1v1l1 1v-1l1-2-5-2-5 1-2 1 1 1zm45 37l1-2-1-1c0-1 0-1 0 0l-4 4-1 2-1 2v1h1a24 24 0 015-6zm-50 21h1l2-2 2-3 1-1h2l1-1 1-1 6-3 3-1 3-1 3-3h1l1-1 1-1-1-1-5 2-2 1-1-1-1 1h-1v-1-1l2-1 1-1h-1-4c-1 0-2 1-2 3l-1 1c-1 2-4 6-6 5l-2 2h-1l-1 1c-1 0-2 0-2 2v4 2zm-2-1h-1l-2 1v2l1 1h1l2-3-1-1zm3-13h3c2 0 5 1 6-2-1-2-6-2-7-2h-2l-2 1-1-1-2-1-2 2-1 1h-7l-3-1-8 2v1h1l1 1 1 1h4l3 1a47 47 0 006 0l4-1 1-1 2-1h3zm-29 8h2l4 2 1 1 3 1 1-1v-1c0-2-1-3-2-3l-2-1h-1l-1-1-2-1-3 1v3zm-18-6l1 1 1-1h1l2 1 2 1h1l2-1 4-1h2l2-1-1-2-2-1h-1l-2-1h-2l-1 2-1 1h-2l-2-1v-1l-1-1c-2 0-3 2-4 3l1 2zm-16-4l1-1h1c1 2 3 3 5 3 3 0 6-2 8-5h-4-1v-2h1-1l-4 2v-1-1h-1-2l-4-2-3-2h5l4-1v-1h-3l-4-1-6-1h-2l-2 1-1-1-1-1-4 1-5 2-6-2-1-1-1-1-3-1h-2l-2-1-2-2-1 1c-3 1-7 5-7 7v1h2l1 1 2 1h1l1 1 1 1 8 1h4l1-1 4 1 4 1h3v1h12v2h3l1 1zm-80-35v1h1v-1h-1zm1-3h-1-1 2zm-3-3l-1-1h-1v4l2-2v-1zm-5-8v-1l-1-1-1 3 1 5h1l1-1-1-5zm-5-5v1l1 1h1v-1l-1-1h-1zm-3-8h-1l-2-4h-1v2c2 1 3 3 3 5l1 1 1-1v-1l-1-2zm-11-13l-1 1h1-1a15 15 0 004 2l-1-1-2-2zm59 55v-9c1-3 1-6-1-9l2 1c0 1 1 2 3 2l1-4v-3c-2-3-4-4-6-3h-1v4c-1 2-2 2-3 1a10 10 0 01-2-7s0-2-2-3h-1l-2 1c0-5-2-10-4-12l-2-1h-2l-1-2-1-2-7-2h-1v-1-1l-3-2-1-1-1-1v-2l-2-2h-1l-4-4-3-3-3-4-3-1h-5l-2-1-4-1-2 2 2 5c3 0 8 5 11 7l3 6a34 34 0 003 5l2 3 2 1 2 2c1 4 1 4 4 6l1 1v3l1 5 3 4 1 1 2 3c5 8 15 21 22 21 2 0 4-1 5-3zm92-40l5 1 1 1h2l4 1h1l1-1 1 1 1 1c4-1 6-4 8-7l3-4 1-1h-1l-6 4c-3 2-5 4-9 2h-4l-1-3-4 1h-2l-1-1c-6 4-8 12-9 19v2l-1 4-1 2-2 2c0 2 1 2 3 3s3 2 2 4v1l-1 1 1 2-2 6 1 1 2-1v1c0 2 1 2 2 2 2 1 3 1 3 4-1 0-1 0 0 0l1-1c1-2 1-3-1-5l1-1c-2-4-3-15-1-19 2-1 4 0 4 2v1l-1 1c-1 2 1 5 3 7l2 2v3h2c1 1 2 1 1 3h1l2-1 1 1c1-2 3-6 1-9 0-2-1-3-3-3v-1-1h-1v-2c-1-2-1-4-4-5v-1-1h-2c0-2 1-2 2-3 1 0 2 0 3-2 3 2 5 2 8 1l-1-2-1-1v-2-1l-5 2h-1l-1-1c-3 0-6 3-8 5v-1l-1-2c-2 1-3-1-3-3l-1 1h-1c0-4 3-8 6-9zm-68 13c3 0 3 2 3 6l1 6 1-1 1 1h3l4-1h1c1 2 2 3 5 3h9l1 1v1-1 1l1 1 2 2 2-1 3-1h2c3-1 2-3 2-4l-1-3 2-8 3-6c2-2 4-5 5-9h5l1-1h1v-3h-1l-4-3c-2-5-4-13-3-16l4-4 4-3 1-2-3-1-2-1-4-3-2-4c-2 0-4 2-6 4h-1l-4 2-3 3v1c1 2-9 9-14 13l-3 2-2 1-3 3h-1l-1 2v3l-2 1-3-1-3-2-2 1c-3 2-3 7-2 12v4h1l2-1v6zm58-83l-1 3-4 6-1 2-4 5-1 1h1v-1l1 1v-1-1l1 1 4-4h1c4 0 6-6 8-11l3-8h1l1 1h1l1-1c0-2 2-3 3-3v-2l-1-5v-1l1 1 2 1 2 1h3l2-1c-2 4 1 6 4 8l3 3v1l1-1 1-1c1 1 2 4 1 7s-3 5-5 6v-2l-1-4-1 1h-1l-1-2-1-1v-2l-1-2-5-3h-1-1v7c-1 0-1 0 0 0h2v5l2 1 2-1h1l1-1 1 1-3 3c-1 1-2 3-1 5v1l6 1 1-1v-1a20 20 0 01-2-2v-1h2l1 1v1h3c0-2 1-3 2-3l2 1h1l2-1c1 4-5 7-9 9l-3 1-3-3v1l-3 3c-2 3-5 6-5 8l3 1h1c0-1 0-2 2-3l3-1 5 1 1 6v4l2 1h2l1-1 2 2h1c1-3 0-6-1-8l3-2v2l2 2c2-5 1-10 0-14s-2-8-1-12h-2l-2 1v-1a29 29 0 011-9c0-3 1-5-1-7l-5-1-3-1-1-5-4-2-4-2-2 1-2 1-2-5c-1-3 1-6 2-8 2-3 3-5 3-8l-1-2-1-1v-1l1-3c-1-2-4-4-6-4l-1 1c-3 0-4 3-4 5l-1 3v8l-1 1v-1h-1v1h-1l1 4 1 5 3 5 2 2-3 1-1-1h-1v1l2 2 2 3-4 4c-3 2-5 4-6 8zm16-97v-1c-3-2-13 11-12 13l1 1 1 3v3l4 5v1h3v-1l-2-1c-1-2 1-7 3-12 1-5 3-9 2-11zm-247 114l-5-8-3 6h1c-2 3-3 9-2 13 0 4 1 6 3 6l1-1h5c4-4 5-7 2-13l-2-3zm-934-8h-3l-1-3v-2-1-2l1-1 1 2 1 1 1 6z" class="fil0"/><path d="M2331 345c-30 17-63 35-99 52a44 44 0 00-79 37c-123 55-271 112-440 168a7717 7717 0 01-363 110 44 44 0 00-68-6 5516 5516 0 01-399-225c-76-49-143-96-196-139 2-6 3-11 3-17a44 44 0 00-67-38 804 804 0 01-33-34 532 532 0 01817-23l19 21 19-21a534 534 0 01853 74 25 25 0 0043-26 582 582 0 00-222-210c115-12 212-14 283-6 50 6 88 17 111 31a44 44 0 0024 62c-11 54-81 119-206 190zM1269 734a6184 6184 0 01-418 92l-71 12c-143 21-263 29-348 23l-14-1a44 44 0 00-80-16c-27-10-43-23-48-39-11-37 33-109 136-182 5 72 23 142 54 207a25 25 0 1045-21 530 530 0 0148-534 802 802 0 0033 32 44 44 0 0063 55 2240 2240 0 00260 179 4032 4032 0 00340 189l6 3-6 1zM535 133c14-30 76-53 174-50-58 34-109 79-151 130-24-33-32-61-23-80zm1822 728c51 42 100 84 128 119 35 44 29 68 20 84-20 37-75 51-163 43a44 44 0 00-77-12c-31-6-65-14-101-24 80-53 147-125 193-210zm195-792c-7 0-14 2-20 5-26-20-69-33-127-39-82-9-197-5-332 11a585 585 0 00-647 131A584 584 0 00754 58c-53-5-102-3-142 4-53 11-88 31-101 60-14 30-4 68 29 113a580 580 0 00-115 356c-52 35-95 73-124 110-33 43-46 81-37 112 7 25 30 44 66 57a44 44 0 0085 17 522 522 0 0079 3 2002 2002 0 00361-37 4097 4097 0 00320-67l101-26a44 44 0 0068 7l6 3a6766 6766 0 00714 299 529 529 0 01-619-133l-19-21-19 21a534 534 0 01-821-27 25 25 0 10-39 31 580 580 0 00879 50 583 583 0 00706 100c46 13 87 24 124 31a44 44 0 0087 13 506 506 0 00101-3c41-8 70-26 85-53 26-45-1-87-23-115-28-37-75-77-137-127a580 580 0 0026-445 25 25 0 00-47 17 530 530 0 01-249 643c-102-31-222-76-359-134a7724 7724 0 01-378-171l-5-3-6-3 6-1a6681 6681 0 00811-282 44 44 0 0071-33c39-19 74-37 106-55 78-45 136-88 173-128 27-30 42-58 47-85a44 44 0 00-13-87zM230 1849v-185c0-45-24-87-71-87-46 0-73 42-73 87v185H0v-346h79l7 42c18-35 58-48 91-48 41 0 82 17 102 65 31-49 71-63 116-63 98 0 146 60 146 164v186h-85v-186c0-46-19-84-65-84-47 0-75 40-75 85v185h-86zm613-345l-64 151-35 96-33-98-53-149h-99l138 340-48 111h94l194-451h-94zm1142 173c0 100-68 180-180 180-113 0-180-80-180-180 0-99 69-180 179-180s181 81 181 180zm-274 0c0 53 31 102 94 102 62 0 94-49 94-102 0-52-37-102-94-102-62 0-94 50-94 102zm401-173l7 40c26-43 62-49 97-49 36 0 70 14 89 33l-38 74a86 86 0 00-62-23c-45 0-86 24-86 88v182h-86v-345h79zm300 345h-82v-490h82v490zm419-490v490h-79l-6-47c-27 41-70 55-112 55-101 0-178-67-178-181 0-119 75-181 176-181 37 0 94 20 114 56v-192h85zm-289 317c0 61 43 102 98 102 54 0 100-39 100-102 0-60-46-101-100-101-55 0-98 39-98 101zm-974-321l-113 356-123-356h-61l-120 356-117-356H930l181 494h79l60-154 52-158 52 156 62 156h79l177-494h-104z" class="fil0"/></g></g></svg>
