<svg xmlns="http://www.w3.org/2000/svg" viewBox="0 0 800 600"><path fill="#CCDEF7" d="M799.9 1.3v299.3c-1.8 1.8-4.1 2-6.5 2H752c-2 0-4-.1-5.8-1.2-1.7-1.2-2-3-2.1-4.8-.7-14.5-2.6-28.9-3.7-43.3a643 643 0 00-6.1-33.7 49.4 49.4 0 01-1-15.8c.8-16.1 1.6-32.1 1.8-48.2 0-5 1.1-9.9 1.2-14.9a8.6 8.6 0 013.4-6.4c4.8-3.9 6.1-8.8 4.4-14.7l-.5-1.5c.7-5.1-2.7-8.3-5.4-11.8-.3-.5-.4-1-.5-1.5-.2-1.1-.5-2.3-.3-3.4 1.8-9.8.5-19.4-1.6-29a9 9 0 011.6-4.1c2.9-5 2.4-9.7-1.9-13.8a36.8 36.8 0 00-23.7-11c-11.8-2.4-23-.2-33.9 4.5-6.8 2.9-12.5 7-14.8 14.4-.6 1.9-2 3.4-3.2 5a37.8 37.8 0 00-3.8 41.2c1 2.1 2.3 4.1 1.7 6.6l-.3 1c-5.6 11.1-4.7 14 6.5 19.9 3.1 1.7 4.8 4.1 4.9 7.5.2 15.7.6 31.5-.2 47.2-3.3 17.3-8.5 34.1-11.2 51.5-.6 3.8-1.3 7.5-1.8 11.3-.9 12.5-3 24.9-2.7 37.5.1 3.6-.1 7.3-2.8 10.2a9.6 9.6 0 01-5.7 1.3h-38.4c-1.8 0-3.7-.1-5.3-1-.6-.4-1.1-.8-1.4-1.4-1.2-2.3-1.1-4.8-1.1-7.3V9.3c0-2.8-.4-5.7 1.7-8 1.6-.8 3.3-.4 4.9-.4h190.4c1.3-.1 3-.5 4.6.4z"/><path fill="#FEE6DF" d="M458 599.9h-58c-2.5-2.6-2-5.9-2-9V390.5v-81.8c0-2.8-.3-5.7 1.5-8.2a6.6 6.6 0 015-1.9c11.6-.1 23.2-.5 34.8.2 8-.6 16 .3 24-1 4.8 1.2 9.6.6 14.4.7 11.8.2 23.6-.4 35.4.3 10.9-.5 21.8-.6 32.7 0 5.5-.5 10.9-.5 16.4 0 10.9-.7 21.9-.3 32.8-.3 1.9 0 3.6.5 5 1.9h.1c2.6 2.8 1.9 6.2 1.9 9.5v281.9c0 2.8.3 5.7-2 8h-56a5.6 5.6 0 01-1.7-4c-.1-15.5-2.6-30.8-3.7-46.2 3.2-12.9-.3-25.1-3.5-37.4-.8-3-1.9-6-1.5-9.2-.1-3.2-1-6.6 1-9.6 2-1.8 2.6 1.3 4.2 1.2a19.2 19.2 0 00-.5-22.5c-1-1.3-2.1-2.5-2.7-4.1a166 166 0 01.2-22.3c.2-2.8 1.7-5 4.1-6.4 2.5-1.5 4.4-3.5 4.8-6.5l.3-1.5c.2-.7.6-1.4 1-2 4-4.6 4.7-10.8 8-16-3.7-3.1-8.3-2.6-12.2-4.2-4.6-1.1-4.7-4.7-4.4-8.3.5-5.8 1-11.5-.1-17.3-.8-4.2-2-8.4-3.1-12.5-.6-3 .4-5.9.4-8.9.1-4.9-1.7-7.2-6.4-6.7-10.7 1.2-21.2-.6-31.9-.3-20.4.5-32.8 11.2-35.4 31.2a17 17 0 01-4.1 9.4 28.1 28.1 0 00-7.4 24.8c1.4 7.8.3 15.6-3.4 22.8a26.6 26.6 0 001.1 27.5 52 52 0 013.2 6.2c1.9 4.4 2.2 8.6-1.9 12.1 4.4 1.6 10.5-6.9 13.1 2.4l.1.2.3-.1a4 4 0 01.8-1.9c.7-.7 1.5-1.1 2.6-.8 1.9 1.5 2.5 3.7 3.5 5.7-1.7 7.7-4.6 15.1-6.6 22.8-1.2 4.5-2.4 8.9-3.4 13.5-.9 4.2-.3 7.4 4.1 9.1 1.7 2.6 1.2 5.5.8 8.2a385 385 0 00-3.1 42.9c-.2 3.1-.1 6.3-2.6 8.8z"/><path fill="#F0F1F8" d="M600 599.9V300.6l50.1-.1c5.4-3.4 11.3-1.5 17-1.5 15.2-.5 30.4-.6 45.6 0 7.3-.5 14.7-.6 22 0 3.8-.2 7.7-1.3 11.1 1.6l54.1.1.1 295.3c0 3.4-.7 4.2-4.1 4.1-8.7-.3-17.3-.1-26-.1-1.7-1.7-1.7-3.9-1.4-6.1 1.7-15.9.8-31.4-5.7-46.4-4-9.3-5.6-19.5-7.8-29.3-.9-3.8-.4-7.2 1.8-10.5 7.2-10.7 7.7-22 3.2-33.8a67.8 67.8 0 01-4.5-17.3c-.5-5.7-2.6-11-5.6-15.9a13.4 13.4 0 01-2.5-8.4c-.3-3.1-.1-6.2-.8-9.3-1.9-8.2-3.4-8.9-10.4-4.4-4.3 4.3-8.9 3.9-14 1.2-4.9-2.7-10.5-3.2-15.9-4.2a50.5 50.5 0 00-31.2 6.4c-5.2 3-9.4 3.7-13.9-.7l-.4-.3c-3.5-2.1-7.4-4.3-11.2-1.9-3.6 2.3-3.2 6.7-2.4 10.5a41.2 41.2 0 01-2.1 24.7 58.9 58.9 0 001.9 50.2 7 7 0 01-.1 7.1c-8.2 13.5-9.7 28.8-11.2 44-1.3 12.9-2 25.8-2.2 38.7 0 2-.2 4-1.7 5.5l-31.8.1z"/><path fill="#E0DCEB" d="M400 300.6v299.3h-40c-.9-1-1.7-2.2-1.7-3.5-.3-13.9-2.4-27.7-3.1-41.6l.2-1c-1.2-14.2-4.5-27.9-7.5-41.8-.6-2.7-1.5-5.4-1.5-8.2-1.1-24.3.7-48.7-.6-73-.2-3.7.1-7.6 4.3-9.2 9.3-3.5 8.9-15.2 2.5-20.4l-.7-1.3c0-3.3-3.4-3.9-4.8-6.1-1.4-4-.9-8.2-.8-12.3a65 65 0 00-4.4-24.7 39.7 39.7 0 00-31.4-23.4c-5.7-.3-11.5-1.3-17.2.7a42.6 42.6 0 00-30.4 41.2v16.9c0 2.3.1 4.7-1.4 6.7-1.3 1.1-2.8 1.8-4.2 2.6-7.9 4.8-8.1 14.5 0 18.8 4.8 2.5 6.1 5.5 5.8 10.7-.6 10.8.5 21.6.5 32.4 0 8.9-.7 17.9-.9 26.9.3 6.1-2.2 11.7-3.7 17.4a383.9 383.9 0 00-8.3 41.4c-.2 1.6-.4 3.3 0 4.9.3 9.1-1.3 18.1-2 27.2-.3 4.1-.5 8.2-.6 12.4-.1 2.3-.1 4.7-1.9 6.5h-46c-2.5-2.6-2-5.9-2-9V398.2v-88.7c0-2.6-.3-5.3.9-7.9.3-.6.7-1.1 1.2-1.5a7.4 7.4 0 014.3-1.2c15.1 0 30.3-.5 45.4.2 6.1-.5 12.2-.6 18.3 0 14.9-.5 29.8-.6 44.7 0 8.3-.5 16.6-.6 25 0 4.1-.5 8.3-.5 12.4 0 15-.7 29.9-.2 44.9-.3 1.5 0 3 .3 4.3 1.2l.4.6z"/><path fill="#FEE6DF" d="M.1 300.6V1.3C1.5.4 3 .8 4.5.8h191.7c1.3 0 2.7-.2 4 .3 2.4 2.4 1.9 5.6 1.9 8.5v282c0 3.1.5 6.4-2 9-1.7 1.7-3.8 2-6 2-10.5.1-21 .1-31.5 0-1.8 0-3.7-.2-5.3-1.2-1.6-1.2-2-3.1-2-4.9.1-14.1-1.7-28-2.8-42a421 421 0 00-8.6-44.5c-1.6-6-1.8-12.1-1.6-18.3-.3-22-.1-44.1-.1-66.1a9 9 0 015-8.5c7.4-4.3 8.8-10.4 4.4-18-.3-.6-.8-1.2-.7-1.8.3-5.4-2.4-8.6-7.3-10.1-1.6-2.5-1.4-5.4-1.2-8.2a59 59 0 00-5.2-29.3c-.5-12.3-3.6-15.7-16.8-18.9a37 37 0 00-9.4-.9c-8.6.6-17.3-.4-25.9 1.3-3.9.8-7.9 1.5-11.5 3.1-3.9 1.7-6.8 4.2-6.6 8.9 0 1.5-.3 3-1.4 4.1-4.8 4.5-5.3 10.4-5.6 16.5-.4 7.3 1.2 14.5 1 21.8-.1 2.3.2 4.6-.4 6.9-.6 2.5-2.6 3.7-4.6 5-8.1 5.4-7.7 15.1 1 19.5 3.6 1.8 6 3.9 6 8.2 0 20.9.2 41.8-.1 62.7 0 .8-.2 1.6-.4 2.4a594.7 594.7 0 00-13.6 60.2 8.7 8.7 0 00-.4 3.9v1.7c-1.9 13-2.2 26-3.4 39-.2 2.3-.2 4.7-2.4 6.3-2 1.1-4.1 1.1-6.3 1.1H7.1c-2.5.1-5.1 0-7-1.9z"/><path fill="#F0F1F8" d="M157 300.5h43v299.3h-37c-1.8-1.8-2-4.2-1.9-6.5.4-13.3-1.2-26.4-3.5-39.5a239.3 239.3 0 00-9.7-39.9c-1.1-3.3-2.4-6.5-2.6-10.1-.8-10.1-.2-20.3-.3-30.4V439c0-3-.1-6 1.8-8.6 4-2.3 4.9-6.3 5.3-10.4.6-1.2 1.5-2.2 2.2-3.3 4.6-6.8 3.4-13.2-3.8-17.3-3.8-2.2-5.4-5-5.3-9.3v-16.9a41.9 41.9 0 00-16.1-32.8c-1.9-1.6-4.1-2.9-5.1-5.3-.8-2-.3-4.3-1.2-6.7a24.3 24.3 0 00-17.6 0c-4.2 1.7-9.1 1.6-13.6 2.8-17.4 4.4-29.6 18.7-28.8 34.6.3 5.8.6 11.6 1.4 17.3.5 3.8.7 7.6.2 11.4-.6 2.6-2.7 3.5-4.8 4.6-6.4 3.4-8.3 8.5-5.6 15.3.9 2.3 1.2 4.8 2.2 7a36.6 36.6 0 019.3 18.5c1.1 12.5.2 25.1.5 37.6.1 4.9.5 9.9-1.1 14.7-.4 3.3-1.5 6.4-2.6 9.5a346.4 346.4 0 00-14.6 50.1c.1 7-1.9 13.7-2.7 20.6-.8 7.1-1.1 14.2-1.2 21.3 0 2.2 0 4.3-1.7 6-12.7 0-25.3-.2-38 .1-3.4.1-4.1-.7-4.1-4.1l.1-295.1 43.1-.1c3.9-3.2 8.4-1.5 12.7-1.9 1.8-.2 3.6.2 5.4.3 16.9-.5 33.8-.6 50.7 0 10.6-.5 21.3-.6 31.9 0 4.4-.1 9-1.5 13.1 1.6z"/><path fill="#7E6035" d="M631.9 599.9c.5-24.9.9-49.7 7-74.1 1.6-6.3 6.7-11.9 7.4-17.5.7-5.3-5.1-11.4-6.4-17.8a62.7 62.7 0 013.6-37.1c3.3-7.8 3.8-15 2.1-22.9-1.1-4.9-1.9-11.1 2.7-13.8 5.1-3.1 10.9.2 15 3.8 3.5 3 5.7 2.7 9.4.5 10.5-6.3 22-8.9 34.3-6.9-.5 1-1.6 1.1-2.5 1.6 7.5 8.5 11 18.7 12 29.8.7 7.7-1.4 9.9-7.9 9.1-1.3-.2-2.6.4-3.9.7A13.2 13.2 0 00694 467c-.7 5.1.7 9.6 4.9 12.8 1.9 1.5 4.1 2.2 6.4 2.5 1.8.2 3.7.1 5.1 1.7 1 3.4.2 6.9.5 9.8.3-2.9-.6-6.4.5-9.8.3-.4.7-.9 1.2-.9 8-.4 13.1-4.9 16.3-11.8 3.4-1.3 4 1.5 4.8 3.5 2.4 6.2 2.5 12.6.9 19.1-1.6 6-4.1 11.6-7.7 16.6a16.4 16.4 0 00-3 11.7c1.1 10.9 2.4 21.8 5.1 32.4 2.9 11.3 4.1 22.8 3.8 34.5-.2 6.5 0 6.4 6.2 7.7 1.9.4 4.5 0 5 2.9-37.4.2-74.7.2-112.1.2z"/><path fill="#6F5131" d="M743.9 599.9l-13.6-2.7c3.3-21.4-4-41.8-7-62.8-1.5-10.4-2.5-20.3 5-30A29.6 29.6 0 00732 475c-.5-1.3-.2-3.8-2.9-2.8-1.7-1.2-1.6-3.1-1.9-4.9-1.2-8-4.7-11-12.9-11.4-3.5-.2-7.3 1.2-10.3-1.8.9-.3 1.8-.8 2.8-.9 8.8-.7 9.5-1.9 7.9-10.8a48.3 48.3 0 00-13.5-27.8l6-.4c5.9 0 11.5 1.6 16.6 4.3 4.9 2.6 8.6 2.8 12.2-1.7-1.6 5.4 2.2 7.6 6 9.9 2.4 1.4 4.5 3.3 7.1 4.5 0 3.1 1 5.7 2.6 8.4a46.1 46.1 0 016.5 21.1c.4 7.9 5.6 14.4 6.4 22.3 1 9.7-1 18.4-6.5 26.3a8 8 0 00-1.4 6.8c2.7 13.4 6.3 26.6 11.2 39.5 4.5 11.8 3.7 24.4 2.8 36.9l-.5 7.4h-26.3z"/><path fill="#001221" d="M249.1 553.2c-1.2-7.3 1.1-14.2 2.5-21.1 2.9-13.9 6.4-27.8 9.6-41.6 1.4-1.7 3.3-1.4 5-1.1 16.7 2.8 33.4 4.7 50.1 7.5 1.6.4 3.2.7 2.8 2.9-1.2 2.8-1.2 5.8-1.2 8.8v83c0 2.9.4 6-2 8.5h-53c-1.4-1.5-1.1-3.3-1-5.2.1-10.9.7-21.7 2-32.6.6-5-.2-5.7-5.1-6.3-3.3-.5-6.9-.3-9.7-2.8z"/><path fill="#A7C2E5" d="M46.2 551c3.2-17.8 9.1-34.8 15.1-51.7.7-2 1.2-4.1 1.8-6.2 1.7-1.4 3.8-1 5.7-.7 13.2 2.1 26.5 3.7 39.7 5.9 2.7.5 5.6.8 7.4 3.4 1 1.8 1 3.8 1 5.8v85.3c0 2.5 0 5-2 7h-51c-2-2-1.8-4.5-1.9-7-.2-10.8 1.3-21.4 3-32.1.9-5.4.8-5.4-4.7-6.1-3-.4-5.9-.8-8.9-.9-1.9 0-4.1-.3-5.2-2.7z"/><path fill="#F2C403" d="M462.1 540.2c-5.3.3-6.5-1.9-5.4-7.2 2.7-13.3 6.3-26.3 11.4-38.9v-.7c.5-1.2 1.1-2.2 2.6-1 .5.8.7 1.8.6 3.1 1.9-1.7 2.6-4.2 4.9-5 2.5-.3 4.7.4 6.9 1.4 1.2.6 1.7 1.9 2.6 2.8 1.6-.2 2.6-1.6 4.2-1.5 7.6 1.1 14.9 3 22.3 4.7 1.3.6 2.7 1.1 3.6 2.2.9 1.4 1.6 2.9 2 4.5 2.3 10.4 5.2 20.5 7.3 30.9 1.3 6.8 0 12.9-4.2 18.3a13.4 13.4 0 00-3 9.2v29.8c0 2.5.1 5-1.8 7h-43c-2-2-1.8-4.5-1.9-7-.4-13.1 1.1-26.1 2.5-39.1l.5-4.4c.3-5.8.3-5.9-5.6-6.6-2.5-.2-4.5-1.4-6.5-2.5z"/><path fill="#83A1C3" d="M115.1 599.9l.1-98.7.6-.7c1.3-.9 2.8-.9 4.3-.7 7.2 1 14.4 1.8 21.6 2.9 2 .3 3.9.8 5.3 2.5a224.7 224.7 0 0112.1 47.6c-1.3 1.8-3.3 2.2-5.3 2.5-3.8.5-4.8 2.7-4.8 6.2v30.9c0 2.6.2 5.4-1.9 7.5h-32z"/><path fill="#00070C" d="M316 599.9v-95.4c0-2.3-1-5.3 3.1-5.4 1.5-1.7 3.5-1.7 5.5-1.4a620 620 0 0119 2.7c1.8.3 3.5.9 4.3 2.8l8.5 43.4c.4 2.1.3 4.3.5 6.4-7 2.5-7.3 8-7.1 14.3.4 8.6.1 17.2.1 25.7 0 2.5 0 5-1.9 7l-32-.1z"/><path fill="#CDA202" d="M516 599.9V561c0-1.8-.6-3.9.9-5.3 10.1-9 6.7-19.7 4-30.5-2.1-8.3-4-16.7-5.9-25.1 4.8-2.3 16.1-.5 19.8 3.1 2 10 5.2 19.7 6.5 29.8.8 5.6.7 10.8-1.4 15.9-.6 1.2-.5 2.8-1.4 3.7-7.5 7.6-4.6 17-4.2 25.8.2 5.9.6 11.9.3 17.8a5.7 5.7 0 01-1.6 3.5c-5.7.2-11.4.2-17 .2z"/><path fill="#E5C8C4" d="M46.2 551c5.7.7 11.5 1.7 17.2 1.9 4.3.1 5.1 1.7 4.3 5.5-3 13.7-4.1 27.5-3.7 41.5H42c-1.2-16.5 2.1-32.7 4.2-48.9z"/><path fill="#D5AF9A" d="M462.1 540.2c15 .7 14.8.7 13.2 15a289.9 289.9 0 00-2.3 44.7h-15l4.1-59.7z"/><path fill="#E2BCB5" d="M249.1 553.2l18 1.8c-3 15.2-2.6 30.1-4 44.9h-17c-.7-15.7 2.1-31.2 3-46.7z"/><path fill="#FEFEFE" d="M200.1 1.3H.1C.5-.8 2.2.4 3.1.4h793.8c.9 0 2.6-1.2 3 .9H600c-2 1.9-4.5 2-7 2H404.6l-4.5-.3-6 .3H208.6c-3 0-6.1.4-8.5-2z"/><path fill="#D5ABAA" d="M147.1 599.9c0-12.5.6-25.1-.2-37.6-.5-7.3 2.7-9.1 8.7-9.3l3.5-.2c3.8 15.5 4.4 31.2 4 47.1h-16z"/><path fill="#E2BCB5" d="M348 599.9v-45.7l8.9-1.2c.9 15.7 3.6 31.2 3.1 47l-12-.1z"/><path fill="#D5AF9A" d="M533 599.9c-.3-11.2 0-22.5-1.2-33.6-.9-8.1 3.9-12.3 8.2-17.3 2.2 16.9 4.5 33.8 4.1 50.9H533z"/><path fill="#FEEACF" d="M400 1.3h200v299.3l-38.1-.1a9.1 9.1 0 01-2.4-6.4c-.5-9.3-2.2-18.4-3-27.6a350.6 350.6 0 00-12.8-48.3c-.5-2.1-.5-4.3-.5-6.4 0-19.9.1-39.8-.1-59.8 0-5.4 1.3-9.3 6.7-12 7.2-3.7 7.3-14.7.1-18.4-5.7-2.8-6.9-6.8-6.7-12.4.3-10.6.8-21.3-4.4-31.1 1.2-12.3-9.1-16.2-16.5-21.9-2.5-2-5-5.2-9-4.5-3.5.6-6.9-.4-10.5-.2a54.2 54.2 0 00-30 13.6c-9.6 7.8-12 19.2-10.5 31.3.6 5.3.6 10.6 1.4 15.9.4 2.3.3 4.7-1.6 6.5-1.2.9-2.6 1.4-4 2-4.2 1.9-6.6 5.3-6.5 9.7 0 4.2 2.1 8 6.1 9.5 5.5 2 6.5 5.8 6.4 10.9l-.1 50.2c0 2 0 4-.5 5.9-4 13.5-9.2 26.6-12.9 40.2-1.7 6.2-3.7 12.4-3.6 18.9a229 229 0 00-4.1 27.2c-.2 2.7-.5 5.3-2.7 7.1h-40-.1c-2.6-2.8-2-6.2-2-9.5V64.5 9.1c-.1-2.6-.4-5.5 1.9-7.8z"/><path fill="#D77E3C" d="M712.9 300.4h-45.8c-2.3-2-2.1-4.8-2-7.4.7-10.2.9-20.5 2.3-30.7.7-5 .2-5.6-4.9-6.5-3.1-.5-6.4-.2-8.6-3.2 1.9-18.9 7.1-37.1 11.5-55.5l1.6-6.2c1-1.1 2.4-1.2 3.7-.9 13.5 2.8 27.2 4.5 40.6 7.8 1.1.6 2.1 1.4 2.6 2.6 1.1 2.4.9 4.9.9 7.4v84.1c.1 3 .6 6.1-1.9 8.5z"/><path fill="#E2BCB5" d="M710.9 198.9l-43.8-8-.2-47.1c0-2.7 0-5-3.4-6.3-13-4.9-15-12.6-6.3-23.7 5.9-5.2 10.7-2.2 13 8.2.6-2.6-.2-5.4 2.4-7 2.9-.8 5.7-.7 8.6-.1 1.8.8 2.4 2.6 3.4 4.1a14.4 14.4 0 0019.7 4.2c3.3-2.1 5.1-5.1 4.6-9.2-.2-1.6-.8-3.3.4-4.8 3.4-2.3 7-3.6 11.1-1.7 3.6 5.8 3.7 12.6 5.1 19l.6 3.9c.7 6.6-.7 9.4-6.9 11.3-4.2 1.3-5.3 3.5-5.3 7.5.1 14.2.2 28.4 0 42.6-.2 2.7.8 6-3 7.1z"/><path fill="#95714F" d="M672 116v12.5c-6.2-5-.9-19.8-14.9-14.7-10.7-17-7.5-31.8 2.3-49.8 8.8-16.1 22.2-19.6 37.1-23.3 5.4-1.3 10.3 1.5 15.4 1.4 1.6 1.2 3.7 1.2 5.5 2 3 1.3 1 4.9 3.4 6.2 2.9 1.6 3.9 4.3 4.3 7.4 1.2 8-.4 11.5-7.4 15.4a9 9 0 01-2.3.3c-8.7-.6-16.9-3.4-25.4-4.8-2.1-.3-4.3-.7-6.4-.4-6.4.9-8.8 4.3-6.7 10.3 2.2 6.1 2.1 12 .4 18.1-1.5 5.6-2.4 11.3-3.4 17-.2 1.2-1 1.8-1.9 2.4z"/><path fill="#B8652B" d="M712.9 300.4V199.9c.5-.7 1.2-1.3 2-1.3 6.3.1 12.4 1.1 18.3 3.3.8.3 1.1 1.2 1.5 1.9-.6 15 5.1 29.1 6.5 43.9l.4 4.9c-4.9 3.1-5.2 7.8-5 13 .2 9.1.1 18.3 0 27.4 0 2.6.2 5.4-2 7.4h-21.7z"/><path fill="#D0A6A2" d="M734.9 203.8c-7.2-2-14.5-3.3-21.9-4a20 20 0 01-2.1-1c1.7-1.6 1.1-3.7 1.1-5.7v-47.3c0-3.4.6-5 4.5-5.3 10.4-.7 7.8-8.4 7.5-14.7 1-1.1 2.4-1 3.7-.8 6 .6 11.1-.8 14.8-5.9.6-.7 1.3-1.6 2.5-1.1 3.5 7.7 2.4 12.9-4.4 17.7a5.7 5.7 0 00-2.6 4.9l-2 55.2-1.1 8z"/><path fill="#E2BCB5" d="M653.9 252.7c3.8.6 7.5 1.7 11.3 1.7 5.3-.1 4.9 2.8 4.4 6.4a262.6 262.6 0 00-2.6 39.6h-17c1.2-15.9 1.1-31.9 3.9-47.7z"/><path fill="#D0A6A2" d="M715.9 72.2l2.1-.3a69.7 69.7 0 0118.8-.9c4 11.4 3.2 23.1 2 34.9-6.1 0-12.3-.4-18.3 1.6-1.1-.4-2.1-.9-2.7-2a19.1 19.1 0 01-1.6-7.8c-.2-7-.2-13.9-1.3-20.9-.2-1.5-.4-3.3 1-4.6zM734.8 300.4c0-12.9.4-25.8 0-38.6-.2-5.6.8-9.1 7.1-9.2 2.1 15.9 4 31.8 4 47.9l-11.1-.1z"/><path fill="#775940" d="M736.8 71c-6.1 3-12.5 1.9-18.8.9 7.9-7.1 7.1-12.7 1.1-21.8-2.2-3.3-4.7-5.4-7.2-8 12 .3 25 8.5 28.2 17.2 1.9 5 .6 8.6-3.3 11.7z"/><path fill="#EBD5D3" d="M720.8 107.2c5.7-4.7 11.8-4 18-1.3l.3.2c1.3 4 3.7 7.4 5.9 11l-.1 1.1c-4.5 8.1-10.6 10.4-20.9 7.8l-4-17.8c0-.5.3-.8.8-1z"/><path fill="#E5EEFB" d="M744.9 117c-4.2-2.5-7.2-5.5-5.9-11 3.9 2.7 6.6 6 5.9 11z"/><path fill="#775626" d="M488.7 494.2l-4 5.2-1.4-6.3c-1.8-1-1.9-3.2-3.2-4.9-1.9.4-2.3 2.6-3.9 3.2L470 500v-7.7c-1.3-1.4-.8-2.8-.2-4.1-1.2 1.7-.5 4.2-1.8 6l.1-.1c-3.2-.2-2.1-3.2-3.2-4.8-.5-.4-.2-1.1-.6-1.6-.1 1-.8 1.6-1.2 2.5l-.2 2.9c-.3.7-.8 1.2-1.6.9l-3.3-6c-6.3 4.1-9 4.3-15.5 1 2.9-1.4 7.1-.5 7.5-4.9a14 14 0 00-2.6-8.9c-7.6-11.7-9-23.5-1.6-36 3.5-6 3.2-12.9 1.8-19.4-2.1-9.7 1.2-17.7 7.5-24.6 2.4-2.6 3.7-5.2 4-8.7a33.9 33.9 0 0134.1-32.9c8.3-.4 16.6-.8 24.9 1 2.6.5 4.9-.4 7.3-.9 8.6-1.7 12 1.5 10.9 10.1-.3 2.3-.8 4.5-1.2 6.8-.4 5.3-3.8 8.5-7.5 11.5a99 99 0 01-5.2 3.8 35.6 35.6 0 01-16.7 6c-9.1.4-13.9 5.4-15.8 13.8-.2 1-.5 1.9-1 2.8-2.3 3-6.5 2.2-9.4 4.7 1.2 5 4.8 9.3 5.1 14.7-8.2 12-6.2 23.3 2.4 34.2 4.7 5.9 8.8 12.1 7.7 20.3-.8 4.4-1.7 8.9-6 11.8z"/><path fill="#F8F8F8" d="M446 265.5c-.3-1.4-1.2-2.9-.9-4.2 4.3-18.3 9.9-36.1 16.9-53.6 1.8-1.7 4-1.4 6.1-1.1 13.1 2.2 26.3 3.7 39.4 5.6 2.6.4 5.3.7 7.1 3 2.1 4.4 1.5 9.2 1 13.7-1.3 11.8-.6 23.5-.8 35.3v28.9c0 2.6.1 5.4-2 7.5h-45.2c-1.8 0-4.2.9-4.9-2-2.6-2.6-1.8-5.9-1.5-9 .4-4.8 1.4-9.5 2.1-14.3.9-6.4.9-6-5.2-7.1-3.9-.7-8.5.6-12.1-2.7z"/><path fill="#DBDBDB" d="M513 300.6l.9-85.6.5-.7c1.5-1 3.1-.9 4.8-.8 6.9.6 13.7 1.9 20.6 2.7 2.1.2 3.8 1 5.2 2.6 6.7 15 9.8 31 13 46.9-1.1 2.3-3.3 2.8-5.4 2.8-3.5.1-4.6 1.9-4.6 5.1v19.9c0 2.5.2 5-1.8 7l-33.2.1z"/><path fill="#C39885" d="M534.8 503.3l-19.8-3.1-3-1c2.2-12.7.8-25.5 1.1-38.3.1-4.7.4-9.3 1.1-13.9.4-2.9 1.8-5.2 4.9-5.4 5.5-.4 7.9-3.5 8.1-8.7.7-1.2 1.8-1.3 3-1 4.9 1.5 9.7 1.3 14.4-.9.5-.2 1 .1 1.4.3.4 3.8-.6 7.4-4.2 8.7-4.3 1.5-4.7 4.5-4.8 8.1l-.2 20.2a51.2 51.2 0 01-1 24.9c-1.8 3.2-.2 6.8-1 10.1z"/><path fill="#E5C8C4" d="M446 265.5l20.6 1.5c-1.2 10.8-4.2 21-3.7 31.6-3 3.6-7 1.7-10.6 1.9-4.1.3-8.2.1-12.3 0 1.3-10.1 2.7-20.1 3.9-30.2.3-1.8.7-3.5 2.1-4.8z"/><path fill="#C39885" d="M522 384.4c5.2-3.8 9.9-8.2 13-14a51 51 0 014.6 26.4c-.2 3.9-3.7 9.4 3.5 11.3-.6 1.2-1.8 1.6-2.9 1.5a30 30 0 00-16.6 3.6c-1.6-.1-2.9-.4-3-2.3a61 61 0 000-17.6c-.5-3.1-.7-6.2 1.4-8.9z"/><path fill="#D5ACAB" d="M546 300.5c0-8.7.2-17.5-.2-26.2-.3-5.5 1-8.6 7.2-7.7 1.5.2 3.2-.6 4.8-.9l3.9 34.8H546z"/><path fill="#443024" d="M523.9 412.1c5.7-4.7 12.5-4.1 19.2-3.9l13.7 2.6c-3.6 6.7-5.5 13.7-9.8 19.5l-.9 1.1a16.3 16.3 0 01-18.1.9c-1.4.2-1.7-.8-1.9-1.7.4-3.9 2.8-2.4 4.7-1.5 5.3 2.6 10 1.7 14.1-2.5.8-1.2 1.5-2.5 1.9-4 1.8-6-.7-9.3-8.2-10.7-4.7-.3-8.6 2.8-13.1 3.3-1.7-.6-2.5-1.5-1.6-3.1z"/><path fill="#583E2C" d="M535.8 493.2c-.5-8.3-.3-16.7 1-24.9 8.5 9.5 9.1 19.8 1.7 31-1.9-1.6-1.7-4.1-2.7-6.1z"/><path fill="#A98C6B" d="M463.1 490.2l1-4.1.7.1v3.1l-1.7.9z"/><path fill="#A0825E" d="M461.3 494l1.6-.9.2 3.6-1.8-2.7z"/><path fill="#C39885" d="M546.1 431.3l.9-1.1-.9 1.1z"/><path fill="#674D2B" d="M748.8 431.3c-.8.6-1.3 1.8-2.8.7-4.4-3.4-8.9-6.5-13.6-9.9l3.3-5.2c7.3-5.5 10.4-4.6 12 4.1.8 3.4.8 6.9 1.1 10.3z"/><path fill="#D0EDEB" d="M400 1.3v299.3l-50.2-.1c-2.4-2.7-2.3-6.1-2.5-9.4a463.5 463.5 0 00-9.7-64.1c-.6-3.2-1.5-6.4-1.1-9.8-.8-9.6 1.2-19 .9-28.6l.2-5.4c.7-5.3.4-10.7 1.1-16 1.9-6.3.3-13 2.3-19.3.7-1.7 2.2-2.1 3.8-2.6 4.4-1.4 7.2-4.2 8-8.8 2.3-5.4 3.9-11.1 7.6-16.4-5-2.2-9.6-2.7-14.1-3.5-1.8-.3-3.7-.1-5-1.7a17.1 17.1 0 01-.9-10.2c1.3-8.5-.1-16.5-3.5-24.2l-.6-2.4c0-2.7 1.7-4.6 2.8-6.8 3.8-8 1.1-14.3-7.2-17.4-5-1.8-10.1-2-15.3-2.1-4.2.3-8.2.6-11.7 3.4-2.3 1.8-5.1.9-7.7.7-10-.5-19.5.9-28.5 5.6-3.9 2-6.8 4.7-7 9.5-.1 2.6-1.7 4.7-3.6 6.3-3.8 3.3-4.5 7.4-4 12.2.9 8.3 2.3 16.4 3.9 24.6.5 2.6 1.2 5.2 0 7.8-.8 1.5-2.4 2.2-3.8 3-4.3 2.6-5.8 6.6-5.2 11.4.6 4.8 3.4 7.7 8 8.9 1.9.5 4 .6 5.2 2.5a50.6 50.6 0 012.6 18.1c-.1 12.9.8 25.7.2 38.5-.6 1.8.1 3.7-.4 5.5-1.2 10.3-2.2 20.6-4.5 30.9a339.9 339.9 0 00-7.3 54.1 8 8 0 01-2.4 5.8l-50.3.2V1.5c66.6-.2 133.3-.2 199.9-.2z"/><path fill="#E2BCB5" d="M316 498l-54.8-7.7.3-63.8c0-2.2-.8-2.8-2.6-3.3-6.3-1.9-10-6.3-9.6-12.8.4-6.9 4.5-11.2 11.6-12.1 3.4 2.9.7 7.4 2.6 10.8 3.7 1.1 5.7 0 5.7-4.1 0-2.3-.1-4.7 2-6.4 3.4-1.7 6.9-1.1 10.4-.7 1.2 0 2.3.2 3.2 1 .1 4.1-1.5 7.9-1.1 12.1.3 3.1 1.5 4.4 4.6 4.4h18.4c2.8 0 4.4-1.1 4.3-4.1v-5c0-2.9-1.4-4-4.3-4.2-4.1-.2-8.3.6-12.4-.5-1.2-1-1.2-2-.1-3 1-.7 2.1-1.1 3.3-1.1 9.9-.3 19.9-.3 29.8 0 1 0 2 .4 2.8.9.9.6 1.2 1.3.8 2.3-2.4 4-1.1 8.3-.8 12.5.1 1.9 1.9 2 3.4 2.1 3 .2 5.9 0 8.9.2 2.1.1 4.4-.2 5.7 2.1-1 2.3-3.1 2.3-5 2.5-2.2.2-4.3.1-6.5.1-6.1.1-6.2.1-6.8 6.3-.5 5.1-2.8 9-7.6 10.8-3.5 1.3-4.3 3.5-4.3 6.8V490c0 2.8.4 5.8-1.9 8z"/><path fill="#7BA95A" d="M262.9 209.6l.4-4.7c1.7-1.1 3.5-.8 5.3-.5l36.8 5.8c2.3.4 4.6.8 6.5 2.3 2.7 3 2.1 6.6 2.1 10.1 0 1.8-.6 3.5 0 5.3.3 9.6.1 19.2.1 28.8 0 10.8-.1 21.5.8 32.3.3 3.8 1.2 8-1.8 11.4h-45c-2.7-2.8-1.9-6.2-1.6-9.5 1.9-19.9 4.8-39.6 9.3-59 1.5-6.3.2-8-6.2-9.1-7.1-1.2-7.1-1.2-7.1-8.3.1-1.6-.3-3.3.4-4.9z"/><path fill="#D0A6A2" d="M316 498v-56.2c0-3.2 0-5.3 4.4-5.9 5.5-.7 8.2-4.9 7.5-10.5-.8-6 1.6-7.8 7.4-7.3 4.2.3 8.6 1.2 12.7-.8 2.7-2.4 3.2-5.4 3.2-8.8 0-2.8-.7-6 1.8-8.3 5.7 2.6 6.4 7.6 6 13-.4 5.1-3.5 8.4-8 9.7-3 .9-3.5 2.3-3.4 4.9l.3 59.8.1 15.3-28.8-4c-1.1-.2-2.2-.5-3.2-.9z"/><path fill="#639344" d="M313 300.4c-1-24.3-1.3-48.5-.9-72.8a37 37 0 003.4-9.3c1-4.8 2.9-6 7.8-5.3 3.4.5 6.9 1.1 10.2 1.8 1.8.4 3.6.9 4.3 2.9l1 9.1c1.9 21.9.9 43.8 1.1 65.7 0 2.8.4 5.7-2 8l-24.9-.1z"/><path fill="#8DBC71" d="M262.9 209.6c.1 1.2.3 2.3.1 3.5-.7 5.2.2 8 6.8 7.9 7.8-.1 9.7 3.4 7.9 10.8-5.2 22.6-9 45.3-9.8 68.5h-17.7c1.4-26 5.4-51.7 11.3-77.1 1.2-4.3 1-9 1.4-13.6z"/><path fill="#332619" d="M271.1 399.5v11.7h-10.3v-12.9c.7-10.4-.5-20.9 1-31.3a42.6 42.6 0 0131.2-34.3c11.3.7 19.8 6.6 26.7 15.1 1.3 1.7 3.2 3.8.2 5.8-2.9 1.1-5.9.8-8.9.7-9.2-.2-18.3.9-27.4 1.8-3.2.3-4.9 1.6-4.7 5 .2 4.2-1.2 7.8-4.1 10.9-1.6 1.7-1.8 3.8-1.9 6-.2 5.5.3 11-.4 16.4a6 6 0 01-1.4 5.1z"/><path fill="#D0A6A2" d="M342.9 355.3c6.5 12.3 4.7 25.8 5.1 38.9a3.4 3.4 0 01-2.9 1.7c-7.4.4-14.8 1.2-22.1-.6-1.7-1.1-1.3-2.3.1-3 3.2-1.5 3-4.3 3.1-7.1.2-9.6.4-19.1-4.1-28a5 5 0 01-.4-3.8c1.2-1.6 3-1.9 4.8-1.8 5.7.4 11.6-.1 16.4 3.7z"/><path fill="#537D3A" d="M338 300.4V232c0-1.8-.5-3.7.9-5.2 6.1 24.2 9.4 48.8 10.8 73.7l-11.7-.1z"/><path fill="#231910" d="M342.9 355.3c-6.9-.9-13.8-2.6-20.8-2.1-.5-.1-.8-.3-1.1-.7a36.6 36.6 0 00-21.6-17.1c-2.2-.6-4.2-1.8-6.3-2.7 18.6-6.2 43.7 5.2 49.8 22.6z"/><path fill="#EBD5D3" d="M353 400.3c0 4.1-.2 8.2.1 12.2.3 4-1.3 5.4-5.1 4.9-5.3 0-10.6-.2-15.9 0-3.3.1-4.8-1.3-4.1-4.3.9-4.2-2.7-9.1 2.1-12.6 1.2.6 1.7 2 3.3 2.3 2.2-.8 1.5-4.5 4.4-4.8 5.1-.3 10.3-1.8 15.1 1.4l.1.9z"/><path d="M353 399.4l-16.8.3c-1.8 1.4-3.6 1.4-5.4-.1H294a6.9 6.9 0 01-4.6 1.5c-1.1-.2-2.2-.1-3.2-.4-.5-.2-.9-.5-1.3-.9l-3-.2c-2.3-2.5-1.8-4.5 1-6.2 7.8-1.6 15.8-.5 23.6-.8h10.4c1.8.1 3.6.2 5 1.8h26l5 .3.1 4.7z"/><path fill="#B80310" d="M112.1 300.4l-50.9.1c-2.1-1.9-2-4.4-2-6.9 0-10.1 1.1-20.1 2.2-30.1.7-6.3.7-6.2-5.5-7.3-3-.5-6.4-.2-8.8-2.8-.8-.5-.7-1.2-.3-1.9 2.8-19.5 7.9-38.5 12.4-57.6.3-1.2 1.1-2.3 1.7-3.4 1.6-1.3 3.4-1 5.2-.6 10.3 1.9 20.6 3.4 31 4.6 6.1.7 9.8 3.3 12.1 8.7 1 2.3 1.8 4.6 3.2 6.7.9 1.6 1.6 3.3 1.8 5.1-.5 25.6-.1 51.2-.2 76.7 0 3.2.6 6.3-1.9 8.7z"/><path fill="#E5C8C4" d="M111.2 210.7c-3.4-12.9-13.4-15-24.8-15.9-8.5-.7-16.9-2.7-25.4-4.1 0-21.9-.1-43.8.1-65.6 0-3.4-.9-5.1-4.2-6-5.6-1.5-8.4-5.8-8.8-11.4A11.5 11.5 0 0156 95.3c1.7-.7 2.9-1.5 3.2-3.4 2.9 1 2.2 3.6 2.5 5.8.3 2.3-.4 4.9 1.6 7.3 3.5-3.4.5-8.4 3.6-11.5 7.3-2.6 10.3-.9 11.5 6.4 1.4 8.2 1.4 8.2 9.6 8.2 5.8 0 11.6-.2 17.4 0 4.4.1 6-1.8 6-5.8 0-2.8-.2-5.7 2.3-7.8 2.5-1.4 5.2-.8 7.8-.9 3.3-.1 4.8 1.7 5.1 4.8.2 2.5 0 4.9-.6 7.4v4.3c1.1 5.5 0 10.9-.7 16.3-.4 3.4-3.1 5.5-6.1 6.8-4.3 1.9-5.6 5-5.4 9.5.7 18.6-.3 37.2.2 55.8.1 2.7.1 5.3-.3 8-.1 1.7 0 3.9-2.5 4.2z"/><path fill="#8B0313" d="M112.1 300.4v-79.6c0-2.3.6-4.6 1-6.8.1-5.9 3.1-10.7 5.7-15.7.3-.6.7-1.2 1.3-1.5a41.8 41.8 0 0123.8-4.6c.3 19.8 8 38.3 9.7 57.8l.3 3.4c-.3.4-.5 1-1 1.1-7.1 1.3-7.1 6.3-6.9 11.9.3 8.9.1 17.8 0 26.8 0 2.6.2 5.4-2.1 7.4-10.6-.2-21.2-.2-31.8-.2z"/><path fill="#D5ABAA" d="M143.8 192.2c-1.6.3-3.2.8-4.9.9-14 .5-22.5 7.6-25.9 20.9l-1.9-3.3c1.6-4.6.9-9.4.9-14.2v-57.6c0-2.3.4-4 2.7-5.4 9-5.3 12.2-13.6 9.4-23.7 1.7-1.7 3.9-1.6 6.1-1.7 4.1-.1 8.3-.2 12.4 0 4.4.3 6.9-1.3 7.5-5.8.2-1.6.5-3.3 2-4.4 6.7 7.6 4.7 17.4-4.6 20.9-3.3 1.2-3.5 3.2-3.5 6.1l-.2 67.3z"/><path fill="#D77F3C" d="M67.2 94c0 3.3-.2 6.6-.1 9.9 0 2.2-.6 3.3-3.1 3.3-2.3 0-3.7-.4-3.9-3.2-.2-4.1.6-8.2-.9-12.2.5-12.2-2.8-24.4-.2-36.7.7-3.4 1.6-6.8 5-8.8.5-.3 1.3-.9 1.3-1.3-1.4-14.2 10.1-13.6 18.5-15.6 9.2-2.2 18.8-1.6 28.3-1.2 5.1 6.2 6 11.3 2.8 16.6l-1.5.7c-9.1.9-18.3.1-27.4 1.5-1.3.2-2.7.1-4 .2-6.8.8-7.1 1-7.1 8 0 4.6-.6 8.9-4.1 12.4-1.8 1.8-1.9 4.2-1.9 6.5-.2 5 .3 10-.4 14.9.3 1.9.1 3.6-1.3 5z"/><path fill="#2C2C2C" d="M67.2 94v-4.9a41 41 0 0118.2-3.8c9.9 0 19.9-1.3 29.7 1.6 3 .9 6.3.3 9.3-1.1 6.7-.7 13.4-2.2 19.8 1 9-.8 8 5.6 8 11.2-.9 12.1-.9 12.1-13.1 12.1l-14.9-.2v-3.6c1.9-2 4.5-1.9 6.9-2h5c9.6 0 9.6 0 9.4-9.7-.7-.9-1.6-.9-2.6-.7-2.9.1-5.8.2-8.8-.2-1.9.2-3.8.4-5.7.1-4.7 1.7-9.7 0-14.5 1.3l-.3.9c-1.3 14.1-1.3 14.1-15.6 14.2-4.5 0-9-.1-13.5.1-5.1.3-7.9-1.5-7.7-7.1.1-2.8-.5-5.6-.9-9.1l-8.7-.1z"/><path fill="#D5ABAA" d="M144.1 86.8l-20 .4c-2-1.5-1.8-3.8-1.9-5.9-.1-3.8-.2-7.6 0-11.4.4-7-1.7-13.3-5.1-19.3-1.1-2-2.8-3.8-2.1-6.3l-.1-.4c8.3-2.3 15.9-.9 22.8 4.1 7.9 12 6.2 25.6 6.4 38.8z"/><path fill="#E5C8C4" d="M47.2 253.6c17 .9 16.8.9 15.2 17.7a191 191 0 00-1.2 29.3h-18c.7-15.8 1.1-31.5 4-47z"/><path fill="#D5ABAA" d="M143.9 300.5v-45.7l9.9-1.4c2.3 15.6 3.6 31.3 3.2 47.2l-13.1-.1z"/><path fill="#B9652B" d="M137.9 48c-7.4-2.3-15-3.7-22.8-4.1 2-5.8-2.1-10.4-2.9-15.6a34 34 0 0121.3 6.2c4.7 3.5 6.6 7.8 4.4 13.5z"/><path fill="#E5C8C4" d="M46.9 251.7l.3 1.9c-1.1-.5-1-1.1-.3-1.9zM115.1 501.2l-51.9-8.1c1.8-18.3.2-36.7.8-55 1.2-4.1-.6-7.7-1.7-11.4 0-1.5-.2-3-2.1-3.3-1.7-.7-3.6-1.1-4.4-3-.2.7-.2 1.5-1 1.8-1.2-3.2-2.4-6.4-3.4-9.6-1.8-6 1.5-12.7 7.4-15 1.8-.7 3.9-1 4.4-3.4 3.1.2 4.3 4.2 7.6 3.9.9-.8.7-1.7.5-2.5a48 48 0 011-23.2c1-3.9 1.7-7.9 0-11.7-5.4-12.2 2.6-21.6 12.4-24.5a32.6 32.6 0 0123.4.8c11.9 9.1 16 21.8 15.8 36-.1 8 1.9 15.4 4.5 22.8 2 5.6 3.9 11.3 3.5 17.5-.3 5.4-1.7 7.4-6.9 9-8.6 2.7-8 1.9-8.1 10.9-.1 19.9 0 39.9 0 59.8 0 2.8.4 5.7-1.8 8v.2z"/><path fill="#D5ABAA" d="M115.2 501.1c0-24.5.1-49.1-.2-73.6-.1-5.3 3.5-5.8 6.7-6 9-.6 10.2-6.6 8.2-12.8a237.2 237.2 0 01-9.6-49.4c-.9-8.8-6.7-15.7-13.2-21.6.8-1.1 2.1-1.2 3.1-.8a13.5 13.5 0 0014.7-2.4c3.4 2.9 7.1 5.5 10.1 8.8 8 9 12.6 19.4 12.2 31.7v11.5c-.2 5.5-.3 9.8 6.3 13 8.3 3.9 7.5 15-.5 21-1.4 0-2.9-.1-2.5 2.1-1.1 1.3-2.3 2.5-1.5 4.4.3 1.2 0 2.4.2 3.6-2.4 1.5-1.9 4-1.9 6.2l-.2 68.6c-10.8-1.6-21.4-3-31.9-4.3z"/><path fill="#4A3A28" d="M124.9 334.4c-2.7 5.7-6.8 7.3-12.6 4.4-1.5-.8-3.5-.7-5.2-1.1-11.8-2.2-23.5-3.6-32.3 7.4-2.6 3.2-3.9 7.1-2.1 10.7 3.4 7 2.7 13.7.6 20.7-2.5 8.5-.8 17 1.4 26.7-4.7-3.4-10-3.5-11.4-8.9-.6-8.3-1-16.6-1.9-24.8a37.4 37.4 0 0129.7-39.7c4.9-1.1 9.7-3.3 15.4-1.8l-.8-3.4c3.5-.9 6.2 1.2 9.4 2.2a40 40 0 011-3.7c2.8.3 3.1 3 4.8 4.5l2.3-3.3c3.3 2.9 2.1 6.6 1.7 10.1z"/><path fill="#222" d="M63.2 426.3c1.8 3.8 5.3 7.6.8 11.9l-2.4.3c4.1-8.1-4.7-10.7-6.7-16.1v-2.9l5.9 3c1.4.8 2.7 1.8 2.4 3.8z"/><path fill="#2C2B2B" d="M150 422.2c0-2.2-4-2.2-2.6-5.2 2.7-.4 3.8 1.9 5.5 3.3.8 4.1.5 7.9-3.8 10.1-3.2-.1-1.7-1.6-.9-2.9 0-2 .8-3.7 1.8-5.3z"/><path fill="#402A19" d="M703.9 454.1l7.4.1c14.1 0 17.2 3.2 17.7 18-1.9 8.9-6 11.8-17 12-.7.5-1.4.5-2.1 0-7.3.4-13.8-1.3-16.6-8.9-2.5-6.8-1.5-13.4 4.4-18.5 1.8-1.5 3.8-2.6 6.2-2.7z"/><path fill="#715332" d="M679.9 542.5c4.8 10 7.7 20.1 5.9 31-.8 5-7.4 7.5-13.1 4.6-7.5-3.9-11.4-10.8-14.1-18.5 3.8 3.9 5.3 9.3 9.5 13 3.7 3.2 7.2 7.1 12.6 4.3 5.7-2.9 4.5-8.4 3.9-13.2-.7-6.1-2.5-12-4.7-17.7-.4-.9-1.4-2 0-3.5z"/><path fill="#5B4225" d="M709.8 484.2h2.1v15.9h-2.1v-15.9z"/><path fill="#4E3620" d="M682.6 466.5c-.4 1.1-1 2.2-2.4 2-1.2-.2-2-1.2-1.9-2.5.1-1.1 1-1.7 2.1-1.7 1.3.1 2.2.8 2.2 2.2z"/><path fill="#472F1C" d="M737.1 468.6c-1.1-.4-2.2-.9-1.9-2.3.2-1.2 1.1-2.2 2.4-1.8.7.2 1.6 1.3 1.7 2 0 1.2-.9 2-2.2 2.1z"/><path fill="#D5AF9A" d="M526.9 430.3l1.1 2c1.4 8.3 0 10.2-8.6 10.9-3 .2-3.2 1.7-3.5 4.2-1.8 14.7-.5 29.5-.9 44.2-.1 2.9.5 6.1-3 7.7l-23.3-5c6.9-11.2 5.2-21.4-3.1-31.4-6.7-8-11-17-6.8-27.9 1.1-2.9 2.1-5.9 5.1-7.6 2.1 0 3.1 1.8 4.5 2.8 6.8 5 20.6 4.1 23-8.6 1.4-7.3 7.3-9.2 13.4-4.5 1.7 4.2 2.2 8.6 2.1 13.2z"/><path fill="#D3AD96" d="M476.1 491.4l3-7.4c2.7 2.9 4.3 5.6 4.1 9.1l-7.1-1.7z"/><path fill="#F5DCCD" d="M467.9 494.2a8 8 0 011.6-7.1c1.2 1.8.5 3.5.4 5.2l-2 1.9z"/><path fill="#E5C8C4" d="M513.9 215l-51.8-7.3v-59.3c0-3 0-4.9-4-5.9-6.2-1.5-9.1-6.8-8.8-12.9.3-6.7 5.3-10.9 12.7-11.6 3 1.9 2 5.7 4.1 9.3.3-9.3.2-17.6.1-25.8 0-5.4.2-10.6 4.5-14.7 1.6-1.5 1.2-3.6 1-5.6-.6-5.5.5-7.1 6.1-8.1 8.3-1.5 16.8-2.2 25.3-1.8 4.9.2 10-1.2 14.6 1.5 3 3.3 3.4 7.5 4.1 11.6a322 322 0 014.3 48c0 3.8.8 7.6.9 11.4.2 6.4-1.3 9.1-7.4 11.4-3.3 1.2-3.5 3.4-3.5 6.2v45.3c0 2.8.4 5.7-1.9 8-.2 0-.3.3-.3.3z"/><path fill="#D5ABAA" d="M514 214.7v-60.3c11.3-2.1 11.6-3.6 10.4-15.3-1.2-11.8-1.2-23.8-2.3-35.7-1-10.2-2.1-20.4-5.2-30.2.3-.5.7-.8 1.2-1.1 7.5-1.2 14.4.2 20.9 4 6.7 9.3 6.3 20 6 30.6-.2 5.9-.9 11.4 6.9 13.9 5.2 1.7 5.7 7.4 4.9 12.4-.7 4.5-3.1 8.4-7.7 9.5-3.7.9-4.2 2.8-4.2 6v70.2l-30.9-4z"/><path fill="#B8946D" d="M518 72.9l-1.1.3c-13.3-.4-26.5-.4-39.8 1.7-4.1.7-5.2 2.2-3.9 5.8 1.3 3.5.9 6.5-2.4 8.7-2.4 1.6-2.8 3.8-2.8 6.5v30.9c0 1.9.4 4.3-2.8 4.1-2.9-.1-2.1-2.4-2.3-4l-1.1-8.9c-.6-9.9-2-19.8-1.6-29.6.5-12.1 5.1-22.5 16.6-28.5 8.1-4.2 15.6-9.8 25.4-10.1 4-.1 7.8 1.1 11.8.7 4.6 4.3 4.8 10.6 7.1 15.9 1.2 2.6-.8 4.9-3.1 6.5z"/><path fill="#96714F" d="M518 72.9c-1.5-2.7 3.5-3.6 2-6-2.8-4.4-2.2-10.2-6.1-14-1.1-1-.2-1.7.1-2.6 4.1-1.2 6.1 2.4 8.4 4.2 6.2 4.7 13.5 8.1 17.3 15.8 1.3 2.7-.2 3.9-.6 5.7-7.1-.8-13.9-3.4-21.1-3.1z"/><path fill="#F4E0DD" d="M708.9 110.1c3.1 4.4 2.2 8.5-1 12.3-4.3 5-10.3 5.6-16.1 4.2-5.1-1.2-9.4-4.3-9.9-10.4a5 5 0 00-.7-1.7 3 3 0 01-.3-1.3l.1-1.5c3-10.6 19.5-11.2 25.3-6.4 1.3 1.1 2.5 2.2 2.6 4 .1.2 0 .5 0 .8z"/><path fill="#433E3D" d="M720.8 107.2l-.8 1c-4-1-7.4 1.1-11 1.9 1.4-5.1 4.7-6.4 10-4l1.8 1.1z"/><path fill="#3F3C3B" d="M682.9 114.9l-.9 1.3-10-.1 1-1.9c.2-.4.5-.6.9-.7 1-.1 2 0 3-.2h1.2c1 .2 1.9.1 2.9.1.4.1.7.3 1 .6v.2l.9.7z"/><path fill="#E2BCB5" d="M678 114.2h-1.1c-1 .4-1.9.4-2.9 0l-1-.1c-1-7.3 2.1-13.8 3.5-20.7.9-4.3 1.4-8.6-.6-12.6-5.7-11.5 2.9-15.5 11.8-14.4 6.7.9 13.3 2.7 20 4.1l8.2 1.7c2.9 11.1 1.3 22.6 3 33.8-3.7.6-7.8-.1-10 4-4.2-6.4-10.6-6.9-17.1-5.6-5 1-9.2 3.7-9.8 9.6l-1.1.3c-1 .3-2 .3-2.9-.1z"/><path fill="#45709F" d="M727.4 112.1c1.5.2 2.5 1.1 2.3 2.6-.2 1.5-1.2 2.4-2.8 2.2-1.3-.2-2-1.1-2-2.4 0-1.6.9-2.4 2.5-2.4z"/><path fill="#D5AF9A" d="M522 384.4l.9 22.2c.1 1.9.7 4.1-2.1 4.8-4.2 2.6-8.6 3.2-13.1.7-5-2.8-10.3-2.8-15.7-2.7-1.5 0-3 .2-4.1-1.1.4-10.9 6.1-17 16.9-18 6.2-.5 11.6-3.3 17.2-5.9z"/><path fill="#563D2A" d="M487.9 408.3c7.9-.9 15.3-.6 22.7 3.3 2.6 1.4 6.7-.1 10.2-.2l3.1.7c.2 1.4.9 2.2 2.3 2.3.2 1.6.2 3-2.1 2.7-5.4-1.1-10.7-3.3-11.7 6a12.6 12.6 0 01-11.2 11.1c-7 1-13.2-.2-17.2-6.8-2.8-3.9-3.5-8.8-6.4-12.6-1.3-1.7-1-4.1 2.3-4.5 2.6-.4 5.3-1.3 8-2z"/><path fill="#83A2C3" d="M490.8 248.5c2.7 2.9 11.2-5.4 11.2 5.5-.1 12.8-3.2 17.7-11.6 18.1-6.1.2-12.2-5-12.2-10.5-.1-13-.1-13 12.6-13.1z"/><path fill="#C29885" d="M524.1 417.1l2.1-2.7c3.7-3.3 8-4.5 12.9-3.9.2.2.6.5.6.8.1 6.1 1.9 11.6 6.3 16-4.5 5.4-9.8 6-16 3.3-.8-.4-1.7-2.9-3-.4a28 28 0 01-2.9-13.1z"/><path fill="#FCE4DD" d="M546 427.3c-8.3-3.1-7.9-9.8-6.9-16.8 10.1 1.2 12.9 7.9 6.9 16.8z"/><path fill="#231910" d="M257 122c-1.5-10.1-2.7-20.3-4.5-30.4-1.2-7-1.3-13.3 6.1-17 1.3-.6 1.6-1.6 1.3-2.8-1.2-6.6 3.1-9.9 8-12.2 10.1-4.7 20.7-7 31.9-5.3 2.2.3 3.6.6 5.5-1.5 3-3.5 7.5-2.7 11.7-2.4 5 6.3 3.8 18.2-2.6 25.3-1 .7-2.2.8-3.3 1.1-10.3.6-20.6 1.1-30.8 2.3-5.7.6-6.1.9-6.4 6.7-.2 3.3-1 6.2-3.6 8.4-2.6 2.3-3.4 5-2.9 8.5.8 4.8.7 9.6.1 14.4a14 14 0 00-.3 6.1c.2 1.3.1 2.6-.4 3.9-2.1 2.7-4.1 5.7-8.3 4.9-1.8-3.2-2.9-6.4-1.5-10z"/><path fill="#553C29" d="M259.2 131.9l6.8-4.9c2.9 2.1 2.6 5.2 2.7 8.1.2 5.5-.3 10.9.9 16.4.9 4.3 3.2 7.6 6.5 10.3 3.9 3.2 8.1 3.5 12.5 1.2 3.4-1.8 6.6-3.8 10.3-5.1 5.5-1.9 11-2 16 1.6 1.7 10.7 1.5 21.4-.1 32.1-.3 1.8-1.3 3.4-2.5 4.8-2.2 2.4-5.1 2.3-7.9 1.8a63.4 63.4 0 01-38.2-21.5c-3.1-3.4-2.2-7.8-3-11.8l-2.3-17.8c-2.5-4.9-4-9.8-1.7-15.2z"/><path fill="#896C4D" d="M263.2 164.9c5.5 18.1 26.8 32.2 47.9 31.8l.7.7c1.5 5.3 2.5 10.5-.8 15.5l-47.7-8-.1-40z"/><path fill="#77573E" d="M311 75.2l3-.2c8-1.5 15.8-1.9 23.2 2.2a50.7 50.7 0 014.8 31.6c-.2 1.9.1 3.9.1 5.9-.5 1-1.4 1.6-2.4 1.5-5.6-.6-10.5 2.1-15.7 3.4a3 3 0 01-1.6-.5c-3.1-3.6-3.8-8-4.2-12.4-.5-5.1-1.2-10.1-1.3-15.3 0-6-2.7-11.2-5.9-16.2z"/><path fill="#422E22" d="M311.1 196.7c5.3-12.2 2-25.1 3-37.7 1.3-2.1 3.4-2.3 5.5-2.4 3.6.6 6.2 2.9 9 5.1 4.3 3.4 5.5 3.1 8.6-1.6.7-1 .8-3.3 3.1-2 .3 3 .5 6-.1 9-.4 5.2.4 10.5-1.1 15.6a26 26 0 01-25 15.5 5.2 5.2 0 01-3.1-1.4l.1-.1z"/><path fill="#77573E" d="M311 196.9c11.6-.2 21.6-3.6 28-14l-1.2 34.9c-5.6-1.1-11.2-2.4-16.8-3.4-3.2-.6-4 1.8-3.9 4.3.1 4-1.6 6.9-5 9-.6-4.9 1.1-10-1.2-14.7l.1-16.1z"/><path fill="#130E0A" d="M337.3 77.3l-23.2-2.2c5.2-7.7 4.6-16.2 3-24.7 4.2-.5 8.3.1 12.4.9 12.4 2.4 16.4 10.7 10.5 22l-2.7 4z"/><path fill="#77573E" d="M339.1 158c-.5 3.1-.7 6.5-4.3 7.7-3.4 1.2-5.5-1.2-7.8-3.2-2.1-1.8-4.6-3.2-7-4.7.6-3.8 4.3-6 4.8-10 .3-2.4-.7-5 1.1-7.1 1.6-.7 2.9 0 4.2.7 7.5 4 14.3 2.2 20.6-2.8 1-.8 1.6-2.2 3.3-1.7-1.2 6.5-5.3 9.7-11.7 10-2.9 3.3-1.3 7.7-3.2 11.1z"/><path fill="#3D3D3D" d="M354 137c-7.6 9.2-16.7 10.5-27.8 3.8-1.3-.9-1.2-2.2-.7-3.5 1.7-1.6 3-.1 4.3.7 9.8 5.6 19.1 1.8 22.4-9.1 1.2-4.6-1.5-7-5.1-8.8-1.7-.9-3.7-1.3-5.6-1.5-5.3.8-10.9 1-15 5.2-.6.6-1.5.7-2.3.4-1.8-1.7-1.5-3.4-.1-5.1 5.4-4.1 11.9-4 18.2-4.2l17.1 2.4c3.7.5 3.5 3.8 2.1 5-4.7 3.9-4.5 10-7.5 14.7z"/><path fill="#896C4D" d="M259.2 131.9l1.7 15.3c-8.5-.3-13.4-4.2-14.1-11-.7-7.2 2.8-12.2 10.2-14.1l2.2 9.8z"/><path fill="#594738" d="M339.1 158c.6-3.8-1.9-8.5 3.1-11l-2 20.2c-1-3 .9-6.3-1.1-9.2z"/><path fill="#F4E0DD" d="M285 399.6h1c.8.5 1.8.2 2.5.9 1.6 3 3.8 2.8 6.3 1.1 5.2-2.4 10.8-.6 16.1-.9 2.1-.1 1.9 1.8 2 3.3 1.1 13.5 1.1 13.5-12.5 13.5h-6.5c-12.9 0-14.1-1.5-12.2-14.4.5-2.4 2.2-2.5 3.3-3.5z"/><path fill="#5A5A5A" d="M282.1 394.4a6.4 6.4 0 000 4.9l-10.9.2v-5.2c3.6-2.5 7.3-2.8 10.9.1z"/><path fill="#124F6D" d="M294.9 401.5c-.5 2.1-1.3 4-3.8 3.7-2.9-.3-3-2.6-3-4.8.1-.4.3-.6.7-.8l5.4-.1c.1.6.4 1.3.7 2z"/><path fill="#0E4C6B" d="M330.9 399.5l5.4.1c1.4 2.6.8 4.8-2 5.4-3.3.6-4.1-1.9-4-4.7l.6-.8z"/><path fill="#BDC8B7" d="M323.8 219.5c-.3 1.2-1.1 2.2-2.4 2.1-1.5-.1-2.5-1.1-2.2-2.7.2-1.2 1.2-2.1 2.5-1.9 1.3.3 2 1.2 2.1 2.5z"/><path fill="#E2BCB5" d="M282.1 394.4l-11-.2-.2-18.8v-.5c3.7-6 7.7-11.7 6.5-19.5-.2-1.1 2.5-.9 4-1.1 13.2-1.6 26.4-2.4 39.6-1.9l1.1.7c7.1 11.5 5.9 24.3 6 36.9 0 4.8-4.4 2.2-6 4.1l-40 .3zM288.7 399.6l-.7.8-2-.8h2.7z"/><path fill="#850418" d="M63 202.1c9.2 2.5 18.5 4.8 27.5 7.7 4.9 1.6 7.8 1.2 8.3-4.6.2-1.9.3-4.1 3.1-4.9 2.1 3.3 4.7 6.3 4.7 10.8l-5-8.7-3.5 11.2-35.5-10 .4-1.5z"/><path fill="#D4ABAA" d="M113.9 95c4.6-1.9 10 .1 14.3-2.9 1.1 1 1.2 2.6 2.6 3.4 1.9-.3 1.8-2.5 3-3.4l10.2.1c1 1 2 1 3 0 1.7 4.4-1 8.8.6 14.1h-23.5c2.2-11.1 2.2-11.1-10.2-11.3z"/><path fill="#570414" d="M119.1 212.5c.3-6 1.6-8.9 4.7-12.4 4.8 1.2 2 9.1 6.6 9 3.5-.1 6.9-3.4 10.9-4.3l-12.4 7.6c-2.9-2.9-2.1-7.3-5.3-10.1a392 392 0 01-4.5 10.2z"/><path fill="#CA6E84" d="M131 242.7c-2.2 1.9-3.8.4-4.8-1.3-1.4-2.3-1.6-4.6.9-6.5.4.1.8.4 1.2.7l.3.6c.2 1.7.3 3.4 1.7 4.7.5.5.7 1.1.7 1.8z"/><path fill="#D58299" d="M128 234.6c4.5-.6 5.6.8 4.4 6.2-.4.3-.8.4-1.2.3-1.2-1.7-2-3.7-3.2-5.4l-.1-.4.1-.7z"/><path fill="#D8869E" d="M131.3 240.7l1.1.1-1.4 1.9-.9-.8c.1-.7.5-1.2 1.2-1.2z"/><path fill="#E199B1" d="M128 234.6l-.1.7c-.3.1-.6-.1-.8-.4.3-.3.6-.3.9-.3z"/><path fill="#E5C8C4" d="M115.1 44.4c9.2 10.6 9.6 23.4 9 36.5-.1 2.1 0 4.3.1 6.4-3.7 3.7-8.1 1.8-12.1 1a89 89 0 00-34.1.1c-3.7.7-7.2.1-10.8.8l-.1-17.4c0-1.1 0-2.8.7-3.3 6.8-4.6 5.2-11.6 5.3-18.1 0-2-.3-4 2.8-4.3 13-1.3 26.1-2.7 39.2-1.7zM90 92.1h18.8V106H83.5c-.7 0-2-.6-2-1-.3-4-.6-8-.3-11.9.2-2 2.4-.9 3.8-.9 1 1 .5 2.9 2.2 3.5 2.1-.3 1.9-2.5 2.8-3.6z"/><path fill="#3C6B9B" d="M90 92.1c1 1.9 1.4 3.7-.6 5.3-1.3 1-2.9 1.1-4.1.1-1.9-1.5-1.5-3.5-.4-5.3l5.1-.1z"/><path fill="#3A699A" d="M133.9 92.1c.3 1.9 1 4-.9 5.4-1.1.8-2.6.8-3.7 0-2-1.5-1.2-3.5-1-5.4h5.6z"/><path fill="#FEE6DF" d="M147.1 92.1c-.2.8.3 2.1-1.1 2.1-1.3 0-1.9-.9-1.9-2.1h3z"/><path fill="#3E6C9C" d="M95.5 383.8c-.3 2.1-1.3 3.5-3.5 3.4-2.2-.1-3.2-1.5-3.1-3.7.1-1.9 1.1-3.1 3.1-3.1 2.3 0 3.2 1.4 3.5 3.4z"/><path fill="#2B2928" d="M67.1 418.5h-.5c-2.2-.6-5.2 1.2-6.3-2.1-.2-.5.2-1.6.5-1.7 2.7-.7 4.7.6 6.4 2.5.4.4.3.9-.1 1.3z"/><path fill="#A9A7A6" d="M63.4 406.6c-.7.7-1.1 1.3-1.6 1.4-1 .3-1.6-.4-1.5-1.3.1-.5.8-1.1 1.3-1.1.4-.1 1 .5 1.8 1z"/><path fill="#E7E1E5" d="M63.2 426.3l-2.4-3.9c2.4.3 4.2.9 2.4 3.9z"/><path fill="#635857" d="M67.1 418.5l.1-1.3c.3.3.8.7.8 1 0 .5-.4.9-.9.3z"/><path fill="#3C6A9A" d="M132.2 380.4c2.3.2 3.4 1.6 3.2 3.6-.2 2-1.5 3.4-3.6 3.1-1.8-.2-2.9-1.5-2.9-3.4.1-2.1 1.2-3.2 3.3-3.3z"/><path fill="#EFF0F7" d="M150 422.2c1 2.3.3 4-1.9 5.2-1.5-2.4-2.4-4.8 1.9-5.2z"/><path fill="#12506F" d="M493.8 119.3c-.1 2-1.4 3-3.2 3.2-1.8.1-3.3-.8-3.5-2.7-.2-2.2 1.4-3.3 3.3-3.4 1.9-.1 3.1 1.1 3.4 2.9z"/><path fill="#15506E" d="M532.2 122.6c-1.8-.2-3.2-.9-3.4-2.9-.1-2 1.1-3.1 2.9-3.3 1.8-.1 3.2.8 3.3 2.8.2 2-1.2 2.8-2.8 3.4z"/><path fill="#4E77A3" d="M692.2 114.5c-.2 1.4-.9 2.6-2.5 2.4-1.5-.1-2.3-1.3-2.2-2.7.1-1.2.9-2.1 2.3-2.1 1.6-.1 2.2.9 2.4 2.4z"/><path fill="#95714F" d="M682.9 114.9l-1-.7 1 .7zM678 114.2h2.9c-1 .9-2 .8-2.9 0zM674 114.2h2.9c-1 .8-1.9.9-2.9 0z"/><path fill="#D5AF9A" d="M487.3 412.5c3.9-2.5 8.2-2.6 12.5-1.8 6.1 1.1 10.7 4 10 11.2a12 12 0 01-13 10.3c-5.7-.5-10.1-3-11.9-8.8.7-3.7-.2-7.7 2.4-10.9z"/><path fill="#765628" d="M487.3 412.5c-.4 3.7.2 7.6-2.4 10.8-1.5-4.1-2.1-8 2.4-10.8z"/><path fill="#5C422F" d="M531.1 421.4c-2-.2-3-1.2-2.9-2.9.1-1.7 1.2-2.8 2.9-2.7 1.6.1 2.7 1.2 2.7 2.9-.1 1.7-1.2 2.5-2.7 2.7z"/><path fill="#896C4D" d="M311 75.2c7.5 3 7.2 10.2 7.8 16.1.9 9.3 1.4 18.7 4.2 27.7.1 2.1-1.6 2.4-3 2.5-5 .6-10 .8-14.5-1.9-7.3-4.4-15.3-3.6-23.1-2.6-4 .5-8.1 1.7-12.2 2.2-1.6.1-3 .1-4.1-1.3l-.9-18.3c-.1-2.4.4-4.3 2.4-5.6 4-2.5 5.4-6.1 4.4-10.6-.9-4.4 1.4-5.9 5.3-6.2l33.7-2z"/><path fill="#896C4D" d="M326.1 137.1l.1 3.7c1.3 6.9.1 12.9-6.2 17l-6 1.2c-9.2-2-17.1.5-24.9 5.6-7.7 5-19.5-1.7-21-11.9-1.3-8.5-1.5-17.1-2.1-25.7l.1-3.9c1-1.2 2.4-1.3 3.8-.9 4.3 2 5.1 6.3 6.6 10.1a17.6 17.6 0 0027.1 7.9c3-2.2 4.7-5.2 5.7-8.5 2.7-8.6 7.2-10.6 15.5-6.6 2.8 3.7 4.2 7.6 1.3 12z"/><path fill="#3D3C3C" d="M270 123l-3.9.1c-1.6-1.7-1.6-3.4-.1-5.1h3.9c1.7 1.7 1.7 3.3.1 5z"/><path fill="#535252" d="M270 123v-5c12.8-3.3 25.4-5.5 38.1.9 4.6 2.3 9.9 1.8 14.9.1h1c.2 1.7-.5 3.5 1 5 .2.9 0 1.3-1 1-1.8 0-3.7.2-5.5-.1-4.7-.8-6.7 1.2-7.6 5.9A17.2 17.2 0 01295 145c-9.3.6-16.6-3.7-19.9-11.9-1.3-3.6-2.4-7.3-5.1-10.1z"/><path fill="#76573E" d="M324 125l1-1c4.1-6.4 10.7-6.7 17.3-6.7 1.2 2.2 3.2 3.6 5.5 4.5 3.2 1.3 5.5 3.4 6.1 7-2.7 13.7-15.8 17.7-27.7 8.4 0-4.3-.5-8.3-2.2-12.2z"/><path fill="#C9E3E0" d="M353.8 128.7c-2.7-3.2-5.4-6.2-9.8-6.9-3.2-.5-1.8-2.8-1.7-4.6 6.8.9 12.3 3 11.5 11.5z"/><path fill="#910C1D" d="M131.3 240.7l-1.2 1.1c-4.2-.9-3.4-3.5-2-6.2 4.1-.2 4.1 2.2 3.2 5.1z"/><path fill="#5F4532" d="M496.4 418.6c-.2 1.5-.9 2.7-2.7 2.7-1.8 0-2.7-1-2.8-2.8-.1-1.8 1.1-2.7 2.7-2.8 1.8 0 2.6 1.2 2.8 2.9z"/><path fill="#896B4D" d="M292.4 142c-4.6.7-8.6-1.6-11.7-5.3-3.1-3.7-4.8-8.1-2.9-12.9 2.4-6.2 8.3-5.9 13.4-6.6 8.8-1.1 16.5 4.3 16.9 11.5.3 7.9-5.8 13.3-15.7 13.3z"/><path fill="#281D13" d="M329 125.3c0-1.8 1.1-2.8 2.7-2.9 1.9-.1 3 1.3 3 3.1 0 1.7-1.3 2.6-3 2.5-1.6 0-2.5-1-2.7-2.7z"/><path fill="#291E14" d="M288 128.1c-1.7-.2-2.9-1.1-2.7-2.8.2-1.9 1.4-3.1 3.3-2.8 1.6.2 2.7 1.3 2.5 3.1-.3 1.7-1.4 2.5-3.1 2.5z"/></svg>
