<svg xmlns="http://www.w3.org/2000/svg" fill="none" stroke-linecap="square" stroke-miterlimit="10" viewBox="0 40 600 331"><path fill="#fff" d="M0 0h600v371H0V0z"/><path stroke="#333" stroke-linecap="butt" d="M45.5 332.5h536"/><path stroke="#ccc" stroke-linecap="butt" d="M45.5 278.5h536M45.5 224.5h536M45.5 170.5h536M45.5 116.5h536M45.5 61.5h536"/><clipPath id="a"><path d="M45.5 62h536v270.4h-536V62z"/></clipPath><path fill="#0078ff52" d="M139.4 152a4.5 4.5 0 11-9 0 4.5 4.5 0 019 0zM318 109.7a4.5 4.5 0 11-9 0 4.5 4.5 0 019 0zM496.6 199a4.5 4.5 0 11-9 0 4.5 4.5 0 019 0z" clip-path="url(#a)"/><path fill="#0078ff52" d="M139.4 146.6a4.5 4.5 0 11-9 0 4.5 4.5 0 019 0zM318 166.5a4.5 4.5 0 11-9 0 4.5 4.5 0 019 0zM496.6 217a4.5 4.5 0 11-9 0 4.5 4.5 0 019 0z" clip-path="url(#a)"/><path fill="#0078ff52" d="M139.4 154.8a4.5 4.5 0 11-9 0 4.5 4.5 0 019 0zM318 180.9a4.5 4.5 0 11-9 0 4.5 4.5 0 019 0zM496.6 198a4.5 4.5 0 11-9 0 4.5 4.5 0 019 0z" clip-path="url(#a)"/><path fill="#0078ff52" d="M139.4 155.7a4.5 4.5 0 11-9 0 4.5 4.5 0 019 0zM318 180.9a4.5 4.5 0 11-9 0 4.5 4.5 0 019 0zM496.6 219.7a4.5 4.5 0 11-9 0 4.5 4.5 0 019 0zM139.4 138.5a4.5 4.5 0 11-9 0 4.5 4.5 0 019 0zM318 107.9a4.5 4.5 0 11-9 0 4.5 4.5 0 019 0z" clip-path="url(#a)"/><path fill="#0078ff52" d="M496.6 216.1a4.5 4.5 0 11-9 0 4.5 4.5 0 019 0zM139.4 152a4.5 4.5 0 11-9 0 4.5 4.5 0 019 0zM318 169.2a4.5 4.5 0 11-9 0 4.5 4.5 0 019 0z" clip-path="url(#a)"/><path fill="#0078ff52" d="M496.6 216.1a4.5 4.5 0 11-9 0 4.5 4.5 0 019 0zM139.4 155.7a4.5 4.5 0 11-9 0 4.5 4.5 0 019 0zM318 116a4.5 4.5 0 11-9 0 4.5 4.5 0 019 0z" clip-path="url(#a)"/><path fill="#0078ff52" d="M496.6 216.1a4.5 4.5 0 11-9 0 4.5 4.5 0 019 0zM139.4 147.6a4.5 4.5 0 11-9 0 4.5 4.5 0 019 0zM318 173.7a4.5 4.5 0 11-9 0 4.5 4.5 0 019 0z" clip-path="url(#a)"/><path fill="#0078ff52" d="M496.6 213.4a4.5 4.5 0 11-9 0 4.5 4.5 0 019 0zM139.4 143a4.5 4.5 0 11-9 0 4.5 4.5 0 019 0zM318 178.2a4.5 4.5 0 11-9 0 4.5 4.5 0 019 0z" clip-path="url(#a)"/><path fill="#0078ff52" d="M496.6 215.2a4.5 4.5 0 11-9 0 4.5 4.5 0 019 0z" clip-path="url(#a)"/><path fill="#000" d="M33 332.2q0-1.5.4-2.4.3-1 .9-1.5.6-.5 1.5-.5.7 0 1.3.3.5.3.8.8.4.5.6 1.3l.1 2q0 1.5-.3 2.5-.3.9-.9 1.4-.6.5-1.6.5-1.2 0-2-.9-.8-1-.8-3.5zm1.1 0q0 2.1.5 2.8.5.7 1.2.7.8 0 1.3-.7t.5-2.8q0-2.1-.5-2.8-.5-.7-1.3-.7-.7 0-1.1.6-.6.8-.6 3zM37 282.3h-1v-6.7l-1 .8-1.1.5v-1q.8-.4 1.5-1t1-1.2h.6v8.6zM38.6 227.2v1h-5.7l.1-.7.7-1.1 1.4-1.3q1.4-1.2 1.9-1.9.5-.6.5-1.2 0-.7-.5-1-.4-.5-1.1-.5-.8 0-1.2.4-.5.5-.5 1.3l-1-.1q0-1.2.7-1.8.8-.7 2-.7t2 .7q.7.7.7 1.7l-.2 1q-.2.5-.7 1l-1.7 1.6-1.2 1-.4.6h4.2zM33 171.9l1.1-.2q.2 1 .6 1.3.5.4 1 .4.8 0 1.3-.5.6-.5.6-1.3 0-.7-.5-1.2t-1.2-.5l-.8.2.2-1h.1q.7 0 1.2-.3.6-.4.6-1 0-.7-.4-1-.4-.4-1-.4t-1 .4q-.5.3-.6 1.1l-1-.2q.1-1 .8-1.6.7-.6 1.7-.6.7 0 1.3.3.6.3 1 .8.3.5.3 1.1 0 .6-.3 1-.3.5-1 .8.8.1 1.3.7.4.6.4 1.4 0 1.1-.9 2-.8.7-2 .7-1.1 0-1.9-.7-.7-.7-.9-1.7zM36.4 120v-2h-3.7v-1l4-5.6h.8v5.6h1.1v1h-1.1v2h-1zm0-3V113l-2.7 3.9h2.7zM33 63.7l1.2-.1q0 .8.5 1.2.5.4 1.1.4.8 0 1.3-.6t.5-1.5q0-.9-.5-1.4-.5-.5-1.3-.5l-1 .2-.6.6-1-.1.9-4.5h4.2v1H35l-.4 2.4q.7-.6 1.6-.6 1 0 1.9.8.7.8.7 2t-.6 2q-.9 1-2.3 1-1.2 0-2-.6-.6-.7-.8-1.7zM99.3 349.4V341h6.2v1h-5v2.6h4.7v1h-4.7v3h5.2v1h-6.4zm7.2 0l2.2-3.2-2-3h1.2l1 1.5.4.7.5-.7 1-1.5h1.3l-2.1 3 2.3 3.3H111l-1.3-2-.3-.5-1.7 2.4h-1.2zm9-.9l.1 1h-.8l-.9-.1q-.3-.2-.4-.5l-.1-1.3V344h-.8v-.8h.8v-1.5l1-.6v2.1h1v.8h-1v4.3l.2.2h.9zm5-1h1q-.2 1-1 1.6-.6.5-1.7.5-1.4 0-2.2-.9-.8-.8-.8-2.3 0-1.6.8-2.4.8-1 2.1-1t2 1q.8.8.8 2.3v.3H117q0 1 .6 1.6.5.5 1.3.5.6 0 1-.3t.6-1zm-3.5-1.8h3.4q0-.8-.4-1.1-.5-.7-1.3-.7-.7 0-1.2.5t-.5 1.3zm6.1 3.8v-6.3h1v1q.4-.7.7-.9l.6-.2q.6 0 1.1.3l-.3 1-.8-.2q-.4 0-.6.2-.3.2-.4.6-.2.5-.2 1.2v3.3h-1zm4 0v-6.3h1v1q.7-1.1 2-1.1l1 .2q.5.2.7.5l.4.8v4.8h-1v-3.7q0-.7-.2-1 0-.3-.4-.5-.3-.2-.7-.2-.7 0-1.2.4-.5.5-.5 1.6v3.4h-1zm11.1-.8l-1.1.7q-.5.2-1.2.2-1 0-1.5-.5-.6-.5-.6-1.3l.2-.8q.2-.4.6-.6.3-.3.7-.4l1-.1 1.8-.4v-.3q0-.6-.3-.9-.4-.3-1.2-.3-.7 0-1 .2-.4.3-.6 1l-1-.2q.1-.7.4-1 .4-.5 1-.7.6-.2 1.4-.2.8 0 1.3.2l.7.4q.3.3.3.8v2.3q0 1.5.2 1.9l.2.8h-1l-.3-.8zm0-2.4q-.6.3-1.8.4l-1 .3q-.2 0-.3.3-.2.2-.2.5 0 .4.3.7.4.3 1 .3t1-.3q.5-.3.8-.7l.1-1v-.5zm3 3.1V341h1v8.6h-1zm12.2-3l1.2.3q-.4 1.4-1.3 2.2-1 .7-2.3.7-1.4 0-2.3-.6-.8-.5-1.3-1.6-.4-1-.4-2.3 0-1.4.5-2.4t1.4-1.5q1-.5 2.1-.5 1.3 0 2.2.7.9.6 1.2 1.8l-1.1.3q-.3-1-.9-1.4-.5-.4-1.4-.4-1 0-1.7.5-.6.4-.9 1.2-.3.8-.3 1.7 0 1 .3 1.9.4.8 1 1.2.7.4 1.5.4 1 0 1.6-.5.7-.6 1-1.7zm2.5.3l1-.1.4 1q.3.5.9.7.6.3 1.3.3.7 0 1.2-.2t.7-.5l.2-.8q0-.4-.2-.7-.2-.3-.8-.5l-1.5-.4q-1.2-.3-1.6-.6-.7-.3-1-.7-.3-.5-.3-1.1 0-.7.4-1.2.4-.6 1-.9.8-.3 1.7-.3 1 0 1.6.3.8.3 1.2 1 .4.5.4 1.3h-1.1q-.1-.8-.6-1.2-.5-.4-1.5-.4t-1.5.4q-.5.4-.5.9t.4.8q.3.3 1.7.6l1.9.5q.7.4 1 1 .4.4.4 1.1 0 .7-.3 1.3-.4.6-1.2 1-.7.3-1.6.3-1.2 0-2-.3-.8-.4-1.2-1-.5-.8-.5-1.6zm8 0l1-.1.4 1q.3.5.9.7.6.3 1.3.3.7 0 1.2-.2t.7-.5l.2-.8q0-.4-.2-.7-.2-.3-.8-.5l-1.5-.4q-1.2-.3-1.6-.6-.7-.3-1-.7-.3-.5-.3-1.1 0-.7.4-1.2.4-.6 1-.9.8-.3 1.7-.3 1 0 1.6.3.8.3 1.2 1 .4.5.4 1.3h-1.1q-.1-.8-.6-1.2-.5-.4-1.5-.4t-1.5.4q-.5.4-.5.9t.4.8q.3.3 1.7.6l1.9.5q.7.4 1 1 .4.4.4 1.1 0 .7-.3 1.3-.4.6-1.2 1-.7.3-1.6.3-1.2 0-2-.3-.8-.4-1.2-1-.5-.8-.5-1.6zM259 346.7l1.1-.1q0 .6.4 1 .3.5.8.7.6.3 1.4.3.6 0 1.1-.2.5-.2.7-.5.3-.4.3-.8t-.3-.7q-.2-.3-.7-.5l-1.6-.4q-1.1-.3-1.6-.6l-1-.7q-.2-.5-.2-1.1 0-.7.3-1.2.4-.6 1.1-.9.7-.3 1.6-.3 1 0 1.7.3t1.1 1q.4.5.4 1.3h-1q-.2-.8-.7-1.2-.5-.4-1.5-.4t-1.5.4q-.4.4-.4.9t.3.8q.3.3 1.7.6l2 .5q.7.4 1 1 .4.4.4 1.1 0 .7-.4 1.3-.4.6-1.1 1-.8.3-1.7.3-1.2 0-2-.3-.7-.4-1.2-1-.4-.8-.5-1.6zm8.3-4.6v-1.2h1v1.2h-1zm0 7.3v-6.2h1v6.3h-1zm3 0v-6.2h1v1q.6-1.1 2-1.1l1 .2.7.5.3.8v4.8h-1v-3.7l-.1-1-.5-.5q-.3-.2-.7-.2-.7 0-1.2.4-.5.5-.5 1.6v3.4h-1zm6.8.6l1 .1q0 .5.4.7.4.3 1 .3.8 0 1.2-.3.4-.3.5-.8l.1-1.4q-.7.8-1.7.8-1.3 0-2-.9-.7-1-.7-2.2 0-.9.3-1.6.3-.8 1-1.2.6-.4 1.4-.4 1 0 1.8.9v-.8h1v5.4q0 1.5-.3 2-.3.7-1 1-.6.4-1.5.4-1.1 0-1.8-.5t-.7-1.5zm.9-3.8q0 1.3.5 1.8.4.6 1.2.6.7 0 1.2-.6t.5-1.7q0-1.2-.5-1.8-.5-.5-1.2-.5t-1.2.5q-.5.6-.5 1.7zm6.3 3.3v-8.6h1v8.6h-1zm7.2-2h1.1q-.2 1-1 1.6-.6.5-1.7.5-1.4 0-2.2-.9-.8-.8-.8-2.3 0-1.6.9-2.4.8-1 2-1 1.3 0 2 1 .9.8.9 2.3v.3H288q0 1 .6 1.6.5.5 1.3.5.6 0 1-.3t.6-1zm-3.4-1.8h3.5q-.1-.8-.4-1.1-.5-.7-1.3-.7t-1.3.5q-.5.5-.5 1.3zm13.4 1.8h1.1q-.2 1-1 1.6-.6.5-1.7.5-1.4 0-2.2-.9-.8-.8-.8-2.3 0-1.6.9-2.4.8-1 2-1 1.3 0 2 1 .9.8.9 2.3v.3H298q0 1 .6 1.6.5.5 1.3.5.6 0 1-.3t.6-1zm-3.4-1.8h3.5q-.1-.8-.4-1.1-.5-.7-1.3-.7t-1.3.5q-.5.5-.5 1.3zm5.5 3.8l2.3-3.3-2.1-3h1.3l1 1.5.4.7.4-.7 1-1.5h1.4l-2.2 3 2.3 3.3h-1.3l-1.3-2-.3-.5-1.6 2.4h-1.3zm9-1l.1 1h-.7l-1-.1q-.3-.2-.4-.5l-.1-1.3V344h-.8v-.8h.8v-1.5l1-.6v2.1h1v.8h-1v4.3l.3.2h.8zm5-1h1q-.2 1-1 1.6-.6.5-1.7.5-1.4 0-2.2-.9-.8-.8-.8-2.3 0-1.6.9-2.4.8-1 2-1 1.3 0 2 1 .9.8.9 2.3v.3H314q0 1 .6 1.6.5.5 1.3.5.6 0 1-.3t.6-1zm-3.5-1.8h3.5q-.1-.8-.4-1.1-.5-.7-1.3-.7t-1.3.5q-.5.5-.5 1.3zm6.2 3.8v-6.3h1v1q.3-.7.6-.9.3-.2.7-.2.5 0 1 .3l-.3 1-.8-.2-.6.2q-.3.2-.4.6-.2.5-.2 1.2v3.3h-1zm4 0v-6.3h1v1q.6-1.1 2-1.1l1 .2.7.5.3.8v4.8h-1v-3.7l-.1-1-.5-.5q-.3-.2-.7-.2-.7 0-1.2.4-.5.5-.5 1.6v3.4h-1zm11-.8q-.5.5-1 .7l-1.2.2q-1 0-1.6-.5-.6-.5-.6-1.3l.2-.8q.2-.4.6-.6.3-.3.8-.4l.9-.1 1.9-.4v-.3q0-.6-.3-.9-.4-.3-1.2-.3-.8 0-1.1.2-.4.3-.6 1l-1-.2q.1-.7.5-1 .3-.5 1-.7.5-.2 1.3-.2t1.3.2l.8.4.3.8V348.7l.4.8h-1.1l-.2-.8zm0-2.4q-.6.3-1.8.4l-.9.3q-.2 0-.4.3l-.1.5q0 .4.3.7.3.3 1 .3.5 0 1-.3t.7-.7q.2-.4.2-1v-.5zm3 3.1V341h1v8.6h-1zm12.3-3l1 .3q-.3 1.4-1.2 2.2-1 .7-2.3.7-1.4 0-2.2-.6-.9-.5-1.4-1.6-.4-1-.4-2.3 0-1.4.5-2.4t1.5-1.5q1-.5 2-.5 1.3 0 2.2.7.9.6 1.2 1.8l-1 .3q-.4-1-1-1.4-.5-.4-1.4-.4-1 0-1.6.5-.7.4-1 1.2-.2.8-.2 1.7 0 1 .3 1.9.3.8 1 1.2.6.4 1.4.4 1 0 1.7-.5.6-.6.9-1.7zm2.4.3l1.1-.1q0 .6.4 1 .3.5.8.7.6.3 1.4.3.6 0 1.1-.2.5-.2.7-.5.3-.4.3-.8t-.3-.7q-.2-.3-.7-.5l-1.6-.4q-1.1-.3-1.6-.6l-1-.7q-.2-.5-.2-1.1 0-.7.3-1.2.4-.6 1.1-.9.7-.3 1.6-.3 1 0 1.7.3t1.1 1q.4.5.4 1.3h-1q-.2-.8-.7-1.2-.5-.4-1.5-.4t-1.5.4q-.4.4-.4.9t.3.8q.3.3 1.7.6l2 .5q.7.4 1 1 .4.4.4 1.1 0 .7-.4 1.3-.4.6-1.1 1-.8.3-1.7.3-1.2 0-2-.3-.7-.4-1.2-1-.4-.8-.5-1.6zm8 0l1.1-.1q0 .6.4 1 .3.5.8.7.6.3 1.4.3.6 0 1.1-.2.5-.2.7-.5.3-.4.3-.8t-.3-.7q-.2-.3-.7-.5l-1.6-.4q-1.1-.3-1.6-.6l-1-.7q-.2-.5-.2-1.1 0-.7.3-1.2.4-.6 1.1-.9.7-.3 1.6-.3 1 0 1.7.3t1.1 1q.4.5.4 1.3h-1q-.2-.8-.7-1.2-.5-.4-1.5-.4t-1.5.4q-.4.4-.4.9t.3.8q.3.3 1.7.6l2 .5q.7.4 1 1 .4.4.4 1.1 0 .7-.4 1.3-.4.6-1.1 1-.8.3-1.7.3-1.2 0-2-.3-.7-.4-1.2-1-.4-.8-.5-1.6zM464.3 349.4V341h1v8.6h-1zm2.6 0v-6.2h1v1q.7-1.1 2-1.1l1 .2q.5.2.7.5l.3.8v4.8h-1v-3.7-1l-.5-.5q-.3-.2-.8-.2-.6 0-1.1.4-.5.5-.5 1.6v3.4h-1zm7 0V341h1v8.6h-1zm3-7.3v-1.2h1v1.2h-1zm0 7.3v-6.2h1v6.3h-1zm3 0v-6.2h1v1q.7-1.1 2-1.1l1 .2q.5.2.7.5l.3.8v4.8h-1v-3.7-1l-.5-.5q-.3-.2-.8-.2-.6 0-1.1.4-.5.5-.5 1.6v3.4h-1zm11.3-2l1 .2q-.2 1-.9 1.5t-1.8.5q-1.3 0-2.1-.9-.8-.8-.8-2.3 0-1.6.8-2.4.8-1 2-1 1.3 0 2.1 1 .8.8.8 2.3v.3h-4.6q0 1 .5 1.6.6.5 1.3.5.6 0 1-.3t.7-1zm-3.5-1.7h3.5q0-.8-.4-1.1-.5-.7-1.3-.7-.7 0-1.2.5t-.6 1.3zm15.5.7l1.1.3q-.3 1.4-1.3 2.2-.9.7-2.2.7-1.4 0-2.3-.6-.9-.5-1.3-1.6-.5-1-.5-2.3 0-1.4.5-2.4.6-1 1.5-1.5 1-.5 2-.5 1.4 0 2.2.7 1 .6 1.3 1.8l-1.1.3q-.3-1-1-1.4-.5-.4-1.3-.4-1 0-1.7.5-.7.4-1 1.2-.2.8-.2 1.7 0 1 .3 1.9.3.8 1 1.2.7.4 1.5.4 1 0 1.6-.5.7-.6.9-1.7zm2.5.3l1-.1q.1.6.4 1 .3.5.9.7.6.3 1.3.3.6 0 1.1-.2l.8-.5.2-.8q0-.4-.2-.7l-.8-.5-1.5-.4q-1.2-.3-1.7-.6-.6-.3-.9-.7-.3-.5-.3-1.1 0-.7.4-1.2.3-.6 1-.9.8-.3 1.6-.3 1 0 1.7.3t1.1 1q.4.5.5 1.3h-1.1q-.1-.8-.6-1.2-.5-.4-1.5-.4t-1.5.4q-.5.4-.5.9t.3.8q.4.3 1.7.6l2 .5q.7.4 1 1 .4.4.4 1.1 0 .7-.4 1.3-.4.6-1.1 1-.7.3-1.7.3-1.1 0-2-.3-.7-.4-1.2-1-.4-.8-.4-1.6zm8 0l1-.1q.1.6.4 1 .3.5.9.7.6.3 1.3.3.6 0 1.1-.2l.8-.5.2-.8q0-.4-.2-.7l-.8-.5-1.5-.4q-1.2-.3-1.7-.6-.6-.3-.9-.7-.3-.5-.3-1.1 0-.7.4-1.2.3-.6 1-.9.8-.3 1.6-.3 1 0 1.7.3t1.1 1q.4.5.5 1.3h-1.1q-.1-.8-.6-1.2-.5-.4-1.5-.4t-1.5.4q-.5.4-.5.9t.3.8q.4.3 1.7.6l2 .5q.7.4 1 1 .4.4.4 1.1 0 .7-.4 1.3-.4.6-1.1 1-.7.3-1.7.3-1.1 0-2-.3-.7-.4-1.2-1-.4-.8-.4-1.6z"/></svg>
